<svg xmlns="http://www.w3.org/2000/svg" viewBox="0 0 337.05 337.05"><defs><style>.cls-1,.cls-3,.cls-4{fill:#fff;}.cls-2{fill:#fbdc13;}.cls-2,.cls-3,.cls-4{stroke:#18120e;stroke-linecap:round;stroke-linejoin:round;stroke-width:8.45px;}.cls-4{fill-rule:evenodd;}</style></defs><g id="Layer_2" data-name="Layer 2"><g id="Слой_1" data-name="Слой 1"><circle class="cls-1" cx="168.52" cy="168.52" r="168.52"/><path class="cls-2" d="M246.56,261.13a14.56,14.56,0,0,1-10.3-4.26L178.7,199.3a14.57,14.57,0,0,1,20.6-20.6l57.57,57.56a14.57,14.57,0,0,1-10.31,24.87Z"/><circle class="cls-2" cx="144.88" cy="144.88" r="68.97" transform="translate(-60.01 144.88) rotate(-45)"/><circle class="cls-3" cx="144.88" cy="144.88" r="51.92" transform="translate(-60.01 144.88) rotate(-45)"/><path class="cls-4" d="M109.66,153.63A37.25,37.25,0,0,1,122.1,116"/><path class="cls-4" d="M116.14,167.16a37.72,37.72,0,0,1-2.4-3.57"/></g></g></svg>