<svg xmlns="http://www.w3.org/2000/svg" xmlns:xlink="http://www.w3.org/1999/xlink" viewBox="0 0 237.9 62.42"><defs><style>.cls-1{stroke:#e1e0e0;stroke-width:1.64px;fill:url(#linear-gradient);}.cls-2{fill:url(#linear-gradient-2);}.cls-3{fill:url(#linear-gradient-3);}.cls-4{fill:#d72f16;}.cls-5{fill:url(#linear-gradient-4);}.cls-6{fill:#344293;fill-rule:evenodd;}</style><linearGradient id="linear-gradient" x1="215.24" y1="32.05" x2="189.36" y2="13.92" gradientUnits="userSpaceOnUse"><stop offset="0.11" stop-color="#fff"/><stop offset="0.21" stop-color="#f5f6fc"/><stop offset="0.31" stop-color="#e6eaf7"/><stop offset="0.36" stop-color="#f0f2fa"/><stop offset="0.44" stop-color="#fbfcfe"/><stop offset="0.53" stop-color="#fff"/></linearGradient><linearGradient id="linear-gradient-2" x1="212.03" y1="36.03" x2="186.43" y2="18.11" gradientUnits="userSpaceOnUse"><stop offset="0" stop-color="#232953"/><stop offset="0.06" stop-color="#262c56"/><stop offset="0.1" stop-color="#31365f"/><stop offset="0.15" stop-color="#43476e"/><stop offset="0.2" stop-color="#5d5f84"/><stop offset="0.24" stop-color="#7e7da0"/><stop offset="0.28" stop-color="#a5a2c1"/><stop offset="0.32" stop-color="#cec8e4"/><stop offset="0.33" stop-color="#ada9c5"/><stop offset="0.35" stop-color="#8784a2"/><stop offset="0.37" stop-color="#666583"/><stop offset="0.39" stop-color="#4b4b6a"/><stop offset="0.41" stop-color="#373857"/><stop offset="0.44" stop-color="#282a49"/><stop offset="0.46" stop-color="#202141"/><stop offset="0.51" stop-color="#1d1f3f"/><stop offset="0.71" stop-color="#cec8e4"/><stop offset="0.73" stop-color="#a9a5c2"/><stop offset="0.76" stop-color="#84819f"/><stop offset="0.79" stop-color="#646381"/><stop offset="0.81" stop-color="#4a4a69"/><stop offset="0.85" stop-color="#363756"/><stop offset="0.88" stop-color="#282949"/><stop offset="0.93" stop-color="#1f2141"/><stop offset="1" stop-color="#1d1f3f"/></linearGradient><linearGradient id="linear-gradient-3" x1="209.08" y1="39.57" x2="183.97" y2="21.99" gradientUnits="userSpaceOnUse"><stop offset="0" stop-color="#961914"/><stop offset="0.1" stop-color="#b82219"/><stop offset="0.21" stop-color="#e42d1f"/><stop offset="0.32" stop-color="#ed7171"/><stop offset="0.33" stop-color="#ec6666"/><stop offset="0.35" stop-color="#e94e4d"/><stop offset="0.38" stop-color="#e73b39"/><stop offset="0.41" stop-color="#e62e2b"/><stop offset="0.44" stop-color="#e52623"/><stop offset="0.51" stop-color="#e52421"/><stop offset="0.71" stop-color="#fff"/><stop offset="0.84" stop-color="#e52421"/><stop offset="0.87" stop-color="#d41f1d"/><stop offset="0.9" stop-color="#c51b1a"/><stop offset="0.94" stop-color="#bd1919"/><stop offset="1" stop-color="#ba1818"/></linearGradient><linearGradient id="linear-gradient-4" x1="210.93" y1="28.37" x2="203.98" y2="23.5" gradientUnits="userSpaceOnUse"><stop offset="0" stop-color="#e52421"/><stop offset="0.03" stop-color="#e73836"/><stop offset="0.07" stop-color="#e94d4c"/><stop offset="0.13" stop-color="#eb5d5d"/><stop offset="0.19" stop-color="#ec6968"/><stop offset="0.28" stop-color="#ed6f6f"/><stop offset="0.53" stop-color="#ed7171"/><stop offset="0.76" stop-color="#b53125"/><stop offset="0.88" stop-color="#961914"/></linearGradient></defs><g id="Layer_2" data-name="Layer 2"><g id="Слой_1" data-name="Слой 1"><g id="ФЛАГ"><path id="БЕЛОЕ" class="cls-1" d="M237.25.61c-8.85,7.83-23.84,3.58-28,15-23.85,4.81-25.86,15.15-41,28.43l-.15,1.87c6.86-6.28,18.67-23.26,40.19-23.49,1.15-1,4.85-6.22,13.79-3.24C224.52,18.11,236.06,2.15,237.25.61Z"/><path id="СИНЕЕ" class="cls-2" d="M231.1,8.79c-3.16,3.77-6.65,3.79-11,3.7-4.66,0-11.22.47-12.75,7.11-11-.32-25.93,11.9-33.61,19.32-3.25,3.15-5.49,5.12-5.49,5.12l-.15,1.85s2.75-2.65,6.56-6.69c4.77-4.46,11.64-10.07,18.9-13.29,5.09-2.26,10,1,15.24-2.06,2.55-.68,6.85-1.1,7.87-1.27C221.29,23.09,230.51,9.55,231.1,8.79Z"/><path id="КРАСНОЕ" class="cls-3" d="M225.35,16.27c-7.76,12.39-15.6,3.71-19.26,12.05a2,2,0,0,1-2.64.94S193.5,25.73,179,36.07a73.75,73.75,0,0,0-10.58,9.73s.14-1.83.14-1.83,22.44-23,34.62-19.48C211.39,12.17,215.37,21.34,225.35,16.27Z"/><path id="ОРАНЖЕВОЕ" class="cls-4" d="M168.45,45.75C124,71.75,60.26,62.23,57.79,51.35c67.77,17.54,101.62-1.75,110.81-7.54C168.6,43.86,168.45,45.79,168.45,45.75Z"/><path id="ТЕНЬ" class="cls-5" d="M203.75,24.24c.76-.37,1-.26,3.32,0a42.49,42.49,0,0,0,7-.34c-10.28.4-5.65,7.14-11.65,5.16C205.34,29,201.1,25.55,203.75,24.24Z"/></g><g id="АЭРОФЛОТ"><path class="cls-6" d="M122,28.32h-2.86l7.68-14.66h5.56l8.49,14.66h-6.58L127.88,17h-.1L122,28.32Zm-92.92-6.4,9.08-.1a4.89,4.89,0,0,1-1.89,3.67,8,8,0,0,1-4.66,1.25,7.77,7.77,0,0,1-4.14-1,8,8,0,0,1-2.29-2l-.41-.59-3,1.64a12.22,12.22,0,0,0,3.65,2.62,14.41,14.41,0,0,0,6.66,1.3c2.6,0,6.65-.35,9.58-2.47a6.68,6.68,0,0,0,3-5.28,6.65,6.65,0,0,0-3-5.28c-2.52-1.83-6.22-2.47-9.51-2.47a17.36,17.36,0,0,0-6.09.92,12.61,12.61,0,0,0-4.29,2.44l3,1.61.71-.74A7.32,7.32,0,0,1,28,15.9a9.4,9.4,0,0,1,3.75-.66,7,7,0,0,1,5,1.6,4.75,4.75,0,0,1,1.48,3l-9.08-.13v2.25ZM151.8,15a5.36,5.36,0,0,0-4.46,1.91A6.1,6.1,0,0,0,146.12,21a6.15,6.15,0,0,0,1.22,4.06,6.17,6.17,0,0,0,8.93,0A6.2,6.2,0,0,0,157.49,21a6.15,6.15,0,0,0-1.22-4.06A5.38,5.38,0,0,0,151.8,15Zm0,13.72c-2.73,0-6.6-.61-9.21-2.47a6.67,6.67,0,0,1-3-5.28,6.67,6.67,0,0,1,3-5.28c2.61-1.86,6.48-2.47,9.21-2.47s6.61.61,9.18,2.47A6.71,6.71,0,0,1,164,21a6.71,6.71,0,0,1-3,5.28c-2.57,1.86-6.42,2.47-9.18,2.47Zm-50.57-11.4A3.7,3.7,0,0,0,99.9,18a3.39,3.39,0,0,0-1.25,2.85,3.41,3.41,0,0,0,1.25,2.88,3.7,3.7,0,0,0,1.33.67,6.3,6.3,0,0,0,1.89.28h.68V17.07h-.68a6.3,6.3,0,0,0-1.89.28Zm10.66,9.21c-.54,0-1.12.05-1.76.05h-.64v2.14H103.6V26.61H103c-.64,0-1.23,0-1.76-.05A12.34,12.34,0,0,1,95.29,25a4.73,4.73,0,0,1-2.53-4.16,4.87,4.87,0,0,1,2.53-4.13,12.63,12.63,0,0,1,5.94-1.53c.58-.05,1.17-.05,1.76-.05h.61v-2h5.89v2h.64c.59,0,1.17,0,1.76.05a12.79,12.79,0,0,1,5.94,1.53,4.89,4.89,0,0,1,2.53,4.13A4.73,4.73,0,0,1,117.83,25a12.58,12.58,0,0,1-5.94,1.53Zm0-9.21a6.53,6.53,0,0,0-1.91-.28h-.67V24.7H110a6.53,6.53,0,0,0,1.91-.28,3.7,3.7,0,0,0,1.33-.67,3.43,3.43,0,0,0,1.25-2.88A3.41,3.41,0,0,0,113.22,18a3.7,3.7,0,0,0-1.33-.67ZM79,15a5.41,5.41,0,0,0-4.49,1.91A6.13,6.13,0,0,0,73.33,21a6.18,6.18,0,0,0,1.2,4.06,6.2,6.2,0,0,0,9,0A6.16,6.16,0,0,0,84.71,21a6.11,6.11,0,0,0-1.23-4.06A5.38,5.38,0,0,0,79,15Zm0,13.72c-2.75,0-6.63-.61-9.21-2.47a6.67,6.67,0,0,1-3-5.28,6.67,6.67,0,0,1,3-5.28c2.58-1.86,6.46-2.47,9.21-2.47s6.61.61,9.18,2.47a6.7,6.7,0,0,1,3,5.28,6.7,6.7,0,0,1-3,5.28c-2.57,1.86-6.45,2.47-9.18,2.47ZM55.65,22.94H52.3v5.38H46.41V13.66H56.49c3.16,0,5,.25,6.45,1a3.89,3.89,0,0,1,2.17,3.52,4,4,0,0,1-2.17,3.6c-1.4.81-3.37,1.12-6.2,1.12Zm0-7a4.72,4.72,0,0,0-.62,0H52.3v4.85h3.35a4.65,4.65,0,0,0,2.24-.61A2.09,2.09,0,0,0,59,18.25a2.07,2.07,0,0,0-1.05-1.79,4.81,4.81,0,0,0-2.29-.56ZM9.29,17.1,9.21,17H9.13L6.35,22.1h5.87l-2.93-5Zm4.13,7H5.28L3,28.32H0L8.14,13.66H13.6l8.92,14.66H15.94l-2.52-4.23ZM163.2,15.87h6.32V28.32h5.9V15.87h6.35V13.66H163.2v2.21ZM111,39.94a1.88,1.88,0,0,0-1.23,1.22l-.09.23h2.4l.08-.23c.21-.45.47-1.3-.67-1.3a1.85,1.85,0,0,0-.49.08Zm0,2.12h-1.58l-.18.48c-.5,1.17.38,1.25.73,1.25a1.86,1.86,0,0,0,1-.28,1.39,1.39,0,0,0,.58-.71l1,.12A2,2,0,0,1,111,44.33a4.81,4.81,0,0,1-1.29.15c-1.35,0-2.34-.38-1.49-2.55A3.83,3.83,0,0,1,111,39.25a4.06,4.06,0,0,1,.76-.07c2,0,2.07,1,1.19,2.88Zm-3.22-2.76h-1.11l-4.45,3.75,1.47-3.75h-1.12l-2,5.1h1.14l4.41-3.77-1.46,3.77h1.14l2-5.1Zm-11.4,0-2,5.1h1.14l.9-2.29h1.09c.2,0,.46,0,.58.18a.48.48,0,0,1,0,.48l-.15.69c-.08.33-.14.69.33.89a2.83,2.83,0,0,0,.79.13l.46-.74a.8.8,0,0,1-.26,0c-.23-.07-.2-.28-.17-.43l0-.36a1.48,1.48,0,0,0,0-.81.69.69,0,0,0-.52-.36v0a1.3,1.3,0,0,0,.67-.34,2.37,2.37,0,0,0,.41-.53l.2-.36a1,1,0,0,1,.53-.56,1.34,1.34,0,0,1,.41-.08l.12-.66a2.82,2.82,0,0,0-1.29.31,1.91,1.91,0,0,0-.64.79l-.18.28a1.25,1.25,0,0,1-.53.61,1,1,0,0,1-.64.15h-1l.79-2ZM93,43.39a6.16,6.16,0,0,1-.73.25,3.62,3.62,0,0,1-.84.1,1.35,1.35,0,0,1-1.06-.33c-.32-.36-.11-.92.15-1.56a3.4,3.4,0,0,1,.85-1.53,1.7,1.7,0,0,1,1.2-.46.84.84,0,0,1,.76.29c.14.2.06.43-.12.76l1.08-.08c.41-.56.35-1.12-.12-1.4A2.36,2.36,0,0,0,93,39.18a4.16,4.16,0,0,0-1.88.43,4,4,0,0,0-1.84,2.22c-.2.53-.49,1.53.09,2.14a2.12,2.12,0,0,0,1.67.51,5.12,5.12,0,0,0,1.31-.15l.85-.33L93,43.39Zm-5.84-6.3a.94.94,0,0,1-.29.35,1.42,1.42,0,0,1-.73.23c-.21,0-.5-.08-.56-.23a.3.3,0,0,1,0-.35h-.82a.74.74,0,0,0,.09,1,1.65,1.65,0,0,0,1,.26,2.76,2.76,0,0,0,1.26-.26,1.59,1.59,0,0,0,.85-1Zm1.63,2.21H87.67l-4.44,3.75,1.46-3.75H83.58l-2,5.1h1.14l4.42-3.77L85.69,44.4h1.14l2-5.1Zm-6.9,0H80.77l-4.44,3.75,1.46-3.75H76.68l-2,5.1H75.8l4.42-3.77L78.76,44.4H79.9l2-5.1Zm-8.42,4.09c-.26.09-.46.17-.76.25a3.69,3.69,0,0,1-.87.1,1.28,1.28,0,0,1-1-.33c-.29-.36-.11-.92.15-1.56a3.74,3.74,0,0,1,.88-1.53A1.62,1.62,0,0,1,73,39.86a1,1,0,0,1,.79.29c.11.2,0,.43-.12.76l1-.08c.41-.56.38-1.12-.09-1.4a2.5,2.5,0,0,0-1.23-.25,3.75,3.75,0,0,0-3.71,2.65c-.2.53-.5,1.53.09,2.14a2.16,2.16,0,0,0,1.67.51,5,5,0,0,0,1.31-.15c.24-.1.56-.21.82-.33l-.12-.61Zm-5.76,0-.76.25a3.69,3.69,0,0,1-.87.1,1.28,1.28,0,0,1-1-.33c-.32-.36-.11-.92.15-1.56a3.18,3.18,0,0,1,.88-1.53,1.56,1.56,0,0,1,1.17-.46.87.87,0,0,1,.76.29c.11.2,0,.43-.12.76L69,40.83c.41-.56.35-1.12-.09-1.4a2.48,2.48,0,0,0-1.22-.25,3.75,3.75,0,0,0-3.72,2.65c-.2.53-.49,1.53.09,2.14a2.16,2.16,0,0,0,1.67.51A5,5,0,0,0,67,44.33c.24-.1.56-.21.82-.33l-.12-.61ZM60.13,40a2.45,2.45,0,0,0-.29.18A3,3,0,0,0,59,41.39l-.35.9a1.59,1.59,0,0,0-.09,1.17c.09.18.32.36.82.36a2,2,0,0,0,.76-.16,1,1,0,0,0,.32-.2,2.48,2.48,0,0,0,.82-1.17l.38-.9a1.51,1.51,0,0,0,.06-1.19.84.84,0,0,0-.79-.34,2.12,2.12,0,0,0-.79.16Zm1-.84a1.72,1.72,0,0,1,1.61.66,2.3,2.3,0,0,1-.06,2,4.42,4.42,0,0,1-1.49,2,3,3,0,0,1-1.11.51,3.2,3.2,0,0,1-1,.13,1.81,1.81,0,0,1-1.64-.64,2.17,2.17,0,0,1,.12-2,3.91,3.91,0,0,1,1.46-2,3.77,3.77,0,0,1,1.08-.54,4.88,4.88,0,0,1,1-.12Zm-5.73-1.31h-1l-1,2.51h1.67a.74.74,0,0,0,.26,0A1.9,1.9,0,0,0,56.53,40a1.93,1.93,0,0,0,.77-.94c.2-.51,0-.77-.12-.87a1.49,1.49,0,0,0-1-.31Zm0,3.32a2.43,2.43,0,0,1-.44,0H53.2L52,44.4H50.72L53.58,37h2.9a3.1,3.1,0,0,1,2,.49,1.35,1.35,0,0,1,.27,1.53,3.18,3.18,0,0,1-1.26,1.48,4,4,0,0,1-2,.66ZM173.58,39.3h-1.12L168,43.05l1.49-3.75h-1.14l-2,5.1h1.14l4.42-3.77-1.47,3.77h1.15l2-5.1Zm-6.91,0h-1.11l-.79,2H162l.79-2h-1.14l-2,5.1h1.14l.9-2.37h2.78l-.93,2.37h1.17l1.95-5.1Zm-6.72,0h-1.11l-4.45,3.75,1.47-3.75h-1.12l-2,5.1h1.11l4.44-3.77-1.46,3.77H158l2-5.1Zm-10.38,0-.67,1.46a12.38,12.38,0,0,1-.7,1.45,2.57,2.57,0,0,1-1.76,1.61l-.17.66a3.14,3.14,0,0,0,1.31-.38c1.14-.64,1.52-1.74,2.37-3.52l.29-.61h1.41L150,44.4h1.11l2-5.1Zm-24.91,2.76a2,2,0,0,0-.82.28,1.27,1.27,0,0,0-.55.61.62.62,0,0,0,0,.64.92.92,0,0,0,.7.23,1.69,1.69,0,0,0,.62-.11,1.38,1.38,0,0,0,.41-.15,1.85,1.85,0,0,0,.58-.46l.41-1.07h-.82a3.21,3.21,0,0,0-.58,0Zm.61,2.34.23-.63h0a3.86,3.86,0,0,1-.82.51h0a3.06,3.06,0,0,1-1.2.2c-1.29,0-1.61-.69-1.29-1.48a2.76,2.76,0,0,1,2.52-1.58,7.13,7.13,0,0,1,.82,0h.85l.23-.66c.09-.23.18-.48,0-.66s-.41-.21-.65-.21a1.66,1.66,0,0,0-1.25.36.87.87,0,0,0-.27.41l-1-.05c0-.43.41-.92,1.26-1.2a5.19,5.19,0,0,1,1.58-.2,2,2,0,0,1,1.43.45c.32.44.09.95-.12,1.46l-1.28,3.31Zm18.66-2.34a2,2,0,0,0-.82.28,1.36,1.36,0,0,0-.56.61.55.55,0,0,0,.09.64.85.85,0,0,0,.7.23,1.54,1.54,0,0,0,.59-.11,1.48,1.48,0,0,0,.41-.15,2,2,0,0,0,.58-.46l.44-1.07h-.85a3.39,3.39,0,0,0-.58,0Zm.61,2.34.26-.63h-.06a3.45,3.45,0,0,1-.81.51,3.29,3.29,0,0,1-1.23.2c-1.29,0-1.61-.69-1.29-1.48a2.76,2.76,0,0,1,2.52-1.58,7,7,0,0,1,.81,0h.85l.27-.66a.67.67,0,0,0,0-.66.89.89,0,0,0-.68-.21,1.7,1.7,0,0,0-1.25.36.87.87,0,0,0-.27.41l-1-.05c.06-.43.41-.92,1.26-1.2a5.26,5.26,0,0,1,1.57-.2,2,2,0,0,1,1.44.45c.32.44.09.95-.09,1.46l-1.28,3.31Zm-3.13-5.1h-1.14l-4.41,3.75,1.46-3.75h-1.14l-2,5.1h1.14l4.41-3.77-1.46,3.77h1.15l2-5.1Zm-9.79,2.83a.65.65,0,0,0-.21,0H130l-.62,1.6h1.38a2,2,0,0,0,.88-.17,0,0,0,0,1,0,0,1.19,1.19,0,0,0,.49-.59.54.54,0,0,0,0-.63.86.86,0,0,0-.49-.16Zm0-2.16h-.79l-.59,1.45h1.38a1.43,1.43,0,0,0,.84-.18,1,1,0,0,0,.47-.56.5.5,0,0,0-.08-.56,1,1,0,0,0-.65-.15Zm0,4.36a4.29,4.29,0,0,1-.79.07h-2.9l2-5.1h3a1.68,1.68,0,0,1,1.15.31.76.76,0,0,1,.11.92,2.08,2.08,0,0,1-.5.71,2,2,0,0,1-.9.44l0,0a1,1,0,0,1,.67.38.84.84,0,0,1,0,.84,2.45,2.45,0,0,1-.82,1,3.78,3.78,0,0,1-1,.44Zm48.89-5h-1.15L175,43.05l1.46-3.75h-1.14l-2,5.1h1.14l4.42-3.77-1.46,3.77h1.14l2-5.1Z"/><path class="cls-6" d="M7.49,42.89l-1.62-.71,6.72-.82c.12.2.24.37.37.55l-5.47,1Zm18,0,1.63-.74-6.69-.81a2.08,2.08,0,0,1-.35.57l5.41,1Zm-1,.11-2,.69-2.89-.88-.25-.08a2,2,0,0,0,.25-.25c.12-.1.21-.24.33-.33l4.6.85Zm5.37-1.89L28.08,42l-7.43-.86c.05-.18.11-.35.17-.53l9.11.53Zm.67-.25L33,39.31H19.88a3.51,3.51,0,0,1-.25,1.43,3.11,3.11,0,0,1-3.05,1.91,3.51,3.51,0,0,1-3.09-1.87,3.38,3.38,0,0,1-.31-1.47H0l2.4,1.55,10.07-.53a4.12,4.12,0,0,0,1,1.82,4.33,4.33,0,0,0,3.09,1.31,4,4,0,0,0,3.05-1.29,4.44,4.44,0,0,0,1-1.8l10,.49Zm-11,4,.25.47-.25.12-.68.31-.79-1.54a5.46,5.46,0,0,1-1.58.29,5.15,5.15,0,0,1-1.72-.23l-.67,1.48a1.16,1.16,0,0,1-.7-.13.48.48,0,0,1-.23-.3l.23-.39.57-1a2.09,2.09,0,0,1-.49-.35L14,43a5,5,0,0,0,2.54.76,4.21,4.21,0,0,0,2.52-.82l.53.15.21.08-.21.18a2.37,2.37,0,0,1-.55.45l.55,1.05Zm0-8a5.08,5.08,0,0,1,1.07,2.21h-.84a3.83,3.83,0,0,0-.23-.75,7.42,7.42,0,0,0-3.05-3.42l-.51-.31.51.18a7.3,7.3,0,0,1,3.05,2.09Zm-2.27,5.51a1.9,1.9,0,0,0,.8-.35l-1.33-2.64,1.39-.67-1.17-1-.47.21-2,.92.58,1.33,1-.43,1.25,2.64Zm-3.64.37-.23-.19a2.91,2.91,0,0,1-.39-.41L8.51,43l2,.66,3.26-.92Zm-1.25-1.62c-.07-.18-.13-.35-.19-.53l-9.19.53L5,42l7.52-.9Z"/></g></g></g></svg>