<svg xmlns="http://www.w3.org/2000/svg" xmlns:xlink="http://www.w3.org/1999/xlink" viewBox="0 0 228.99 45.69"><defs><style>.cls-1{fill:#006336;}.cls-2{fill:url(#radial-gradient);}.cls-3{fill:url(#radial-gradient-2);}</style><radialGradient id="radial-gradient" cx="22.83" cy="-5618.15" r="27.33" gradientTransform="matrix(1, 0, 0, -1, 2.5, -5595.74)" gradientUnits="userSpaceOnUse"><stop offset="0" stop-color="#51a145"/><stop offset="0.5" stop-color="#82af3d"/><stop offset="0.71" stop-color="#2ba54b"/><stop offset="0.93" stop-color="#264122"/><stop offset="0.93" stop-color="#264122"/></radialGradient><radialGradient id="radial-gradient-2" cx="22.83" cy="-5618.15" r="27.33" gradientTransform="matrix(1, 0, 0, -1, 2.5, -5595.74)" gradientUnits="userSpaceOnUse"><stop offset="0" stop-color="#51a145"/><stop offset="0.5" stop-color="#82af3d"/><stop offset="0.71" stop-color="#299840"/><stop offset="0.93" stop-color="#264122"/><stop offset="0.93" stop-color="#264122"/></radialGradient></defs><g id="Layer_2" data-name="Layer 2"><g id="Слой_1" data-name="Слой 1"><path class="cls-1" d="M221.76,6.65h5.42a23.51,23.51,0,0,0-3.91,3.1l-5.42,5.54,3,4.26A78.74,78.74,0,0,0,229,29.7h-7.76a43.85,43.85,0,0,0-3.79-6.88l-3.5-5.25,3-3.86Q221.05,8.4,221.76,6.65Zm-8.23,2.57V27.08l.23,1.34a1.88,1.88,0,0,0,1.05.58v.7h-7.53V29l1.05-.58a2.57,2.57,0,0,0,.24-1.34V9.22l-.24-1.28a1.34,1.34,0,0,0-1.05-.53V6.65h7.53v.76a1.34,1.34,0,0,0-1.05.53Zm-11.21,0V27.08l.24,1.34,1.05.58v.7H196V29a2.76,2.76,0,0,0,1.17-.58l.17-1.34V17.8h-8.87v9.28l.23,1.34a1.88,1.88,0,0,0,1.05.58v.7h-7.64V29a2,2,0,0,0,1.17-.58l.23-1.34V9.22l-.23-1.28c-.16-.28-.55-.45-1.17-.53V6.65h7.64v.76a1.35,1.35,0,0,0-1.05.53l-.23,1.28v7.06h8.87V9.22l-.17-1.28A1.83,1.83,0,0,0,196,7.41V6.65h7.59v.76a1.32,1.32,0,0,0-1.05.53ZM229,37.76H60.11V35.48H229ZM165.62,7.41V6.65h6.65a11.87,11.87,0,0,0,.81,3.39L178,23.81a43,43,0,0,0,2.39,5.89h-5.84L172,21.42h-7.42l-1.57,5.48-.47,2.8h-4.2l7.47-17.27A12.64,12.64,0,0,0,167,8.7C167,8,166.51,7.53,165.62,7.41Zm2.74,3.09-3.15,9.28h6.3Zm-11.79,1.17h-1.28l-.3-1a3.41,3.41,0,0,0-1.4-2.22l-3.21-.41h-3.09a2,2,0,0,0-1.4.35,1.52,1.52,0,0,0-.29,1v5.49h1.28q5.61,0,7.76,1.11,3.11,1.51,3.1,5.95t-2.45,6.19q-2.16,1.51-6.72,1.51h-9.21V29l1.1-.58.18-1.34V9.22l-.18-1.28c-.15-.28-.52-.45-1.1-.53V6.65h17.21Zm-11,4.73v9.86a2,2,0,0,0,.41,1.52,2.27,2.27,0,0,0,1.63.46h.7a3.7,3.7,0,0,0,3.27-1.51,8.36,8.36,0,0,0,.94-4.5,7.17,7.17,0,0,0-1-4.31c-.7-1-2-1.52-3.91-1.52Zm-8.29-3.15c0,2.68-.81,4.61-2.45,5.77-1.4,1-3.58,1.52-6.53,1.52H126v6.54l.23,1.34c.12.23.49.43,1.11.58v.7h-7.59V29l1.06-.58.23-1.34V9.22l-.23-1.28a1.36,1.36,0,0,0-1.06-.53V6.65h9.58q3.9,0,5.72,1.17Q137.31,9.34,137.31,13.25Zm-11-5c-.23.15-.35.5-.35,1.05v9.74h2.34a3.14,3.14,0,0,0,3-1.63,9.92,9.92,0,0,0,.76-4.44c0-3.3-1.38-5-4.14-5h-.59Zm-10.09,3.38H115l-.29-1a4,4,0,0,0-1.46-2.22l-3.15-.41h-2.57l-.93.24-.24.87v7.12h3c2.1,0,3.48-.23,4.14-.7V18.5c-.66-.47-2-.7-4.14-.7h-3v8.64a1.54,1.54,0,0,0,.7,1.45l2.92.35h.64l3.16-.46a4.14,4.14,0,0,0,1.28-2.57l.23-.88h1.46V29.7H100.14V29a1.94,1.94,0,0,0,1.11-.58l.23-1.34V9.22l-.23-1.28a1.42,1.42,0,0,0-1.11-.53V6.65h16.11Zm-19.9,0H95.12l-.29-1a3.65,3.65,0,0,0-1.46-2.22l-3.09-.41H87.07a2.19,2.19,0,0,0-1.4.35,2.19,2.19,0,0,0-.18,1v5.49h1.29q5.53,0,7.76,1.11,3,1.51,3,5.95c0,2.88-.81,4.94-2.45,6.19Q93,29.71,88.41,29.7H79.13V29a2,2,0,0,0,1.17-.58l.23-1.34V9.22L80.3,7.94c-.16-.28-.55-.45-1.17-.53V6.65H96.35ZM73.12,8.52a5.6,5.6,0,0,0-3.27-.76,5.24,5.24,0,0,0-5,2.57q-1.22,2.22-1.22,7.24c0,3.34.44,5.81,1.34,7.41q1.63,3,5.6,3a12.94,12.94,0,0,0,5.78-1.4l.7,1.46a14.65,14.65,0,0,1-7.82,2q-11,0-11-11.61,0-12.19,11.38-12.2a16.91,16.91,0,0,1,6.71,1v4.79H74.93l-.41-1.4A4.23,4.23,0,0,0,73.12,8.52ZM85.49,16.4v9.86a2.3,2.3,0,0,0,.35,1.52,2.4,2.4,0,0,0,1.7.46h.64q4.2,0,4.2-6a7.18,7.18,0,0,0-1-4.31c-.74-1-2.07-1.52-4-1.52Z"/><path class="cls-2" d="M38.22,3l2.05,1.86L14.47,19.67,2,12.43,3.15,10.1l11.32,6.47ZM33,0l2.74,1.4L14.47,13.66,4.55,8,6.24,6l8.23,4.73Zm9,6.77,1.52,2L14.47,25.56l-14.06-8,.64-2.57,13.42,7.7Z"/><path class="cls-3" d="M46.28,14.3a22.64,22.64,0,0,1,1.28,7.58,23.71,23.71,0,0,1-1.28,7.71l-.59,1.57a24.17,24.17,0,0,1-5.07,7.59,23.53,23.53,0,0,1-7.59,5,23.38,23.38,0,0,1-9.28,1.92,23.13,23.13,0,0,1-9.28-1.92,24.63,24.63,0,0,1-7.53-5,23,23,0,0,1-5.07-7.59A23.85,23.85,0,0,1,0,21.88V20.31l14.47,8.23L45,11Z"/></g></g></svg>