<svg xmlns="http://www.w3.org/2000/svg" viewBox="0 0 337.05 337.05"><defs><style>.cls-1,.cls-5{fill:#fff;}.cls-2{fill:none;}.cls-2,.cls-3,.cls-4,.cls-5{stroke:#18120e;stroke-linecap:round;stroke-linejoin:round;stroke-width:8.45px;}.cls-3,.cls-4{fill:#ffdb2e;}.cls-3{fill-rule:evenodd;}</style></defs><g id="Layer_2" data-name="Layer 2"><g id="Слой_1" data-name="Слой 1"><circle class="cls-1" cx="168.52" cy="168.52" r="168.52" transform="translate(-69.8 168.52) rotate(-45)"/><path class="cls-2" d="M255,207.81H101.29a15.84,15.84,0,0,1-15.53-12.73L74.25,137.51a15.83,15.83,0,0,0-15.53-12.73H51.21"/><path class="cls-3" d="M232.67,192H110.75a9,9,0,0,1-9-9V109.7a9,9,0,0,1,9-9H232.67a9,9,0,0,1,9,9V183a9,9,0,0,1-9,9"/><line class="cls-4" x1="218.43" y1="148.92" x2="218.43" y2="167.75"/><line class="cls-4" x1="218.43" y1="148.66" x2="226.28" y2="156.51"/><line class="cls-4" x1="218.43" y1="148.66" x2="210.03" y2="157.06"/><line class="cls-4" x1="210.79" y1="179.13" x2="226.07" y2="179.13"/><line class="cls-4" x1="190.52" y1="148.92" x2="190.52" y2="167.75"/><line class="cls-4" x1="190.52" y1="148.66" x2="198.37" y2="156.51"/><line class="cls-4" x1="190.52" y1="148.66" x2="182.12" y2="157.06"/><line class="cls-4" x1="182.89" y1="179.13" x2="198.16" y2="179.13"/><line class="cls-4" x1="171.71" y1="100.7" x2="171.71" y2="119.53"/><circle class="cls-5" cx="113.81" cy="232.71" r="12.05" transform="matrix(0.15, -0.99, 0.99, 0.15, -133.73, 309.08)"/><circle class="cls-5" cx="229.62" cy="232.71" r="12.05" transform="translate(-12.37 452.53) rotate(-87.64)"/></g></g></svg>