<svg xmlns="http://www.w3.org/2000/svg" viewBox="0 0 337.05 337.05"><defs><style>.cls-1,.cls-3{fill:#fff;}.cls-2{fill:#ffdb2e;fill-rule:evenodd;}.cls-2,.cls-3,.cls-4{stroke:#18120e;stroke-miterlimit:10;stroke-width:3.38px;}.cls-4{fill:#18120e;}</style></defs><g id="Layer_2" data-name="Layer 2"><g id="Слой_1" data-name="Слой 1"><circle class="cls-1" cx="168.52" cy="168.52" r="168.52"/><path class="cls-2" d="M257.26,204.37H84.41A11.77,11.77,0,0,1,72.64,192.6V135a11.77,11.77,0,0,1,11.77-11.77h11.4l1.87,20.71A12.38,12.38,0,0,0,110,155.19l135.38.57,3.79,15.45a10.47,10.47,0,0,0,8.52,7.84l12.29.59.56,13A13.36,13.36,0,0,1,257.26,204.37Z"/><circle class="cls-3" cx="120.24" cy="204.86" r="12.97" transform="translate(-109.64 145.02) rotate(-45)"/><path class="cls-4" d="M120.24,220.58A15.72,15.72,0,1,1,136,204.86,15.74,15.74,0,0,1,120.24,220.58Zm0-25.93a10.21,10.21,0,1,0,10.21,10.21A10.23,10.23,0,0,0,120.24,194.65Z"/><circle class="cls-3" cx="229.08" cy="204.86" r="12.97" transform="translate(-77.76 221.99) rotate(-45)"/><path class="cls-4" d="M229.08,220.58a15.72,15.72,0,1,1,15.72-15.72A15.73,15.73,0,0,1,229.08,220.58Zm0-25.93a10.21,10.21,0,1,0,10.22,10.21A10.22,10.22,0,0,0,229.08,194.65Z"/><path class="cls-4" d="M258.45,208.05h-15a2.75,2.75,0,1,1,0-5.5h15a9.68,9.68,0,0,0,9.67-9.67V180.82l-10.8-44c-1.77-6.94-5.43-10.32-11.19-10.32H84a9.67,9.67,0,0,0-9.66,9.66v56.75A9.68,9.68,0,0,0,84,202.55h20.53a2.75,2.75,0,0,1,0,5.5H84a15.19,15.19,0,0,1-15.17-15.17V136.13A15.19,15.19,0,0,1,84,121H246.13c8.28,0,14.15,5.15,16.52,14.5l10.89,44.37a3,3,0,0,1,.08.66v12.39A15.19,15.19,0,0,1,258.45,208.05Z"/><path class="cls-4" d="M213,208.05H134.73a2.76,2.76,0,1,1,0-5.5H213a2.76,2.76,0,1,1,0,5.5Z"/><path class="cls-4" d="M244.91,159.2H112.46A20.2,20.2,0,0,1,92.28,139V123.71A2.75,2.75,0,0,1,95,121H237.85a2.77,2.77,0,0,1,2.69,2.18l7.06,32.73a2.78,2.78,0,0,1-.55,2.31A2.74,2.74,0,0,1,244.91,159.2ZM97.78,126.47V139a14.7,14.7,0,0,0,14.68,14.68h129l-5.87-27.23Z"/><path class="cls-4" d="M270.43,181.32H255.69a10.32,10.32,0,0,1-10-8.11l-10.49-48.92a2.76,2.76,0,0,1,2.69-3.33h8.8a15.85,15.85,0,0,1,15.42,12.09l11,44.86a2.74,2.74,0,0,1-2.67,3.41Zm-29.18-54.85L251,172.05a4.8,4.8,0,0,0,4.66,3.77h11.23l-10.2-41.45a10.33,10.33,0,0,0-10.07-7.9Z"/></g></g></svg>