<svg xmlns="http://www.w3.org/2000/svg" viewBox="0 0 282.15 70.02"><defs><style>.cls-1,.cls-5{fill:#1d1d1b;}.cls-2{fill:#dde0e2;}.cls-2,.cls-4,.cls-5{fill-rule:evenodd;}.cls-3{fill:#fff;}.cls-4{fill:#ffe500;}</style></defs><g id="Layer_2" data-name="Layer 2"><g id="Слой_1" data-name="Слой 1"><g id="_7" data-name="7"><path class="cls-1" d="M96.05,36.28H88.29V31.5h21.16v4.78h-7.76V49.42H96.05Z"/><path class="cls-1" d="M131.13,31.5V49.42h-5.46V39l-9.41,10.43h-4.82V31.5h5.46V41.93l9.41-10.43Z"/><path class="cls-1" d="M140.53,49.42h-5.46V31.5h5.46v6.55h8.77V31.5h5.46V49.42H149.3V42.76h-8.77Z"/><path class="cls-1" d="M158.7,49.42V31.5h5.46v4.82h5.61a11.7,11.7,0,0,1,4,.49,6,6,0,0,1,4.1,6A6.18,6.18,0,0,1,173.19,49a12.38,12.38,0,0,1-3.42.42Zm5.46-4.33h4.67a5.18,5.18,0,0,0,2.14-.26,2.25,2.25,0,0,0,1.39-2.11,2,2,0,0,0-1.43-2,6.22,6.22,0,0,0-2.1-.23h-4.67Z"/><path class="cls-1" d="M185.83,49.42h-5.46V31.5h5.46v6.74h1.5l6.59-6.74h6.85L192,40.08l9.07,9.34h-7.27l-6.51-6.78h-1.5Z"/><path class="cls-1" d="M224.18,40.5c0,5.34-4.41,9.48-11.71,9.48s-11.74-4.14-11.74-9.48S205.13,31,212.47,31,224.18,35.15,224.18,40.5Zm-5.72,0c0-2.94-2.37-5.08-6-5.08s-6,2.14-6,5.08,2.33,5.12,6,5.12S218.46,43.43,218.46,40.5Z"/><path class="cls-1" d="M253.16,40.46c0,5.12-4.1,7.79-11,7.94v1.81h-5.46V48.4c-6.85-.15-11-2.82-11-7.94s4.1-8,11-8.17v-1.8h5.46v1.8C249.06,32.44,253.16,35.34,253.16,40.46Zm-16.45-4.29c-3.76.15-5.42,1.88-5.42,4.29s1.66,3.95,5.42,4.1Zm10.88,4.29c0-2.41-1.62-4.14-5.42-4.29v8.39C246,44.41,247.59,42.87,247.59,40.46Z"/><path class="cls-1" d="M282.15,40.46c0,5.12-4.11,7.79-11,7.94v1.81H265.7V48.4c-6.85-.15-10.95-2.82-10.95-7.94s4.1-8,10.95-8.17v-1.8h5.46v1.8C278,32.44,282.15,35.34,282.15,40.46ZM265.7,36.17c-3.76.15-5.42,1.88-5.42,4.29s1.66,3.95,5.42,4.1Zm10.88,4.29c0-2.41-1.62-4.14-5.42-4.29v8.39C275,44.41,276.58,42.87,276.58,40.46Z"/><path class="cls-2" d="M22.33,50.77c1-.78,1.8-1.17,1.76-3.05-1.48.75-5.66.71-7.41-1.7-.49-.68,0-1,.51-.48,1.2,1.35,3.41.74,4.22.34a3.15,3.15,0,0,0-.79-1.33c.31-.3,1.16-.74,1.34-1.5a10.66,10.66,0,0,0-2.24-.43A1.52,1.52,0,0,0,20.15,41c-1.81.56-4-.2-4.56-.87s0-1.28.43-.84c.9.95,5.36,2,7,.38a2.46,2.46,0,0,1-1.41-1.06c1.53-.15,2.75-1.06,2.85-2.18a6.82,6.82,0,0,1-3-.48,1.87,1.87,0,0,0,1.43-1.36c-2.8-.17-3-2.25-3-2.59,1.82,1.05,5,.58,4.21-2-1.52-.08-3-2.54,1.13-4.8,3.79-2.05,8.11-4.27,7.73-7.92-.25-2.33-4.09-3.93-4.58-5.11-1.6.77-1.93,1.65-1.2,3.14,0,0-3.58.35-3.86-1.85a3.39,3.39,0,0,1,1.24-2.61c-.4,0-3.09-.72-3.9,1.47-1.51-1-2.8-1-3.82.1,1.62,1,2.63,4.26,5.31,5.24-1.91,1-5,.6-6.79-2.58-1.71,2.57-2.69,5.11,1,7.83-6.66,3-6.61,8.81-12.39,11.56C4.51,36,5.74,36,7.32,35.74,4.82,39,7,42.39,3,43.78c.37,1.33,1.11,2.39,2.58,2-.42.65-.69.63-1.34,1.35,2.16,1.36,4.73.37,5.31-4,.11-.78,1.18-.29.81.47-2.47,5.1,3.77,8.94,1.56,12.68,1.95-.08,3.43-.23,4.25-.89a4.22,4.22,0,0,1,.54,2.33,1.68,1.68,0,0,0,1.54-1.58c.71,2,3.23,4.25,7.26,4.25-2.14-3-.15-6.14-3.17-9.62m-4,3.76L17.49,56a18.81,18.81,0,0,0-1.23-2.68c-.69,1.43-1.78,1.46-2.83,1.46.23-3.41-4.06-6.85-2.18-10.74a1.57,1.57,0,0,0-.68-2.14C7.7,40.43,9,46.5,6.15,46.68A7.65,7.65,0,0,0,7,44.43c-.61.16-2.07,1.09-2.73-.11a4.75,4.75,0,0,0,2.43-3.67,13.89,13.89,0,0,1,.83-3.28,18.78,18.78,0,0,1,2.13-3c-.29,0-3.52.73-4.25.39,5.6-3.44,4.34-7.81,12.87-11.7-2.24-1.66-4.53-3-2.89-6.16,2.34,2.8,6.79,1.83,9.18.53-2.37-.48-5.42-2.56-6.15-4.89.9-.14,2.05.83,2.72,1.28.32-.85.45-1.85,1.49-2.07-1.39,3,1.35,4.52,4,4.53.4,0,2.09-.17,2.09-.17-.27-.56-1.36-2.07-.57-2.69.64.6,1.41,1.08,2.1,1.61,5.08,3.94-2.42,7.58-5.48,9.24-4.82,2.6-3.53,5.69-1.52,6.48,0,.36-.22.51-.56.62-1.4.47-2.72-.54-3.84-1.18.06,1.94-.07,3.81,2.08,4.88l-1.48.54c1.27,1,1.66,1.48,3.19,1.67a6.88,6.88,0,0,1-2.37.42A6,6,0,0,0,21,39.43c-3.14.38-4.39-1.41-5.36-1.34-2.07.15-1.94,4,3.15,4l-.53.87a5.91,5.91,0,0,0,1.85.67,12,12,0,0,0-1,.93l.81.7c-2.07.37-2.66-1.84-4-.77-2,1.62,2.48,5.06,6.82,4.55a15.44,15.44,0,0,1-1.83,1.51c3.54,3.34,1.8,6.49,3.25,8.8a6.43,6.43,0,0,1-5.84-4.87"/><path class="cls-2" d="M12.77,42.33c.73.77,1.63.85,3.32.74-1.86-.22-2.9-.68-3.55-1.91a17.71,17.71,0,0,1-.19-2,14.29,14.29,0,0,1,1.94-6.83,4.77,4.77,0,0,0,4.08,4.53c-2.54-1.11-4-3.61-3.22-6q.8-1.27,1.8-2.61c.33-.43.66-.84,1-1.22-.35,1.23,1.15,2.51,2.15,2.72-.54-.53-1.71-2.25,1-5.12a12.92,12.92,0,0,0-2.21,1.35c4.88-5.27,8.89-5.42,10.73-8.07-2.67,1.82-9.73,2.81-12.9,1.95,1.75,1.17,6,1.06,7,.84-3.44,3.35-11,6.8-12.26,9.88a8.8,8.8,0,0,1,4.6-2.9A31.07,31.07,0,0,0,12.87,33c-2,4.34-4.67,4.39-4.84,8,.91-2.78,2.76-3.48,4-5.31a17.86,17.86,0,0,0-.29,4A12.57,12.57,0,0,0,12.66,44c-.13,1.77,0,4.79,2.06,6.79a9.18,9.18,0,0,1-1.55-5.69c1.59,3.06,6.12,7.3,8.31,10.14-2.19-3.66-7.56-7.93-8.71-12.87"/><path class="cls-2" d="M62.92,27.61a8.8,8.8,0,0,1,4.6,2.9c-1.3-3.08-8.82-6.53-12.27-9.88,1,.22,5.26.33,7-.84-3.17.86-10.23-.13-12.9-1.95,1.84,2.65,5.85,2.8,10.73,8.07a12.92,12.92,0,0,0-2.21-1.35c2.68,2.87,1.52,4.59,1,5.12,1-.21,2.49-1.49,2.15-2.72.32.38.65.79,1,1.22.67.89,1.27,1.76,1.79,2.61.82,2.42-.68,4.92-3.21,6a4.77,4.77,0,0,0,4.08-4.53,14.15,14.15,0,0,1,1.93,6.83,17.8,17.8,0,0,1-.18,2c-.65,1.23-1.69,1.69-3.54,1.91,1.68.11,2.57,0,3.31-.74C65,47.27,59.65,51.54,57.46,55.2c2.19-2.84,6.72-7.08,8.31-10.14a9.24,9.24,0,0,1-1.55,5.69c2-2,2.18-5,2-6.79a12.34,12.34,0,0,0,.89-4.32,18.49,18.49,0,0,0-.29-4c1.28,1.83,3.13,2.53,4,5.31-.17-3.59-2.84-3.64-4.85-8a30.38,30.38,0,0,0-3.14-5.41"/><path class="cls-2" d="M71.62,35.74c1.57.25,2.81.25,3.4-1.33-5.79-2.75-5.74-8.54-12.39-11.56,3.66-2.72,2.67-5.26,1-7.83-1.8,3.18-4.89,3.62-6.79,2.58,2.68-1,3.69-4.28,5.31-5.24-1-1.09-2.31-1.13-3.82-.1-.82-2.19-3.5-1.47-3.91-1.47a3.4,3.4,0,0,1,1.25,2.61c-.28,2.2-3.86,1.85-3.86,1.85.72-1.49.4-2.37-1.2-3.14-.49,1.19-4.33,2.78-4.58,5.11-.38,3.65,3.94,5.87,7.73,7.92,4.18,2.26,2.65,4.72,1.13,4.8C54,32.53,57.24,33,59.07,32c0,.34-.24,2.42-3,2.59a1.91,1.91,0,0,0,1.44,1.37,7,7,0,0,1-3,.47c.11,1.12,1.33,2,2.86,2.18a2.46,2.46,0,0,1-1.41,1.06c1.65,1.65,6.1.57,7-.38.41-.44.92.18.43.84s-2.75,1.43-4.56.87a1.54,1.54,0,0,0,.42,1.67,10.59,10.59,0,0,0-2.23.43c.17.76,1,1.2,1.33,1.5a3.13,3.13,0,0,0-.78,1.33c.81.4,3,1,4.21-.34.49-.54,1-.2.52.48-1.75,2.41-5.93,2.45-7.41,1.7,0,1.88.77,2.27,1.76,3.05-3,3.48-1,6.58-3.17,9.62,4,0,6.55-2.2,7.26-4.25a1.68,1.68,0,0,0,1.53,1.58,4.32,4.32,0,0,1,.55-2.33c.82.66,2.3.81,4.24.89-2.2-3.74,4-7.58,1.57-12.68-.37-.76.7-1.25.81-.47.58,4.37,3.15,5.36,5.31,4-.65-.72-.92-.7-1.33-1.35,1.45.39,2.2-.67,2.57-2-4-1.39-1.83-4.79-4.33-8M72,44.43a7.54,7.54,0,0,0,.83,2.25c-2.87-.18-1.54-6.25-4.42-4.78A1.58,1.58,0,0,0,67.69,44c1.88,3.89-2.41,7.33-2.17,10.74-1.06,0-2.16,0-2.85-1.46A18.83,18.83,0,0,0,61.45,56l-.86-1.47a6.45,6.45,0,0,1-5.84,4.87c1.44-2.31-.29-5.46,3.25-8.8a14.68,14.68,0,0,1-1.83-1.51c4.35.51,8.87-2.93,6.82-4.55-1.35-1.07-1.94,1.14-4,.77l.81-.7c-.28-.29-.62-.65-.95-.93A5.91,5.91,0,0,0,60.69,43l-.53-.87c5.09,0,5.21-3.9,3.15-4-1-.07-2.23,1.72-5.36,1.34a5.67,5.67,0,0,0,.75-1.74,6.83,6.83,0,0,1-2.36-.42c1.53-.2,1.92-.71,3.19-1.67l-1.47-.54c2.14-1.07,2-2.94,2.07-4.88-1.12.65-2.44,1.65-3.84,1.18-.34-.11-.55-.26-.56-.62,2-.79,3.29-3.88-1.52-6.48C51.15,22.6,43.64,19,48.73,15c.69-.53,1.45-1,2.09-1.61.8.62-.29,2.13-.57,2.69,0,0,1.69.17,2.1.17,2.62,0,5.36-1.56,4-4.53,1,.22,1.17,1.22,1.48,2.07.67-.45,1.83-1.42,2.73-1.28-.73,2.33-3.78,4.41-6.16,4.89,2.4,1.3,6.85,2.27,9.18-.53,1.64,3.17-.64,4.5-2.88,6.16,8.53,3.89,7.27,8.26,12.87,11.7-.72.34-4-.34-4.26-.39a19.34,19.34,0,0,1,2.15,3,14.55,14.55,0,0,1,.82,3.28,4.75,4.75,0,0,0,2.43,3.67c-.66,1.2-2.12.27-2.73.11"/><path class="cls-2" d="M31.31,54l1.21-1-.18-.38c-.13-.26-.06-.28.08-.38l.64-.48a.5.5,0,0,1,.49-.06l1.93.45h-2a.77.77,0,0,0-.77.56l-.15.29L32,54a1.21,1.21,0,0,0,.2,1.42l.37.44-.75,1.52h.63L33,56.35a3.35,3.35,0,0,0,1-1.46c-.22-.17-.38-.3-.26-.56l.24-.5c.07-.16.1-.23.32-.19l2,.44a.69.69,0,0,0,.89-.23c.28-.42.32-.37,1-.31l1,.11A5.43,5.43,0,0,0,42.52,53a12.73,12.73,0,0,0,.76,1.12c.06.13-.05.3-.14.53L42,57.41h1.78l1-2.53a1.47,1.47,0,0,1,.33-.53l-.58,3.06h1.74l.46-3c.1-.67,0-.89-.28-1.17-.73-.61-.71-1.89-1-2.67a.72.72,0,0,1,.44-.09c.38,0,.66,1,1.11,1.63.88,1.24,2.1,2.62,3.49.68a3.84,3.84,0,0,0-.45-.61l-.39-.46c-.22-.25-1.3-1.48-1.75-1.92a2.59,2.59,0,0,0-3.2-.37c-1.41-.74-2.9,0-3.25,0l-2.43-.15a.5.5,0,0,1-.4-.24l.45-.14a4.13,4.13,0,0,0-3.34-3.49s-.11-.56-.39-.66l-.56.65a1.74,1.74,0,0,0-.46.13L32,44.63l1.78,1.8s-.93,1.3-1.19,1.57a.48.48,0,0,0,0,.67l.34.45c.18.24.38.23.66.08L34,49c.17-.14.74.14,1-.08a7.11,7.11,0,0,0-.28,1.39l-1.59-.19a.81.81,0,0,0-.72.16l-1.36,1a1.18,1.18,0,0,0-.31,1.51Zm13.19.3L43.41,57h-.67l1.08-2.59c.11-.33-.1-.49-.37-.85a7.61,7.61,0,0,0,1.18.56.74.74,0,0,0-.13.21M34.07,48.51l-.31.17c-.22.12-.33.18-.51-.06l-.14-.17a.36.36,0,0,1,0-.43l1.33-1.55-1.22-1,1.55.58.57-.72c.17.15.11.56.11.56A3.17,3.17,0,0,1,38,49.08a1.53,1.53,0,0,0,.94.65l2.7.16c.44,0,1.56-.85,3,0a2.88,2.88,0,0,1,1.16-.43,3.47,3.47,0,0,1,2.89,1.67c.51.65,1.2,1.63,1.2,1.63-.29.36-.59.48-.84.39a1.27,1.27,0,0,1-.61-.91A2.9,2.9,0,0,0,47.56,51,5.56,5.56,0,0,1,48,52.37c-1.06-1-1.26-2.32-2-2.49a1.06,1.06,0,0,0-1.06.46c.37.86.35,1.87.73,2.53s.35.55.48.66c.31.22.14.62.09.92L45.83,57h-.67l.44-2.46c.13-.75-2-.75-3-2.17-.92,1.07-3.48.8-4.59.63a1,1,0,0,0-1.14.41c-.14.25-.38.17-.53.13l-2-.43a.48.48,0,0,0-.67.31l-.41.84a.39.39,0,0,0,.08.5l.19.2a1.58,1.58,0,0,1-.48.71l-.44-.49a.88.88,0,0,1-.06-1l.66-1.36a.53.53,0,0,1,.49-.32l2.51,0-.77-1.25c-.57-.94.38-2.61.23-3.4-.07,1.06-1.34.58-1.54.72m-2.73,3.15,1.19-.9a.75.75,0,0,1,.59-.23l1.68.22a2.65,2.65,0,0,0,.36.79l-1.78-.37a.62.62,0,0,0-.57.15L32,52a.42.42,0,0,0-.08.54l.14.29-.59.45-.23-.42c-.23-.46-.24-.87.13-1.16"/><path class="cls-2" d="M36.51,19.5a12.48,12.48,0,0,0,1.79.93v-.77l-2.53-1s0,.31.74.8"/><path class="cls-2" d="M38.3,18.58v-.76l-2.87-1a6.6,6.6,0,0,0,1.08.87,13.14,13.14,0,0,0,1.79.92"/><path class="cls-2" d="M38.3,16.85v-.77l-3.14-1.16s.61.5,1.35,1a12.48,12.48,0,0,0,1.79.93"/><path class="cls-2" d="M47.14,27.27h3.21a1.48,1.48,0,0,0-1.57-.94,1.79,1.79,0,0,0-1.64.94"/><path class="cls-2" d="M43.77,14.92l-3.14,1.16v.77a11.87,11.87,0,0,0,1.8-.93c.73-.5,1.34-1,1.34-1"/><path class="cls-2" d="M43.16,18.7l-2.53,1v.77a12.38,12.38,0,0,0,1.8-.93c.73-.49.73-.8.73-.8"/><path class="cls-2" d="M43.5,16.79l-2.87,1v.76a12.47,12.47,0,0,0,1.8-.92,6.75,6.75,0,0,0,1.07-.87"/><path class="cls-2" d="M30.15,26.33a1.48,1.48,0,0,0-1.57.94H31.8a1.82,1.82,0,0,0-1.65-.94"/><path class="cls-2" d="M45.86,12.87c0-1.81-3-3.43-6.39-3.43s-6.4,1.62-6.4,3.43l.08.44L34.48,21l-6.34,3.69a3.78,3.78,0,0,0-1.62,2.59h1.15A2.57,2.57,0,0,1,30.35,25c1.46.08,2.33,1,3.19,2.24l.22.33.32.51H24.76a10.08,10.08,0,0,1,1.34,4.41V51.89c0,5,3.83,7.36,8,7.36,3.2,0,3.64-.15,5.4,1.62,1.76-1.77,2.19-1.62,5.4-1.62,4.14,0,8-2.38,8-7.36V32.52a10,10,0,0,1,1.34-4.41H44.85l.33-.51.22-.33c.85-1.27,1.72-2.16,3.18-2.24a2.57,2.57,0,0,1,2.68,2.24h1.15a3.78,3.78,0,0,0-1.62-2.59L44.45,21l1.34-7.68Zm-11.49.88,4.73,1.61v7.39l-3.48-1.83Zm1.16,15.69a4.65,4.65,0,0,0,2.83,1.73,2.4,2.4,0,0,0,.82,1.34A2.37,2.37,0,0,0,41,35.39a1.9,1.9,0,0,0,1.27,1.43l-1,1.14a1.42,1.42,0,0,1-1.28.52L35.55,38c.19-.49-.31-1.06-1.71-.81l1.73-4.85-1.06-2.26-2,1.72-.15,5.09-.85-.42C30.39,36,30.06,38,31.13,38h.42a.46.46,0,0,0,.2.51.35.35,0,0,0,0,.6.41.41,0,0,0-.08.67.92.92,0,0,0,.51,1.39c.63.17,1-.52,1.17-.91l6.86,2.12a2.34,2.34,0,0,0,2.48-.58l1.79-1.57a1.85,1.85,0,0,0,.92,2.25,9.19,9.19,0,0,0-.07,1.34H27.43V32.52a9.09,9.09,0,0,0-.66-3.08Zm7.39,4.29A2.31,2.31,0,0,0,43,36l-.3.29c-1.29-.16-1.8-2.08-1.8-2.08a2.91,2.91,0,0,0,0,.51,1.79,1.79,0,0,1-1.19-1.86,2.92,2.92,0,0,0,.94.33l.09-.56a2,2,0,0,1-1.63-1.39l-.12,0a3.87,3.87,0,0,0,.48,0A5.42,5.42,0,0,0,41,31.07a2.49,2.49,0,0,0,1.7,1,2.78,2.78,0,0,0,.23,1.67m1.91,5.09a1.73,1.73,0,0,0-.3.59l-.72.66a3.46,3.46,0,0,0-1.21-2.8l.77-.75.15.15a1.76,1.76,0,0,0,1.31,2.15m-3.47-.34.59-.57a3.22,3.22,0,0,1,1.15,2.81l-.65.59a1.92,1.92,0,0,1-.41.31,3.53,3.53,0,0,0-.68-3.14m-1.27.5h0a1.36,1.36,0,0,0,.66-.09,3.22,3.22,0,0,1,.26,3,3.24,3.24,0,0,1-.89-.12l-.22-.07A3.91,3.91,0,0,0,40.09,39m-1.5-.19.84.11a4.1,4.1,0,0,1-.4,2.57l-1-.28a4.05,4.05,0,0,0,.53-2.4m-1.74-.21,1,.12a4,4,0,0,1-.47,2.3l-1-.3a3.28,3.28,0,0,0,.49-2.12m-4.09-.27a.46.46,0,0,1-.66-.48,1.61,1.61,0,0,1,1.61.05c.25.16.45.6.79.88a8.47,8.47,0,0,1-.31,1.3,1,1,0,0,1-.64-1.59.64.64,0,0,0-.79-.16m-.66,1.84a2.28,2.28,0,0,0,.64.15.37.37,0,0,1-.43.33.35.35,0,0,1-.21-.48m-.93-2.7a.27.27,0,0,1,.13-.5c.28,0,.66.33,1,.49a3.72,3.72,0,0,1-1.17,0m1,2c.2.2.81.12.81.12l0,.12c-.27.36-1,.2-.84-.24M33,39c-.44.18-.88-.06-.74-.34.2.18.77.09.77.09Zm.65-5.08-.84,3,.29-4.92,1.29-1.11L35,32.39l-1.66,4.78L33.77,34c0-.23-.14-.25-.17,0m.06,3.7a5.18,5.18,0,0,1,1.19.05c.2.08.07.41-.18.37a5.1,5.1,0,0,1-1-.42m1.46.74,1,.12a3.3,3.3,0,0,1-.43,2l-1-.29a6.25,6.25,0,0,0,.4-1.86M51.5,51.89A5.57,5.57,0,0,1,48.61,57l.65-1.32h-.63L47.8,57.4a8.22,8.22,0,0,1-2.93.51c-3.31,0-4.18.13-5.4,1.35-1.23-1.22-2.1-1.35-5.4-1.35a8.33,8.33,0,0,1-2.91-.5h0l.84-1.7h-.63l-.73,1.48c-.18-.08-.35-.17-.51-.26l.6-1.22h-.62l-.45.91a5.67,5.67,0,0,1-2.25-4.73V44.48H51.5Zm.68-22.45a8.66,8.66,0,0,0-.68,3.08v11.3H50.19a7.62,7.62,0,0,1-1.1-2.51,3.09,3.09,0,0,0,.4,2.51h-1.7A9.91,9.91,0,0,1,47,41.24c-.51.58-.18,2.14.13,2.58H46a5.55,5.55,0,0,1,.15-1.68C45.59,42,45,41.72,45,41.07a.9.9,0,0,0,.83.27l.48-.38c-1.59,0-1.66-1.69-.4-2.51-1.26,0-2.2-.7-1.74-2a1.84,1.84,0,0,1-.55-2.63,2.25,2.25,0,0,1-.25-2.24,2.49,2.49,0,0,1-1.74-.68l-.1,0a4.32,4.32,0,0,0,1.91-1.45ZM47.38,24c-1.3.22-2.42,1.82-3.34,3.26l-.11.16H43v.17c-.1,1.11-1.15,2.62-3.48,2.62A3.78,3.78,0,0,1,37,29.44a2.83,2.83,0,0,1-.94-1.33,2.42,2.42,0,0,1-.1-.51v-.17H35l-.11-.16c-.93-1.44-2-3-3.35-3.26L35.11,22l4.36,2.37L43.83,22Zm-4.07-3.09-3.48,1.83V15.36l4.73-1.61Zm-3.84-6.37-5.17-2c.44-1,2.47-1.93,5.17-1.93s4.72.89,5.16,1.93Z"/><path class="cls-2" d="M51,36.75v-.57c-1.73,0-2.13-2.09-2.13-2.09A2.09,2.09,0,0,0,51,36.75"/><path class="cls-2" d="M48.76,40.22l-.18-.54c-1.48.38-2.24-2-2.24-2a2,2,0,0,0,2.42,2.51"/><path class="cls-2" d="M49.79,38c-1.77.28-2.5-1.78-2.5-1.78A2,2,0,0,0,49,38.64a1.55,1.55,0,0,0,2.28,1.69l-.17-.5A1.15,1.15,0,0,1,49.79,38"/><path class="cls-2" d="M48.73,32.16V31.6c-2.33-.49-2.13-2.1-2.13-2.1a2.08,2.08,0,0,0,2.12,2.66"/><polygon class="cls-2" points="33.92 55.71 33.08 57.41 33.71 57.41 34.55 55.71 33.92 55.71"/><polygon class="cls-2" points="35.18 55.71 34.35 57.41 34.98 57.41 35.81 55.71 35.18 55.71"/><polygon class="cls-2" points="40.24 55.71 39.41 57.41 40.04 57.41 40.87 55.71 40.24 55.71"/><polygon class="cls-2" points="41.51 55.71 40.67 57.41 41.3 57.41 42.14 55.71 41.51 55.71"/><polygon class="cls-2" points="38.98 55.71 38.14 57.41 38.77 57.41 39.61 55.71 38.98 55.71"/><polygon class="cls-2" points="46.37 57.41 47 57.41 47.84 55.71 47.2 55.71 46.37 57.41"/><polygon class="cls-2" points="36.45 55.71 35.62 57.41 36.24 57.41 37.08 55.71 36.45 55.71"/><polygon class="cls-2" points="37.71 55.71 36.88 57.41 37.51 57.41 38.34 55.71 37.71 55.71"/><path class="cls-2" d="M34.85,46.59a.24.24,0,0,0-.22.26.22.22,0,1,0,.44,0,.24.24,0,0,0-.22-.26"/><path class="cls-2" d="M39.47,8.29a9.5,9.5,0,0,1,5.82,1.79,11.59,11.59,0,0,1,1.5-3.87l-2.09.23L43.61,4.12l-2.1,1.09-2-2-2,2-2.1-1.09-1.1,2.32-2.08-.23a11.59,11.59,0,0,1,1.5,3.87,9.45,9.45,0,0,1,5.82-1.79m-4.88-.92,1-2.11,1.84,1,2-2,2,2,1.84-1,1,2.11,1.22-.19A9.59,9.59,0,0,0,44.79,9,10.89,10.89,0,0,0,34.14,9a9,9,0,0,0-.77-1.83Z"/><path class="cls-2" d="M41.6,4.13a.55.55,0,0,0,.6-.5,3.53,3.53,0,0,0-.41-1.12s-.67.72-.69,1a.56.56,0,0,0,.5.6"/><path class="cls-2" d="M45,5.37a.54.54,0,0,0,.74-.23,3.28,3.28,0,0,0,0-1.18s-.88.4-1,.67a.55.55,0,0,0,.23.74"/><path class="cls-2" d="M37.33,4.13a.56.56,0,0,0,.51-.6c0-.3-.69-1-.69-1a3.53,3.53,0,0,0-.41,1.12.54.54,0,0,0,.59.5"/><path class="cls-2" d="M33.91,5.37a.55.55,0,0,0,.23-.74c-.14-.27-1-.67-1-.67a3.34,3.34,0,0,0,.06,1.18.54.54,0,0,0,.74.23"/><path class="cls-2" d="M75,24.19a2.94,2.94,0,0,0,1.57-1.59c-1.85-.27-6.79-2.34-10.84-.66,1.52-1.44,2.88-1.62,3-3.7A1.46,1.46,0,0,0,71,17.87c-.41-1.24-1.47-.23-1.62-.57s1.34.14,1.66-1.46c-1.19-.41-1.55.56-1.76.34s.76-.63,0-1.92c-1.24.73-.6,1.55-.86,1.64S68.41,15,67,15.07c-.14,1.48,1.29,1.52,1.06,1.76s-.66-.85-1.7-.27a1.53,1.53,0,0,0,2,1.56c-.16,2.27-2.24,1.85-3.79,4.4,3.28,1.69,4.77,4.62,6.79,6.65a11.54,11.54,0,0,0,1.81-2.58,2.64,2.64,0,0,0,3.72,0c-.75-.77-.78-1.36-1.93-2.41m-3.19.42a3.67,3.67,0,0,1-.39,3.57,15.09,15.09,0,0,0-4.25-5.42c-.3-.19.16-.53,1-.64,2.52-.48,5.48.59,6.89,1a3.63,3.63,0,0,1-1.86.79,11.24,11.24,0,0,1,2.3,2.39c-1,.25-1.55-.38-3.69-1.66"/><path class="cls-2" d="M50.72,62.44V59.68a25.57,25.57,0,0,1-8.37,2.09l-.16,1c.3,0,.67.08,1.18.11a32.84,32.84,0,0,1-3.9.26,33,33,0,0,1-3.9-.26c.51,0,.88-.07,1.18-.11l-.16-1a25.51,25.51,0,0,1-8.37-2.09v2.76l-2.9,1.2a35.41,35.41,0,0,0,7.48,2.77l-.33,1.16a26,26,0,0,0,14,0l-.34-1.16a35.3,35.3,0,0,0,7.49-2.77ZM26.87,63.7l2-.78V60.66a33.88,33.88,0,0,0,5.28,1.48L33,65.76a32.19,32.19,0,0,1-6.13-2.06m12.6,4.17a26.72,26.72,0,0,1-6.22-.78l1.18-3.79a26.49,26.49,0,0,0,5,.42,26.4,26.4,0,0,0,5-.42l1.18,3.79a26.72,26.72,0,0,1-6.22.78m6.47-2.11-1.11-3.62a33.88,33.88,0,0,0,5.28-1.48v2.26l2,.78a32,32,0,0,1-6.13,2.06"/><path class="cls-2" d="M5.75,26.59a11.54,11.54,0,0,0,1.81,2.58c2-2,3.51-5,6.79-6.65-1.56-2.55-3.64-2.12-3.79-4.4a1.53,1.53,0,0,0,2-1.56c-1-.58-1.42.56-1.7.27s1.2-.28,1.06-1.76c-1.38,0-1.12,1-1.45.83s.39-.92-.86-1.64c-.7,1.3.26,1.7.06,1.92s-.57-.75-1.76-.34c.32,1.6,1.86,1,1.65,1.46s-1.2-.66-1.61.57a1.45,1.45,0,0,0,2.28.37c.14,2.08,1.5,2.26,3,3.7-4.05-1.68-9,.38-10.85.66A3,3,0,0,0,4,24.19,24,24,0,0,0,2,26.6a2.64,2.64,0,0,0,3.72,0m-2.29-.32a11.24,11.24,0,0,1,2.3-2.39,3.63,3.63,0,0,1-1.86-.79c1.41-.38,4.37-1.45,6.9-1,.82.11,1.29.45,1,.64a15,15,0,0,0-4.25,5.42,3.67,3.67,0,0,1-.39-3.57C5,25.89,4.46,26.52,3.46,26.27"/><path class="cls-2" d="M37.69,25.05v1.22a1.53,1.53,0,0,1,1.24-.41v1.76a2.63,2.63,0,0,1-.34,1.24h1.76A2.58,2.58,0,0,1,40,27.62V25.86a1.51,1.51,0,0,1,1.23.41V25.05H37.69Z"/><path class="cls-3" d="M78,25.57a4.61,4.61,0,0,1-.52-.69l-.3-.46a4.42,4.42,0,0,0,.76-1.21l.79-1.79-1.93-.28c-.33-.05-.86-.19-1.47-.35a28.69,28.69,0,0,0-4.37-.88,3,3,0,0,0,1.39-1.31l.31-.57s-.08-.8-.39-1.05a3.51,3.51,0,0,0,.27-.83l.26-1.28-1.23-.42A4.12,4.12,0,0,0,71,14.3a4,4,0,0,0-.31-.74l-.73-1.34L68.58,13a3.27,3.27,0,0,0-.83.66,4.23,4.23,0,0,0-.63-.05,3.85,3.85,0,0,0-1.59.21l-1.07-1.1L63.2,11.36a3.9,3.9,0,0,0-4.41-1,4.22,4.22,0,0,0-3.11-1.13,10.27,10.27,0,0,0-1.22.09,7.39,7.39,0,0,0-3.24,1.49l-1.42-.67a5,5,0,0,1-2.57,2,3.53,3.53,0,0,0-.57-1.21l.09-.53A10.12,10.12,0,0,1,48,7L49.73,4.4l-2.39.27a5.25,5.25,0,0,0,0-.85l-.21-2-1.88.84-.54.27L44.3,2.1l-.86.45c-.09-.21-.2-.45-.35-.73L42.1,0,40.7,1.52a4.33,4.33,0,0,0-.37.44l-.86-.85L38.62,2c-.11-.13-.23-.28-.37-.43L36.84,0l-1,1.82a6.61,6.61,0,0,0-.35.73l-.86-.44-.37.78-.54-.27-1.88-.85-.21,2.06a5.18,5.18,0,0,0,0,.84L29.2,4.4,30.9,7a10,10,0,0,1,1.28,3.31l.09.52a3.67,3.67,0,0,0-.57,1.22,7.25,7.25,0,0,1-2.56-2l-1.44.69a7.33,7.33,0,0,0-4.45-1.59,4,4,0,0,0-3.1,1.13,3.88,3.88,0,0,0-4.4,1s-.78.84-1.27,1.35a6.5,6.5,0,0,1-1.21.93,5.32,5.32,0,0,0-2.08,0,3.78,3.78,0,0,0-.84-.66L9,12.22l-.73,1.35A4,4,0,0,0,8,14.3a4,4,0,0,0-.57.15l-1.23.42.26,1.28a3.51,3.51,0,0,0,.27.83,2.77,2.77,0,0,0-.18.43L6.32,18l.32.57A2.91,2.91,0,0,0,8,19.91a28.59,28.59,0,0,0-4.38.88c-.61.16-1.13.3-1.46.35l-1.94.28.44,1,.35.79a4.71,4.71,0,0,0,.77,1.21A11,11,0,0,1,1,25.57l-1,1,.94,1a4.1,4.1,0,0,0,2.88,1.24,4.2,4.2,0,0,0,1.39-.25A7.14,7.14,0,0,0,6.7,30.39a10,10,0,0,1-3.41,2.69l-1.23.59.53,1.4A3.43,3.43,0,0,0,4.9,37.21a14.74,14.74,0,0,0-.53,2.31c-.28,1.67-.4,2.35-1.86,2.87l-1.32.46.38,1.34a5,5,0,0,0,1.25,2.29l-.87,1a9.65,9.65,0,0,0,4.11,1.75,3.35,3.35,0,0,0,2.54-.88,18.91,18.91,0,0,0,1.25,3.1c.92,1.93,1.41,3.08.79,4.12L9.25,57.89,12,57.77a16.56,16.56,0,0,0,3.25-.36v.15l-.23,2,2.39-.51a3.2,3.2,0,0,0,.71-.29,9.52,9.52,0,0,0,7.39,3.09h.2l-3.9,1.6L24.64,65A34.69,34.69,0,0,0,31,67.44l-.33,1.13,1.42.42a27.24,27.24,0,0,0,14.84,0l1.42-.42L48,67.44A34.8,34.8,0,0,0,54.31,65l2.84-1.48-3.91-1.6h.2a9.52,9.52,0,0,0,7.39-3.09,3.12,3.12,0,0,0,.7.29l2.39.51-.22-2v-.15a17.4,17.4,0,0,0,3.25.35l2.73.12L68.3,55.53c-.62-1-.13-2.19.79-4.12a18.91,18.91,0,0,0,1.25-3.1,4.14,4.14,0,0,0,1.66.76,3.44,3.44,0,0,0,.85.15,4.11,4.11,0,0,0,2.64-.83l1.51-1-.88-1a5,5,0,0,0,1.25-2.29l.38-1.34-1.32-.46c-1.46-.52-1.58-1.2-1.86-2.87A14.74,14.74,0,0,0,74,37.21a3.43,3.43,0,0,0,2.31-2.14l.53-1.4-1.23-.59a10,10,0,0,1-3.42-2.69,7.12,7.12,0,0,0,1.5-1.79,4.48,4.48,0,0,0,1.39.25h0A4.06,4.06,0,0,0,78,27.61l.94-1Z"/><path class="cls-4" d="M27.44,43.82V32.53a8.89,8.89,0,0,0-.67-3.07h8.77a5.12,5.12,0,0,0,7.86,0h8.77a8.67,8.67,0,0,0-.67,3.07V43.82Zm12,15.44c-1.22-1.22-2.1-1.35-5.4-1.35-3.95,0-6.63-2.32-6.63-6v-7.4H51.5v7.4c0,3.7-2.67,6-6.63,6-3.31,0-4.18.13-5.4,1.35"/><path class="cls-3" d="M28.83,60.66v2.26l-2,.78A32.19,32.19,0,0,0,33,65.76l1.11-3.62a33.88,33.88,0,0,1-5.28-1.48"/><path class="cls-3" d="M39.47,63.72a26.49,26.49,0,0,1-5-.42l-1.17,3.79a25.15,25.15,0,0,0,12.43,0L44.51,63.3a26.4,26.4,0,0,1-5,.42"/><path class="cls-3" d="M50.11,60.66a33.88,33.88,0,0,1-5.28,1.48l1.11,3.62a31.83,31.83,0,0,0,6.12-2.06l-2-.78Z"/><path class="cls-3" d="M24.73,24.27C27.8,22.61,35.29,19,30.21,15c-.69-.53-1.45-1-2.09-1.61-.8.61.3,2.13.57,2.68,0,0-1.69.17-2.1.17-2.61,0-5.35-1.55-4-4.52-1,.21-1.16,1.21-1.48,2.07-.67-.45-1.83-1.42-2.72-1.28.73,2.32,3.78,4.41,6.15,4.88-2.4,1.31-6.84,2.28-9.18-.53-1.64,3.17.65,4.5,2.89,6.16C9.75,27,11,31.32,5.41,34.76c.73.34,4-.34,4.25-.39a19.78,19.78,0,0,0-2.14,3,15,15,0,0,0-.83,3.28,4.71,4.71,0,0,1-2.42,3.67c.66,1.19,2.12.26,2.73.1a7.58,7.58,0,0,1-.84,2.26C9,46.5,7.71,40.44,10.58,41.9A1.57,1.57,0,0,1,11.26,44c-1.88,3.9,2.41,7.33,2.17,10.75,1.06,0,2.15,0,2.84-1.47A19.33,19.33,0,0,1,17.5,56l.86-1.46A6.41,6.41,0,0,0,24.2,59.4c-1.46-2.31.29-5.45-3.25-8.8a13,13,0,0,0,1.82-1.51c-4.34.51-8.87-2.92-6.81-4.55,1.34-1.06,1.93,1.15,4,.77l-.81-.7c.28-.28.61-.65.94-.92A5.8,5.8,0,0,1,18.26,43l.52-.87c-5.08,0-5.21-3.9-3.14-4,1-.07,2.22,1.71,5.35,1.34a5.62,5.62,0,0,1-.75-1.75,6.78,6.78,0,0,0,2.36-.41c-1.53-.2-1.92-.71-3.19-1.67l1.48-.54c-2.14-1.07-2-2.94-2.08-4.88,1.12.65,2.44,1.65,3.85,1.18.33-.11.55-.27.56-.61-2-.8-3.3-3.89,1.51-6.49m-3.66.3c-2.69,2.88-1.53,4.59-1,5.12-1-.21-2.49-1.49-2.15-2.72-.32.38-.64.79-1,1.22-.66.89-1.26,1.76-1.79,2.61-.81,2.42.68,4.92,3.22,6A4.77,4.77,0,0,1,14.3,32.3a14.26,14.26,0,0,0-1.94,6.83,18.15,18.15,0,0,0,.19,2c.65,1.23,1.69,1.68,3.54,1.91-1.69.1-2.58,0-3.31-.74,1.15,4.93,6.52,9.21,8.7,12.87-2.18-2.85-6.72-7.08-8.3-10.15a9.15,9.15,0,0,0,1.55,5.69c-2-2-2.19-5-2.06-6.79a12.24,12.24,0,0,1-.88-4.31,17.86,17.86,0,0,1,.29-3.95C10.8,37.53,9,38.23,8,41c.17-3.58,2.85-3.63,4.84-8A30.63,30.63,0,0,1,16,27.63a8.7,8.7,0,0,0-4.6,2.89c1.3-3.07,8.81-6.53,12.26-9.88-1,.22-5.26.33-7-.84,3.18.86,10.24-.12,12.91-1.95-1.85,2.65-5.85,2.8-10.73,8.07a12.54,12.54,0,0,1,2.21-1.35"/><path class="cls-3" d="M72.24,40.66a14,14,0,0,0-.82-3.28,18.65,18.65,0,0,0-2.15-3c.29.05,3.54.73,4.26.39-5.6-3.44-4.34-7.8-12.87-11.7,2.24-1.66,4.53-3,2.89-6.16-2.34,2.81-6.78,1.84-9.18.53,2.37-.47,5.42-2.56,6.15-4.88-.9-.14-2.05.83-2.72,1.28-.32-.86-.44-1.86-1.48-2.08,1.39,3-1.36,4.52-4,4.53-.4,0-2.09-.17-2.09-.17.27-.55,1.36-2.07.57-2.68-.64.6-1.4,1.08-2.09,1.61-5.09,3.93,2.41,7.58,5.48,9.23,4.8,2.6,3.52,5.69,1.51,6.49,0,.34.23.5.56.61,1.4.47,2.73-.53,3.84-1.18-.06,1.94.07,3.81-2.07,4.88l1.47.54c-1.27,1-1.65,1.47-3.18,1.67a6.82,6.82,0,0,0,2.36.41A5.86,5.86,0,0,1,58,39.44c3.13.37,4.39-1.41,5.35-1.34,2.06.15,1.94,4-3.15,4l.53.87a5.79,5.79,0,0,1-1.85.67,11.92,11.92,0,0,1,1,.92l-.81.7c2.07.38,2.67-1.83,4-.77,2.06,1.63-2.47,5.06-6.82,4.55A13.71,13.71,0,0,0,58,50.6c-3.54,3.35-1.8,6.49-3.25,8.8a6.41,6.41,0,0,0,5.84-4.86L61.44,56a19.33,19.33,0,0,1,1.23-2.68c.68,1.43,1.78,1.46,2.84,1.47-.24-3.42,4-6.85,2.17-10.75a1.58,1.58,0,0,1,.67-2.14c2.88-1.46,1.55,4.6,4.43,4.79a7.3,7.3,0,0,1-.84-2.26c.61.16,2.07,1.1,2.73-.1a4.75,4.75,0,0,1-2.43-3.67m-5.38-5a17.86,17.86,0,0,1,.29,3.95A12.46,12.46,0,0,1,66.27,44c.13,1.77,0,4.8-2.06,6.79a9.16,9.16,0,0,0,1.55-5.69c-1.59,3.07-6.12,7.3-8.31,10.15,2.19-3.66,7.56-7.94,8.71-12.87-.74.77-1.62.84-3.31.74,1.85-.23,2.89-.68,3.54-1.91a18.15,18.15,0,0,0,.19-2,14.15,14.15,0,0,0-1.94-6.83,4.76,4.76,0,0,1-4.08,4.53c2.53-1.11,4-3.61,3.22-6-.53-.85-1.12-1.72-1.79-2.61-.34-.43-.66-.84-1-1.22.33,1.23-1.16,2.51-2.16,2.72.55-.53,1.71-2.24-1-5.12a12.19,12.19,0,0,1,2.21,1.35c-4.88-5.27-8.88-5.42-10.73-8.07,2.67,1.83,9.74,2.81,12.91,1.95-1.75,1.17-6,1.06-7,.84,3.44,3.35,11,6.81,12.26,9.88a8.7,8.7,0,0,0-4.6-2.89A30,30,0,0,1,66.05,33c2,4.34,4.68,4.39,4.86,8-.92-2.77-2.77-3.47-4-5.3"/><path class="cls-3" d="M43.4,29.46a4.84,4.84,0,0,1-3.93,1.84,5.83,5.83,0,0,1-1.12-.11,2.41,2.41,0,0,0,.82,1.33A2.39,2.39,0,0,0,41,35.4a1.88,1.88,0,0,0,1.27,1.42l-1,1.15a1.48,1.48,0,0,1-1.28.52L35.56,38c.19-.49-.32-1.06-1.72-.81l1.73-4.86-1.06-2.25-2,1.72-.15,5.08-.86-.42C30.39,36,30.06,38,31.12,38h.43a.48.48,0,0,0,.2.51.34.34,0,0,0,0,.59.42.42,0,0,0-.08.68.91.91,0,0,0,.51,1.38c.64.17,1-.51,1.17-.91l6.86,2.13a2.33,2.33,0,0,0,2.47-.59l1.8-1.56a1.85,1.85,0,0,0,.92,2.25,7.7,7.7,0,0,0-.08,1.33H51.5V32.53a8.72,8.72,0,0,1,.67-3.07H43.4Z"/><path class="cls-3" d="M33.12,48.46l.13.17c.19.23.29.18.51,0l.31-.16c.2-.15,1.47.34,1.55-.72.14.79-.81,2.46-.24,3.39l.77,1.26-2.51,0a.54.54,0,0,0-.49.32l-.66,1.36a.92.92,0,0,0,.06,1l.44.5a1.65,1.65,0,0,0,.48-.72l-.19-.2a.37.37,0,0,1-.07-.49l.4-.84a.49.49,0,0,1,.67-.32l2,.44c.15,0,.39.11.54-.14A1,1,0,0,1,38,53c1.11.16,3.67.43,4.59-.64,1.07,1.43,3.18,1.43,3,2.17L45.15,57h.67l.41-2.51c0-.29.22-.69-.09-.92-.13-.1-.19-.15-.48-.65-.38-.67-.36-1.67-.73-2.53a1.1,1.1,0,0,1,1-.48c.74.19.94,1.46,2,2.5A5.56,5.56,0,0,0,47.56,51a2.9,2.9,0,0,1,.91,1.23,1.26,1.26,0,0,0,.62.91c.25.09.54,0,.84-.38,0,0-.69-1-1.2-1.63a3.46,3.46,0,0,0-2.9-1.67,2.75,2.75,0,0,0-1.15.43c-1.44-.81-2.55,0-3,0L39,49.73a1.5,1.5,0,0,1-.94-.64A3.17,3.17,0,0,0,35.5,45.9s.06-.42-.1-.56l-.57.71-1.56-.57,1.22,1L33.16,48a.35.35,0,0,0,0,.43"/><path class="cls-3" d="M31.35,51.67c-.38.29-.36.7-.14,1.15l.23.42.59-.45-.13-.29A.41.41,0,0,1,32,52l.84-.63a.58.58,0,0,1,.57-.16l1.78.38a2.78,2.78,0,0,1-.36-.8l-1.68-.22a.75.75,0,0,0-.59.23Z"/><path class="cls-3" d="M42.74,57h.67l1.08-2.67a1.53,1.53,0,0,1,.14-.21,7.16,7.16,0,0,1-1.18-.56c.27.37.48.52.37.86Z"/><path class="cls-3" d="M43.31,20.94l1.25-7.18-4.73,1.61v7.4ZM40.63,16.1l3.14-1.16s-.61.5-1.34,1a13,13,0,0,1-1.8.92Zm0,1.73,2.87-1a7.15,7.15,0,0,1-1.07.86,11.91,11.91,0,0,1-1.8.92Zm0,1.85,2.53-1s0,.31-.73.8a12.38,12.38,0,0,1-1.8.93Z"/><path class="cls-3" d="M34.9,27.28l.11.17h1v.16a2.11,2.11,0,0,0,.1.5A2.88,2.88,0,0,0,37,29.46a3.78,3.78,0,0,0,2.44.77c2.33,0,3.38-1.5,3.48-2.62v-.16h1l.11-.17c.92-1.44,2-3,3.34-3.26L43.83,22l-4.36,2.37L35.11,22,31.56,24c1.3.23,2.42,1.82,3.34,3.26"/><path class="cls-3" d="M39.1,22.77v-7.4l-4.72-1.61,1.24,7.18Zm-.8-2.33a13.14,13.14,0,0,1-1.79-.92c-.73-.5-.73-.81-.73-.81l2.52,1Zm0-4.34v.76a13.14,13.14,0,0,1-1.79-.92c-.73-.5-1.35-1-1.35-1Zm0,1.73v.76a12,12,0,0,1-1.79-.92,7.15,7.15,0,0,1-1.07-.86Z"/><path class="cls-3" d="M39.47,10.6c-2.7,0-4.73.88-5.16,1.92l5.16,2,5.16-2c-.44-1-2.46-1.92-5.16-1.92"/><path class="cls-3" d="M39.47,7.64A11.1,11.1,0,0,1,44.79,9a9.76,9.76,0,0,1,.77-1.82l-1.22.19-1-2.12-1.84,1-2-2-2,2-1.84-1-1,2.12L33.37,7.2A9.77,9.77,0,0,1,34.15,9a11.07,11.07,0,0,1,5.32-1.38"/><path class="cls-3" d="M73.17,23.89A3.6,3.6,0,0,0,75,23.1c-1.41-.38-4.37-1.44-6.89-1-.84.11-1.3.45-1,.64a15,15,0,0,1,4.25,5.42,3.71,3.71,0,0,0,.4-3.57c2.13,1.29,2.69,1.91,3.68,1.67a11.26,11.26,0,0,0-2.3-2.4"/><path class="cls-3" d="M7.55,28.19a15,15,0,0,1,4.25-5.42c.3-.19-.17-.53-1-.64-2.53-.47-5.49.59-6.9,1a3.63,3.63,0,0,0,1.86.79,11.26,11.26,0,0,0-2.3,2.4c1,.24,1.55-.38,3.68-1.67a3.71,3.71,0,0,0,.4,3.57"/><path class="cls-5" d="M22.34,50.78c1-.78,1.79-1.17,1.75-3.06-1.47.76-5.65.72-7.4-1.69-.5-.68,0-1,.51-.49,1.19,1.36,3.41.74,4.22.35a3.19,3.19,0,0,0-.79-1.33c.3-.3,1.16-.74,1.33-1.5a10.59,10.59,0,0,0-2.23-.43A1.53,1.53,0,0,0,20.16,41c-1.81.55-4.05-.2-4.56-.87s0-1.28.43-.84c.9.94,5.35,2,7,.38a2.45,2.45,0,0,1-1.42-1.06c1.54-.15,2.76-1.06,2.86-2.19a6.87,6.87,0,0,1-3-.47,1.88,1.88,0,0,0,1.44-1.36c-2.81-.17-3-2.25-3-2.59,1.82,1,5,.58,4.2-2-1.51-.08-3-2.54,1.13-4.8,3.8-2,8.11-4.27,7.73-7.91-.25-2.34-4.09-3.93-4.58-5.11-1.6.76-1.92,1.65-1.2,3.13,0,0-3.57.36-3.85-1.84a3.32,3.32,0,0,1,1.24-2.61c-.4,0-3.09-.72-3.91,1.47-1.5-1-2.79-1-3.81.09,1.62,1,2.63,4.27,5.31,5.24-1.91,1-5,.61-6.8-2.57-1.7,2.56-2.68,5.11,1,7.82-6.65,3-6.6,8.81-12.38,11.56C4.52,36,5.75,36,7.33,35.75,4.83,39,7,42.4,3,43.79c.37,1.33,1.12,2.38,2.58,2-.42.64-.69.63-1.34,1.34,2.16,1.36,4.73.38,5.31-4,.1-.78,1.18-.29.81.48-2.47,5.1,3.77,8.94,1.56,12.68,1.95-.08,3.43-.24,4.24-.89a4.11,4.11,0,0,1,.55,2.33,1.7,1.7,0,0,0,1.54-1.59c.71,2.06,3.22,4.25,7.25,4.25-2.14-3-.14-6.13-3.16-9.61m-4,3.76L17.5,56a19.33,19.33,0,0,0-1.23-2.68c-.69,1.43-1.78,1.46-2.84,1.47.24-3.42-4-6.85-2.17-10.75a1.57,1.57,0,0,0-.68-2.14C7.71,40.44,9,46.5,6.16,46.69A7.58,7.58,0,0,0,7,44.43c-.61.16-2.07,1.1-2.73-.1A4.75,4.75,0,0,0,6.7,40.66a14.55,14.55,0,0,1,.82-3.28,19.78,19.78,0,0,1,2.14-3c-.29.05-3.52.73-4.25.39C11,31.32,9.75,27,18.28,23.06c-2.24-1.66-4.53-3-2.89-6.16,2.34,2.81,6.78,1.84,9.18.53-2.37-.47-5.42-2.56-6.15-4.88.89-.14,2,.83,2.72,1.28.32-.86.44-1.86,1.48-2.07-1.38,3,1.36,4.51,4,4.52.41,0,2.1-.17,2.1-.17-.27-.55-1.37-2.07-.57-2.68.64.6,1.4,1.08,2.09,1.61,5.08,3.93-2.41,7.58-5.48,9.23-4.81,2.6-3.52,5.69-1.51,6.49,0,.34-.23.5-.56.61-1.41.47-2.73-.54-3.85-1.18.07,1.94-.06,3.81,2.08,4.88l-1.48.53c1.27,1,1.66,1.48,3.19,1.68a6.78,6.78,0,0,1-2.36.41A5.62,5.62,0,0,0,21,39.44c-3.13.37-4.38-1.41-5.35-1.34-2.07.15-1.94,4,3.14,4l-.52.87a5.8,5.8,0,0,0,1.84.67c-.33.27-.66.64-.94.92l.81.7c-2.08.38-2.67-1.83-4-.77-2.06,1.63,2.47,5.06,6.81,4.55A13,13,0,0,1,21,50.6c3.54,3.35,1.79,6.49,3.25,8.8a6.42,6.42,0,0,1-5.84-4.86"/><path class="cls-5" d="M12.78,42.34c.73.77,1.62.84,3.31.74-1.85-.23-2.89-.68-3.54-1.91a18.15,18.15,0,0,1-.19-2A14.26,14.26,0,0,1,14.3,32.3a4.76,4.76,0,0,0,4.08,4.53c-2.54-1.11-4-3.61-3.22-6,.53-.85,1.13-1.72,1.79-2.61.34-.43.66-.84,1-1.22-.34,1.23,1.15,2.51,2.15,2.72-.54-.53-1.7-2.24,1-5.12a12.83,12.83,0,0,0-2.2,1.35c4.87-5.27,8.88-5.42,10.73-8.07-2.67,1.83-9.73,2.81-12.91,1.95,1.75,1.17,6,1.06,7,.84-3.45,3.35-11,6.81-12.26,9.88A8.7,8.7,0,0,1,16,27.63,30.63,30.63,0,0,0,12.88,33c-2,4.34-4.67,4.39-4.84,8,.91-2.77,2.76-3.47,4-5.3a17.86,17.86,0,0,0-.29,3.95A12.24,12.24,0,0,0,12.67,44c-.13,1.77,0,4.8,2.06,6.79a9.15,9.15,0,0,1-1.55-5.69c1.58,3.07,6.12,7.3,8.3,10.15-2.18-3.66-7.55-7.94-8.7-12.87"/><path class="cls-5" d="M62.91,27.63a8.7,8.7,0,0,1,4.6,2.89c-1.3-3.07-8.82-6.53-12.26-9.88,1,.22,5.26.33,7-.84-3.17.86-10.24-.12-12.91-1.95,1.85,2.65,5.85,2.8,10.73,8.07a12.19,12.19,0,0,0-2.21-1.35c2.69,2.88,1.53,4.59,1,5.12,1-.21,2.49-1.49,2.16-2.72.32.38.64.79,1,1.22.67.89,1.26,1.76,1.79,2.61.81,2.42-.69,4.92-3.22,6a4.76,4.76,0,0,0,4.08-4.53,14.15,14.15,0,0,1,1.94,6.83,18.15,18.15,0,0,1-.19,2c-.65,1.23-1.69,1.68-3.54,1.91,1.69.1,2.57,0,3.31-.74-1.15,4.93-6.51,9.21-8.71,12.87,2.2-2.85,6.72-7.08,8.31-10.15a9.08,9.08,0,0,1-1.55,5.69c2-2,2.19-5,2.06-6.79a12.46,12.46,0,0,0,.88-4.31,17.86,17.86,0,0,0-.29-3.95c1.28,1.83,3.13,2.53,4,5.3-.18-3.58-2.85-3.63-4.86-8a30,30,0,0,0-3.14-5.4"/><path class="cls-5" d="M71.61,35.75c1.57.25,2.81.25,3.4-1.33-5.79-2.75-5.74-8.53-12.38-11.56,3.65-2.71,2.66-5.26,1-7.82-1.8,3.18-4.9,3.61-6.79,2.57,2.67-1,3.68-4.27,5.3-5.24-1-1.08-2.31-1.12-3.82-.09-.81-2.19-3.5-1.47-3.9-1.47a3.35,3.35,0,0,1,1.24,2.61c-.28,2.2-3.85,1.84-3.85,1.84.72-1.48.4-2.37-1.21-3.13-.49,1.18-4.32,2.77-4.57,5.11-.39,3.64,3.93,5.86,7.73,7.91,4.17,2.26,2.64,4.72,1.13,4.8-.84,2.59,2.37,3.06,4.2,2,0,.34-.24,2.42-3,2.59a1.89,1.89,0,0,0,1.43,1.36,6.8,6.8,0,0,1-3,.47c.1,1.13,1.33,2,2.86,2.19a2.48,2.48,0,0,1-1.42,1.06c1.66,1.65,6.11.56,7-.38.42-.44.93.18.43.83s-2.75,1.43-4.56.88a1.53,1.53,0,0,0,.43,1.67,10.48,10.48,0,0,0-2.23.43c.17.76,1,1.2,1.33,1.5a3.19,3.19,0,0,0-.79,1.33c.81.39,3,1,4.22-.35.48-.54,1-.19.51.49-1.74,2.41-5.93,2.44-7.4,1.69,0,1.89.77,2.28,1.75,3.06-3,3.48-1,6.57-3.16,9.61,4,0,6.54-2.2,7.25-4.25a1.71,1.71,0,0,0,1.54,1.59,4.18,4.18,0,0,1,.54-2.33c.82.65,2.3.81,4.25.89-2.21-3.74,4-7.58,1.56-12.68-.37-.77.71-1.25.81-.48.58,4.38,3.15,5.36,5.31,4-.65-.71-.92-.7-1.33-1.34,1.45.38,2.2-.67,2.57-2-4-1.39-1.83-4.79-4.33-8m.33,8.68a7.3,7.3,0,0,0,.84,2.26c-2.88-.19-1.55-6.25-4.43-4.79A1.58,1.58,0,0,0,67.68,44c1.88,3.9-2.41,7.33-2.17,10.75-1.06,0-2.16,0-2.84-1.47A19.33,19.33,0,0,0,61.44,56l-.86-1.46a6.41,6.41,0,0,1-5.84,4.86c1.45-2.31-.29-5.45,3.25-8.8a13.71,13.71,0,0,1-1.83-1.51c4.35.51,8.88-2.92,6.82-4.55-1.34-1.06-1.94,1.15-4,.77l.81-.7a11.92,11.92,0,0,0-1-.92A5.79,5.79,0,0,0,60.68,43l-.53-.87c5.09,0,5.21-3.9,3.15-4-1-.07-2.22,1.71-5.35,1.34a5.86,5.86,0,0,0,.75-1.75,6.82,6.82,0,0,1-2.36-.41c1.53-.2,1.91-.71,3.18-1.67l-1.47-.54c2.14-1.07,2-2.94,2.08-4.88-1.12.65-2.45,1.65-3.85,1.18-.33-.11-.55-.27-.56-.61,2-.8,3.3-3.89-1.51-6.49C51.14,22.62,43.64,19,48.73,15c.69-.53,1.45-1,2.09-1.61.79.61-.3,2.13-.57,2.68,0,0,1.69.17,2.09.17,2.62,0,5.37-1.55,4-4.53,1,.22,1.16,1.22,1.48,2.08.67-.45,1.82-1.42,2.72-1.28-.73,2.32-3.78,4.41-6.15,4.88,2.4,1.31,6.84,2.28,9.18-.53,1.64,3.18-.65,4.5-2.89,6.16,8.53,3.89,7.27,8.26,12.87,11.7-.72.34-4-.34-4.26-.39a18.65,18.65,0,0,1,2.15,3,14,14,0,0,1,.82,3.28,4.75,4.75,0,0,0,2.43,3.67c-.66,1.2-2.12.26-2.73.1"/><path class="cls-5" d="M31.31,54l1.22-1-.19-.37c-.13-.27-.06-.28.08-.39l.64-.48a.53.53,0,0,1,.49-.06l1.93.45h-2a.79.79,0,0,0-.77.56l-.14.29L32,54a1.22,1.22,0,0,0,.2,1.42l.37.44-.75,1.52h.63l.52-1a3.49,3.49,0,0,0,1-1.46c-.22-.18-.38-.31-.26-.56l.24-.5c.07-.17.1-.24.33-.19l2,.43a.7.7,0,0,0,.89-.22c.28-.43.32-.38,1-.32l1,.11A5.44,5.44,0,0,0,42.52,53a12.48,12.48,0,0,0,.76,1.11c.06.13-.05.31-.14.53L42,57.41h1.78l1-2.53a1.73,1.73,0,0,1,.34-.53l-.58,3.06h1.74l.46-3c.1-.67,0-.89-.29-1.16-.72-.61-.7-1.9-.94-2.67a.72.72,0,0,1,.44-.09c.38,0,.66,1,1.11,1.62.88,1.25,2.1,2.63,3.49.69a4.68,4.68,0,0,0-.45-.62l-.39-.45c-.22-.25-1.3-1.48-1.75-1.93a2.6,2.6,0,0,0-3.2-.37c-1.41-.74-2.9,0-3.25,0l-2.43-.15a.46.46,0,0,1-.4-.23l.45-.15a4.11,4.11,0,0,0-3.34-3.48s-.11-.56-.39-.67l-.56.66a1.86,1.86,0,0,0-.46.13L32,44.64l1.78,1.79S32.87,47.74,32.6,48a.48.48,0,0,0,0,.67l.34.45c.18.23.38.22.66.08L34,49c.17-.15.74.13,1-.09a6.36,6.36,0,0,0-.27,1.39l-1.6-.19a.81.81,0,0,0-.72.17l-1.36,1.05a1.18,1.18,0,0,0-.31,1.5Zm13.18.3L43.41,57h-.67l1.08-2.58c.11-.34-.1-.49-.37-.86a6.8,6.8,0,0,0,1.18.56,1.53,1.53,0,0,0-.14.21M34.07,48.52l-.31.16c-.22.13-.32.18-.51,0l-.13-.17a.35.35,0,0,1,0-.43l1.33-1.55-1.22-1,1.56.57.57-.71c.16.14.1.55.1.55A3.18,3.18,0,0,1,38,49.09a1.5,1.5,0,0,0,.94.64l2.7.17c.45,0,1.56-.86,3,0a3.07,3.07,0,0,1,1.15-.44,3.52,3.52,0,0,1,2.9,1.68c.51.64,1.2,1.63,1.2,1.63-.3.35-.59.47-.84.38a1.26,1.26,0,0,1-.62-.91A2.9,2.9,0,0,0,47.56,51,5.68,5.68,0,0,1,48,52.37c-1.06-1-1.26-2.31-2-2.49a1.1,1.1,0,0,0-1.06.47c.38.86.36,1.86.74,2.53.29.5.35.54.48.65.31.23.13.63.09.92L45.83,57h-.68l.45-2.46c.13-.74-2-.74-3-2.17-.92,1.07-3.48.8-4.59.64a1,1,0,0,0-1.13.4c-.15.25-.39.17-.54.14l-2-.44a.49.49,0,0,0-.67.32l-.4.83a.38.38,0,0,0,.07.5l.19.21a1.66,1.66,0,0,1-.48.71l-.44-.5a.91.91,0,0,1-.06-1l.66-1.37a.54.54,0,0,1,.49-.32l2.51,0-.77-1.25c-.57-.93.38-2.6.24-3.39-.07,1.06-1.35.57-1.55.72m-2.72,3.15,1.18-.91c.22-.16.35-.26.59-.23l1.68.22a2.78,2.78,0,0,0,.36.8l-1.78-.38a.62.62,0,0,0-.57.15L32,52a.42.42,0,0,0-.08.54l.14.3-.59.44-.23-.42c-.22-.45-.24-.86.14-1.15"/><path class="cls-5" d="M36.51,19.52a13.14,13.14,0,0,0,1.79.92v-.76l-2.52-1s0,.31.73.81"/><path class="cls-5" d="M38.3,18.59v-.76l-2.86-1a7.15,7.15,0,0,0,1.07.86,12,12,0,0,0,1.79.92"/><path class="cls-5" d="M38.3,16.86V16.1l-3.14-1.16s.62.5,1.35,1a13.14,13.14,0,0,0,1.79.92"/><path class="cls-5" d="M47.14,27.28h3.21a1.48,1.48,0,0,0-1.57-.94,1.81,1.81,0,0,0-1.64.94"/><path class="cls-5" d="M43.77,14.94,40.63,16.1v.76a13,13,0,0,0,1.8-.92c.73-.5,1.34-1,1.34-1"/><path class="cls-5" d="M43.16,18.71l-2.53,1v.76a13,13,0,0,0,1.8-.92c.73-.5.73-.81.73-.81"/><path class="cls-5" d="M43.5,16.81l-2.87,1v.76a11.44,11.44,0,0,0,1.8-.92,7.15,7.15,0,0,0,1.07-.86"/><path class="cls-5" d="M30.15,26.34a1.49,1.49,0,0,0-1.57.94H31.8a1.84,1.84,0,0,0-1.65-.94"/><path class="cls-5" d="M45.85,12.88c0-1.81-3-3.42-6.38-3.42s-6.39,1.61-6.39,3.42l.07.45L34.48,21,28.15,24.7a3.75,3.75,0,0,0-1.63,2.58h1.16A2.57,2.57,0,0,1,30.35,25c1.46.08,2.33,1,3.19,2.24l.22.33.32.5H24.77a10.15,10.15,0,0,1,1.33,4.42V51.89c0,5,3.83,7.36,8,7.36,3.2,0,3.64-.15,5.4,1.62,1.76-1.77,2.19-1.62,5.4-1.62,4.14,0,8-2.37,8-7.36V32.53a10.15,10.15,0,0,1,1.33-4.42H44.85l.32-.5.23-.33c.85-1.27,1.72-2.16,3.18-2.24a2.58,2.58,0,0,1,2.68,2.24h1.15a3.74,3.74,0,0,0-1.62-2.58L44.45,21l1.34-7.68Zm-11.47.88,4.72,1.61v7.4l-3.48-1.83Zm1.16,15.7a4.6,4.6,0,0,0,2.82,1.72,2.4,2.4,0,0,0,.82,1.34A2.37,2.37,0,0,0,41,35.4a1.87,1.87,0,0,0,1.26,1.42l-1,1.15a1.47,1.47,0,0,1-1.28.52L35.56,38c.19-.49-.32-1.06-1.72-.81l1.74-4.86-1.06-2.25-2,1.72-.15,5.08-.85-.42C30.39,36,30.06,38,31.13,38h.42a.48.48,0,0,0,.2.51.34.34,0,0,0,0,.59.42.42,0,0,0-.08.68.91.91,0,0,0,.52,1.38c.63.17,1-.51,1.16-.91l6.86,2.13a2.33,2.33,0,0,0,2.47-.59l1.8-1.56a1.85,1.85,0,0,0,.92,2.25,10.29,10.29,0,0,0-.08,1.33H27.44V32.53a8.94,8.94,0,0,0-.67-3.07Zm7.38,4.28A2.31,2.31,0,0,0,43,36.05l-.3.29c-1.29-.16-1.8-2.08-1.8-2.08a2.91,2.91,0,0,0,0,.51,1.79,1.79,0,0,1-1.19-1.86,2.92,2.92,0,0,0,.94.33l.09-.56a2,2,0,0,1-1.63-1.39H39l.48,0A5.37,5.37,0,0,0,41,31.08a2.49,2.49,0,0,0,1.7,1,2.78,2.78,0,0,0,.23,1.67m1.91,5.08a1.88,1.88,0,0,0-.3.6l-.72.66a3.46,3.46,0,0,0-1.21-2.8l.77-.75.15.15a1.75,1.75,0,0,0,1.31,2.14m-3.47-.33.59-.58a3.27,3.27,0,0,1,1.15,2.82l-.65.59a2.33,2.33,0,0,1-.41.31,3.53,3.53,0,0,0-.68-3.14M40.09,39h0a1.16,1.16,0,0,0,.66-.09,3.24,3.24,0,0,1,.26,3,2.9,2.9,0,0,1-.89-.13l-.22-.07A3.91,3.91,0,0,0,40.09,39m-1.5-.18.84.1a4.13,4.13,0,0,1-.4,2.58l-1-.29a3.93,3.93,0,0,0,.53-2.39m-1.74-.21,1,.12A4,4,0,0,1,37.39,41l-1-.29a3.22,3.22,0,0,0,.49-2.12m-4.09-.27a.46.46,0,0,1-.66-.48,1.6,1.6,0,0,1,1.61,0c.25.16.45.6.79.88a7.13,7.13,0,0,1-.31,1.29,1,1,0,0,1-.64-1.58.63.63,0,0,0-.79-.16m-.66,1.84a2.28,2.28,0,0,0,.64.15.36.36,0,0,1-.43.32.34.34,0,0,1-.21-.47m-.93-2.71A.26.26,0,0,1,31.3,37c.29,0,.67.33,1,.49a3.48,3.48,0,0,1-1.17,0m1,2c.21.19.82.12.82.12l0,.12c-.27.36-1,.2-.84-.24M33,39c-.44.18-.89-.06-.75-.34.2.18.77.09.77.09Zm.64-5.08-.84,3,.29-4.92L34.34,31,35,32.4l-1.66,4.77L33.78,34c0-.23-.14-.25-.18,0m.06,3.69a5.42,5.42,0,0,1,1.2.06c.19.08.06.41-.19.37a5,5,0,0,1-1-.43m1.46.75,1,.12a3.3,3.3,0,0,1-.43,2l-1-.29a6.25,6.25,0,0,0,.4-1.86M51.5,51.89A5.58,5.58,0,0,1,48.6,57l.65-1.32h-.63l-.83,1.69a8.13,8.13,0,0,1-2.92.51c-3.31,0-4.18.13-5.4,1.35-1.22-1.22-2.1-1.35-5.4-1.35a8.33,8.33,0,0,1-2.91-.5h0l.83-1.7h-.63l-.73,1.49c-.17-.09-.34-.17-.5-.27l.6-1.22h-.63l-.44.91a5.63,5.63,0,0,1-2.25-4.73v-7.4H51.5Zm.67-22.43a8.72,8.72,0,0,0-.67,3.07V43.82H50.19a7.59,7.59,0,0,1-1.11-2.5,3.15,3.15,0,0,0,.4,2.5H47.79A9.76,9.76,0,0,1,47,41.25c-.51.58-.19,2.14.13,2.57H46a5.66,5.66,0,0,1,.16-1.67C45.58,42,45,41.73,45,41.08a.9.9,0,0,0,.83.26l.48-.37c-1.59.05-1.66-1.69-.4-2.51-1.26,0-2.2-.7-1.74-2a1.85,1.85,0,0,1-.55-2.64,2.23,2.23,0,0,1-.25-2.23,2.49,2.49,0,0,1-1.74-.68l-.1,0a4.37,4.37,0,0,0,1.91-1.44ZM47.38,24c-1.3.23-2.42,1.82-3.34,3.26l-.11.17H43v.16c-.1,1.12-1.15,2.62-3.48,2.62A3.83,3.83,0,0,1,37,29.46a2.88,2.88,0,0,1-.94-1.35,2.11,2.11,0,0,1-.1-.5v-.16H35l-.11-.17c-.92-1.44-2-3-3.34-3.26L35.11,22l4.36,2.37L43.83,22Zm-4.07-3.08-3.48,1.83v-7.4l4.73-1.61Zm-3.84-6.38-5.16-2c.43-1,2.46-1.92,5.16-1.92s4.72.88,5.16,1.92Z"/><path class="cls-5" d="M51,36.75v-.56c-1.74,0-2.13-2.09-2.13-2.09A2.07,2.07,0,0,0,51,36.75"/><path class="cls-5" d="M48.76,40.23l-.18-.54c-1.48.38-2.24-2-2.24-2a2,2,0,0,0,2.42,2.51"/><path class="cls-5" d="M49.79,38.05c-1.77.28-2.5-1.78-2.5-1.78A2,2,0,0,0,49,38.65a1.55,1.55,0,0,0,2.27,1.69l-.16-.51a1.15,1.15,0,0,1-1.31-1.78"/><path class="cls-5" d="M48.73,32.17V31.6c-2.33-.48-2.14-2.09-2.14-2.09a2.09,2.09,0,0,0,2.13,2.66"/><polygon class="cls-5" points="33.92 55.71 33.09 57.41 33.71 57.41 34.55 55.71 33.92 55.71"/><polygon class="cls-5" points="35.18 55.71 34.35 57.41 34.98 57.41 35.81 55.71 35.18 55.71"/><polygon class="cls-5" points="40.24 55.71 39.41 57.41 40.04 57.41 40.87 55.71 40.24 55.71"/><polygon class="cls-5" points="41.51 55.71 40.67 57.41 41.3 57.41 42.13 55.71 41.51 55.71"/><polygon class="cls-5" points="38.98 55.71 38.14 57.41 38.77 57.41 39.61 55.71 38.98 55.71"/><polygon class="cls-5" points="46.37 57.41 47 57.41 47.83 55.71 47.2 55.71 46.37 57.41"/><polygon class="cls-5" points="36.45 55.71 35.62 57.41 36.25 57.41 37.08 55.71 36.45 55.71"/><polygon class="cls-5" points="37.71 55.71 36.88 57.41 37.51 57.41 38.34 55.71 37.71 55.71"/><path class="cls-5" d="M34.85,46.59a.26.26,0,0,0,0,.52.26.26,0,0,0,0-.52"/><path class="cls-5" d="M39.47,8.31a9.57,9.57,0,0,1,5.82,1.78,11.5,11.5,0,0,1,1.5-3.86l-2.09.23L43.61,4.14l-2.1,1.09-2-2-2,2-2.1-1.09L34.24,6.46l-2.09-.23a11.5,11.5,0,0,1,1.5,3.86,9.54,9.54,0,0,1,5.82-1.78m-4.88-.92,1-2.11,1.84,1,2-2,2,2,1.84-1,1,2.11,1.22-.19A9.76,9.76,0,0,0,44.79,9,10.94,10.94,0,0,0,34.15,9a9.77,9.77,0,0,0-.78-1.82Z"/><path class="cls-5" d="M41.6,4.15a.55.55,0,0,0,.6-.5,3.53,3.53,0,0,0-.41-1.12s-.67.72-.69,1a.56.56,0,0,0,.5.6"/><path class="cls-5" d="M45,5.39a.54.54,0,0,0,.74-.23,3.28,3.28,0,0,0,0-1.18s-.88.39-1,.66a.57.57,0,0,0,.24.75"/><path class="cls-5" d="M37.33,4.15a.56.56,0,0,0,.51-.6c0-.3-.69-1-.69-1a3.53,3.53,0,0,0-.41,1.12.54.54,0,0,0,.59.5"/><path class="cls-5" d="M33.91,5.39a.55.55,0,0,0,.23-.75c-.14-.27-1-.66-1-.66a3.28,3.28,0,0,0,.05,1.18.54.54,0,0,0,.74.23"/><path class="cls-5" d="M75,24.21a3,3,0,0,0,1.57-1.6c-1.85-.27-6.78-2.34-10.84-.65,1.52-1.44,2.89-1.63,3-3.7A1.47,1.47,0,0,0,71,17.89c-.42-1.24-1.48-.24-1.62-.58s1.33.15,1.65-1.46c-1.19-.41-1.55.57-1.76.34s.76-.62,0-1.92c-1.24.73-.59,1.55-.86,1.64S68.41,15,67,15.08c-.13,1.48,1.29,1.53,1.06,1.76s-.66-.85-1.7-.27a1.55,1.55,0,0,0,2,1.57c-.17,2.27-2.25,1.84-3.8,4.4,3.29,1.68,4.77,4.61,6.79,6.64a11.54,11.54,0,0,0,1.81-2.58,2.64,2.64,0,0,0,3.72,0c-.75-.77-.78-1.35-1.93-2.4m-3.19.41a3.67,3.67,0,0,1-.39,3.57,15,15,0,0,0-4.25-5.42c-.3-.19.16-.53,1-.64,2.52-.47,5.48.59,6.89,1a3.63,3.63,0,0,1-1.86.79,11.26,11.26,0,0,1,2.3,2.4c-1,.24-1.55-.39-3.69-1.67"/><path class="cls-5" d="M50.71,62.45V59.68a25.44,25.44,0,0,1-8.36,2.09l-.16,1c.3,0,.67.08,1.18.11a32.84,32.84,0,0,1-3.9.26,32.69,32.69,0,0,1-3.89-.26c.5,0,.87-.07,1.17-.11l-.16-1a25.37,25.37,0,0,1-8.36-2.09v2.77l-2.91,1.19a35.3,35.3,0,0,0,7.49,2.77l-.34,1.16a25.74,25.74,0,0,0,14,0l-.34-1.16a35.3,35.3,0,0,0,7.49-2.77ZM26.87,63.7l2-.78V60.66a32.8,32.8,0,0,0,5.28,1.48L33,65.76a32.19,32.19,0,0,1-6.13-2.06m12.6,4.17a26.56,26.56,0,0,1-6.21-.78l1.17-3.79a26.49,26.49,0,0,0,5,.42,26.4,26.4,0,0,0,5-.42l1.18,3.79a26.79,26.79,0,0,1-6.22.78m6.47-2.11-1.11-3.62a32.8,32.8,0,0,0,5.28-1.48v2.26l2,.78a31.83,31.83,0,0,1-6.12,2.06"/><path class="cls-5" d="M5.76,26.6a11.54,11.54,0,0,0,1.81,2.58c2-2,3.51-5,6.78-6.64-1.55-2.56-3.63-2.13-3.78-4.4a1.54,1.54,0,0,0,2-1.57c-1.05-.57-1.42.57-1.7.27s1.2-.28,1.06-1.75c-1.38-.05-1.12.95-1.45.82s.39-.91-.86-1.64c-.7,1.3.26,1.71.06,1.92s-.57-.75-1.77-.34c.33,1.61,1.87,1,1.66,1.46s-1.2-.66-1.61.58a1.45,1.45,0,0,0,2.28.37c.14,2.08,1.49,2.25,3,3.7-4.06-1.69-9,.38-10.85.65A3,3,0,0,0,4,24.2,24,24,0,0,0,2,26.61a2.64,2.64,0,0,0,3.72,0m-2.29-.31a11.26,11.26,0,0,1,2.3-2.4,3.63,3.63,0,0,1-1.86-.79c1.41-.38,4.37-1.44,6.9-1,.82.11,1.29.45,1,.64a15,15,0,0,0-4.25,5.42,3.71,3.71,0,0,1-.4-3.57C5,25.91,4.47,26.53,3.47,26.29"/><path class="cls-5" d="M37.7,25.06v1.22a1.51,1.51,0,0,1,1.23-.41v1.76a2.6,2.6,0,0,1-.34,1.24h1.76A2.55,2.55,0,0,1,40,27.63V25.87a1.51,1.51,0,0,1,1.23.41V25.06H37.7Z"/></g></g></g></svg>