<svg xmlns="http://www.w3.org/2000/svg" viewBox="0 0 337.05 337.05"><defs><style>.cls-1,.cls-2,.cls-3{fill:#fff;}.cls-2,.cls-3,.cls-4,.cls-5{stroke:#18120e;stroke-linecap:round;stroke-linejoin:round;stroke-width:8.45px;}.cls-3{fill-rule:evenodd;}.cls-4{fill:none;}.cls-5{fill:#ffdb2e;}.cls-6{fill:#18120e;}</style></defs><g id="Layer_2" data-name="Layer 2"><g id="Слой_1" data-name="Слой 1"><circle class="cls-1" cx="168.52" cy="168.52" r="168.52" transform="translate(-69.8 168.52) rotate(-45)"/><circle class="cls-2" cx="165.86" cy="121.23" r="40.1"/><path class="cls-3" d="M90.88,243.77V209.66a33.8,33.8,0,0,1,33.81-33.8H207a33.8,33.8,0,0,1,33.8,33.8v34.11"/><rect class="cls-4" x="206.92" y="159.75" width="41.31" height="52.88" rx="12.7"/><rect class="cls-5" x="193.7" y="197.02" width="66.1" height="57.84" rx="9.83"/><circle class="cls-6" cx="226.76" cy="221.97" r="6.61"/><path class="cls-6" d="M226.76,240.26a3.74,3.74,0,0,1-3.75-3.74V222a3.75,3.75,0,0,1,7.49,0v14.55A3.74,3.74,0,0,1,226.76,240.26Z"/></g></g></svg>