<svg xmlns="http://www.w3.org/2000/svg" viewBox="0 0 1388.94 1855.07"><defs><style>.cls-1{opacity:0.74;}.cls-2,.cls-4{fill:#fff;}.cls-2{stroke:#ccc;stroke-miterlimit:10;stroke-width:2.83px;}.cls-3,.cls-5{fill:#ffdc00;}.cls-3,.cls-4{stroke:#000;stroke-linecap:round;stroke-linejoin:round;stroke-width:3.17px;}</style></defs><g id="Layer_2" data-name="Layer 2"><g id="Слой_1" data-name="Слой 1"><g class="cls-1"><path class="cls-2" d="M148.91,1529.55c8.81-.4,15.47,4.7,21.93,9.43,3.51,2.57,6.62,4.33,11,4.15,15.3-.63,30.63.92,45.94-1,6.93-.88,12.09,2.8,16,8.3,1.1,3.51,1.67,7-.16,10.47-1.58,3,.77,4.87,2,7.12,1.48,2.68,3.91,4.9.36,8.47s-4.89,4.18-7.4-.31c-2.93-5.24-13.14-8.62-18.3-6.06-4.46,2.22-5.84,11.85-2.31,16.58a17.55,17.55,0,0,0,4.38,4.26c2.11,1.38,3.45,2.8,2,5.5a2.93,2.93,0,0,0,1.05,3.8c1.61,1.14,2.58-.44,3.58-1.37a14.79,14.79,0,0,0,3.08-3.76c.75-1.39,1.77-3.22,3.71-2,1.64,1,1.21,2.88.54,4.44-2.07,4.81-4.11,9.65-8,13.37.12,3.6-.4,6.74-4,8.86-2,1.17-3.21,3.22-3.8,5.93a15.08,15.08,0,0,1-4,7.18c-1.55,1.58-2.77,3.61.57,5.28,1.65.82,4,3.13,1.58,4.75-1.54,1.06-4.22,5.44-7,.32-1.3-2.36-7.68-1.21-9.63,1.74-1.73,2.6-1.72,4.69,2.12,6.44,4.14,1.9,4,6.12.25,8.76-1.32.94-2.8,1.72-4,2.76-4.33,3.7-8.33,4.77-12.08-.82-.87-1.3-2.25-2.59-4.09-1-1.64,1.41-2.14,3-.61,4.77.8.94,1.16,2.58,2,3,4.44,2,4.31,5.89,4.47,9.73q.54,0,.51.51c1.63,2.61,3.47.78,5.29.3,1.14-.31,2.62-.93,3.4.17,1.16,1.61-.59,2.52-1.49,3.47a40,40,0,0,1-12.11,8.42c-2.45,5-6.09,10,2.07,13.43,1.49.62,1.74,2.19.62,3.63s-2.44,2.47-4.2,1.77a15.67,15.67,0,0,1-3.45-2.48c-4.95-3.88-10.74-2.68-12.57,3.41-2.18,7.23-7.9,14.55-1.17,22.44.85,1,.75,3.56-.38,4-5.71,2.1-3.09,8.58-6.63,11.91-2.13,2-.43,3.88,2,5.16,4.18,2.25,5.36,13.49,1.6,16.4-2.64,2.05-6.44,2.26-8.14-.74-1.48-2.62-8.13-4-3.12-9.15.94-1-.92-.39-1.38-.68-3.09-2-7.23-2.73-7.91-8.15-3.63,5.1-6.73,6.45-11.65,2.52-2.55-2-7-3.81-10.62-.27-.52.51-1.74,1.16-2,1-6-5.2-6.73,2.34-8.3,4.34-2,2.61-4.26,5.55-6.38,8-2.42,2.74-8,1.62-9.86-.91-3.88-5.25-9.71-5.8-14.75-8.16-2.43-1.14-4.46-2.22-4.52-5.08s1.76-4.44,4.38-5.15c1.58-.43,3.88-.8,3.16-2.82-1-2.87-3.36-.82-4.53,0-4.3,2.92-9.14,1-13.67,1.8-5.86,1-8.46,5.4-11.77,9.09-1.47,1.64-.45,3.22,2,2.62,6-1.46,10.44,2.8,13.63,5.88s3.81,1.15,5.39-.25,1.72-5,4.76-3.4.83,4.62,0,6.44c-1.69,3.6-.61,5.28,2.76,6.38,1.94.64,3.8,1.88,5.76,2,5,.35,5.91,3.36,5.6,7.53s0,8.36,2,12c2.94,5.35-.19,7-4.32,7.12-5.22.09-6.94,1.2-7.3,7.15-.38,6.44-.58,13.1-1.75,19.43-1.26,6.84-4.09,13.43-5.56,20.35-.51,2.41-2.82,3.33-5.18,3.66-.08-.18-.11-.43-.25-.56-6.12-5.91-9.07-12.79-7.61-21.54.58-3.44-2.39-5.88-4.74-8.2-6.39-6.33-13.09-12.4-16.9-20.83-3-6.56-4.37-12.57.63-19.41,3.3-4.51,7.26-9.69,6.08-16.21-1.24-6.81-12.17-16.21-19.8-16.67-4.39-.27-8.67-.36-13.15,1.66-5.49,2.48-8.84-2.69-12-6.1s1.08-5.12,2.84-6.66c11.65-10.2,23.41-20.28,37.18-27.66a14.34,14.34,0,0,1,12.91-.75c7.81,3.13,13.47-.21,14.44-8.48.31-2.66.83-5,3.49-5.89s5.62-.81,7.93,1.66c3.53,3.77,7.35,4,11.29.55a10.77,10.77,0,0,1,7.93-2.66,51.19,51.19,0,0,0,5.54,0c4.36-.26,9.76,1.58,12.4-3.1s-2.78-7.39-5-11.66c3.4,0,6.23-.21,9,0,6.66.61,10.48-2.44,13.39-8.35,2.42-4.92,1-7.6-3-10.12-5.34-3.32-8.84-16.43-5.67-21.64,1.22-2,3.48-2.73,5.78-3.08,3.3-.49,4.33-3,3-5.36-1.69-3-1-5.18,1.25-6.92,7.53-5.78,6.59-13.23,3.58-20.47-3.16-7.63-2.54-13.88,4-19.2,2.28-1.86,2.88-4.24,2.81-7.08-.12-5.33.15-10.68-.08-16-.2-4.89.14-9.29,4.48-12.61,2.64-2,1.71-4.72.44-7.24C150.32,1538.75,148.29,1534.5,148.91,1529.55Z"/><path class="cls-2" d="M1386.15,249.15c.39,4.27,1.71,8.44,1.29,12.81-.54,5.62-3.58,8.66-9.22,8.24-4-.3-6.74.92-8.42,4.59-4.07,8.92-10,17-12.62,26.54-3,10.93-7.87,21-13.19,30.78-4.09,7.53-9.47,14.35-13.7,21.81-3.79,6.68-3.93,14.5-5.62,21.85a51.58,51.58,0,0,0-.17,23.51c1,4.49-.51,8.38-3.58,12.37-6.28,8.15-7.62,18.56-9.37,28.28a72,72,0,0,0-.32,25.65c.77,4.19,1.15,8.31,3.72,12.15,2.8,4.21.9,9.57,1.91,14.4,1.18,5.64-4.31,8.59-7.54,11-13.73,10.4-17.31,25-19,40.75-.8,7.54-1.8,15.07-1.3,22.68.13,2-.11,4.39.82,6,5.57,9.66,1.25,17.81-3.67,25.82-2.67,4.35-5.47,8.62-8.57,12.74-4.19,5.57-7.59,11.71-7.19,19.19a11.5,11.5,0,0,1-3.1,8.5c-9.5,10-13.71,22.87-19.06,35.11-4.47,10.22-9.11,20.18-9.7,31.8-.47,9.2-8.23,15.31-13.4,22.3-3.94,5.33-7.85,10.38-9.06,17.11-.79,4.37-4.37,7-7.66,9.26-8.3,5.8-14.06,13.6-18.66,22.37-1.22,2.32-3,4.64-2.8,7.4,1.22,13-7.09,22-14.07,31.09-5.08,6.62-6.36,14.37-9.3,21.61-1.06,2.61-2.08,4.77-4.42,6.27a49.43,49.43,0,0,0-18.09,21,64.21,64.21,0,0,1-15.93,20.69c-9.32,8.14-18.31,17.07-16.07,31.72,1.49,9.77-1.22,18-9.24,25.21-9.92,9-15.61,21.42-22.57,32.75a6.07,6.07,0,0,0,.29,7c1.89,2.87,1.65,5.31-1.35,7.37a13.92,13.92,0,0,0-6.46,12.52c.09,2.72-1.2,4.6-3.42,6.12-3.67,2.51-4.4,5.68-1.74,9.47a19.18,19.18,0,0,1,1.6,3.32,4.07,4.07,0,0,1-1,5c-1.53,1.33-3.09.38-4.48-.56s-3-2.11-4.49-3.22-3-3.15-5.36-2a5.72,5.72,0,0,0-3,5.67c.15,4.38.4,8.46-4.41,11-1.86,1-1.77,3.37.44,4.44,6.83,3.29,3.54,6-.53,8.26-8.84,4.94-12.73,12.32-11.61,22.34a13.31,13.31,0,0,0,1.09,4.74c2.54,4.76,3.77,8.83-2,12.57-2.77,1.81-1.46,5.71-1.71,8.72-6.32-8.08-14.75-8.4-23.85-6.62a16.79,16.79,0,0,1-6.69.18c-4-.89-7.39-1-10.75,2.17-2.81,2.66-6.75,2.13-8.26-1.42-1.15-2.71-4-6.48,1.33-9.28,6-3.12,9.49-15.2,6.84-21.38-2.23-5.22-1.91-10.86-2.72-16.29-.54-3.72-2.08-7.05-2.81-10.65-.52-2.56-2.5-2.91-4.67-3.06-4.17-.29-8.1,1.07-12.13,1.72-1.62.26-3.35,1-4.62-.37-1.58-1.76,0-3.44.64-5.08a4.7,4.7,0,0,1,.88-1.62c9.23-9.06,9.88-21.59,13.3-33,1.64-5.49,3-11.09,4.68-16.55,1.22-3.85.6-6.62-3-8.89-7.44-4.67-14.76-9.53-22.05-14.45-5.13-3.46-10.87-3.11-16.61-3.14-2.19,0-4.85.43-5.92-2.17s1.23-4.15,2.79-5.63c4-3.79,9.41-6.73,12-11.29,4-7,12.65-11.34,11.8-21.29-.39-4.54,3.7-4.06,6.79-3.22,3.75,1,7.36,2.56,11.13,3.47,6.06,1.47,8.48-.51,7.2-6.51-1.1-5.12.44-6.9,5.36-7.95,5.45-1.17,11.64-2.5,9-11-.6-2,1.65-3.6,3.54-4.57,2.36-1.22,4.72-2.5,7.18-3.5,4.66-1.89,6.71-4.91,5.49-10.1-1.43-6.09-.78-11,6.42-13.69,3.81-1.42,7.25-4.65,10-7.8,2.52-2.86,2-6.6-1-9.34a15,15,0,0,0-5.15-3.27c-4.73-1.57-6.81-5-5.88-9.44,1.68-8.1.11-15.87-1.37-23.69-.77-4-.11-6.81,4.11-8.84,6.15-3,10.15-8.78,15.34-13.07,3.74-3.09.82-17.88-3.77-19.91-4.13-1.83-2.6-2.94-.12-4.09,6.48-3,10.47-9.12,16.32-12.94,3.43-2.23,3.15-5.53,1.13-8.62-1.56-2.39-3.07-5.08-5.28-6.73-8-6-6.11-13.92-1.86-21.38,3.58-6.27,4.88-12,1.11-18.45a10.41,10.41,0,0,1-.55-9.47,30.63,30.63,0,0,0,1.93-10.82c.15-7.08,14.18-21,20.77-19.29,10,2.68,20.57,3.1,30.24,7.11a6.61,6.61,0,0,1,2.17,1.14c2.84,2.8,6.21,4.6,9.92,2.64,3.45-1.82,1.6-5.38,1.54-8.34-.11-6.39,6.65-13.08,13.13-13.1,5.12,0,10.2,0,15.25-1.35,5.33-1.41,6.42-4.48,4.33-9.18-.75-1.68-1.67-3.29-2.55-4.9-2.25-4.14-1.23-7.37,3.19-8.76,10.17-3.2,19.28-7.86,25.91-16.55a4.58,4.58,0,0,1,2.46-1.76c9.57-1.52,10.25-8.58,10.25-16.14,0-11.82,1-23.39,9-33,1.44-1.73,2.76-3.85,4.64-4.86,6.06-3.26,9.34-6.81,7.48-14.79-1.23-5.26,5.56-6.19,9.42-7.84,3.7-1.58,7.92-1.89,11.82-3,3-.88,5.94-2.14,6.62-5.66s-1.55-5.25-4.14-6.83a37.59,37.59,0,0,1-4.53-3.18c-5-4.18-5.57-9.15-1.07-13.71,3.5-3.55,3-6.48-.2-9.4-3.06-2.78-4-6.22-5-10.12-2.3-8.85-6.78-17-8-26.32-.42-3.21-2.76-5.85-5.95-7.43-5.46-2.7-8.13-7.56-8.76-13.26-.6-5.51-3.26-9.71-7-13.24a24.18,24.18,0,0,1-8-14.77c-.73-5.41-2.76-9.6-8.23-11.89-7.33-3.07-11.5-8.64-12.56-16.77-1-7.37-3.95-13.68-10.89-17.78-2.88-1.69-6-3.62-7.86-6.74-2.25-7.88-.49-11.81,7.3-15.8a23.16,23.16,0,0,0,6.51-4.49c2.84-3,5.71-5.69,10.45-3.23,1.58.82,3.63.05,5.26-1,8.21-5.27,15.92-11.09,21-19.67a7.39,7.39,0,0,0,.15-8.1c-2.88-4.92-1.5-8.23,3.85-10.61s11.94-3.44,12.86-11.26c.18-1.57,3-1.74,4.66-2.48a8.67,8.67,0,0,0,3.75-13.17,9.34,9.34,0,0,1-1.78-4.44c-.81-7.36-3.94-10.12-11.48-10.34-.62,0-1.23,0-1.85,0-2.53,0-5.39-.24-6.37-2.67-.75-1.86,1.37-3.49,2.79-5a34.72,34.72,0,0,0,4.19-5.25c3.3-5.15,1.76-8.53-4.21-9.29-4.24-.54-6.8-3.11-9.14-6.47-5.75-8.26-17.71-8.44-24.19-.63a67.63,67.63,0,0,1-5.17,5.27c-3.86,3.76-7.79,4.39-12.5,1.07s-10.21-6-15.07-9.32a22.74,22.74,0,0,0-19.45-3c-5,1.43-10,4.15-14.87,6.64a39.34,39.34,0,0,1-3.67,2.18,9.81,9.81,0,0,1-9.8-1.72c-2-1.72.38-4.9,1.45-7.23,3.48-7.52,9.57-12.52,16.69-16.29,3.52-1.86,6.57-3.83,8.15-7.76,2.6-6.47,1.37-9.12-5.33-11-3.45-1-7-1.58-9-5.45-1.56-2.9-5.09-3-8.26-2.92-5.35.16-10-1.34-13.61-5.56a13.09,13.09,0,0,0-8.59-4.29c-10.43-1.2-12.54-9.31-14.13-17.4-1.44-7.27,3.1-11.66,8.7-15.45,8.75-5.91,17.52-11.79,25.88-18.28,4.06-3.14,5.71-8.13,10.24-11,3-1.87,4.26-2.58,6.94.13,5.71,5.78,7.33,5.68,14.11.39,1.53-1.19,2.92-.56,4.56-.45,6.27.45,12.53,1.41,18.77-1,5.22-2,9-5.06,11.37-10.26,6.37-13.66,17.74-21.82,31.37-27.23,5.58-2.22,7.47-6,4.06-11.59-3.82-6.31-2.29-10.88,2-15.94,2.62-3.1,4.84-6.5,8.08-9s6.12-5.11,10.65-1.55c2.33,1.82,6.35,1.7,8.85.05,4.94-3.24,8.18-.84,11.19,2.47,1.79,2,3.51,4,5.83,5.3,5.16,2.83,7.88,5.71,2.89,11.4-2.23,2.54-1.65,6.12,1,8.9,3.83,4,7.57,8.06,12.49,10.72,2.88,1.55,3.81,3.79,3.95,7,.6,13,9,17.65,19.74,10.61,4.2-2.75,8.41-2.69,12.89-2.65,3.24,0,5.27,1.69,6.59,4.57,1.42,3.09-.34,5-2.22,7-6.83,7.2-14.33,13.78-18.29,23.33-3.35,8.08-.9,12.83,7.79,13,6,.15,9.5,4.36,13.51,7.64,3.61,3,6.56,6.36,11.49,7.79a9.52,9.52,0,0,1,6.68,6.41c1.19,4.21,5.76,4.15,9.32,4,4.34-.23,7.18,1.15,8.22,5.38s-1.61,6.52-5,8c-4,1.75-7,5.69-6.19,8.94,1.44,6-3.37,6.52-5.73,9.4-6.63,8.06-15,13.29-24.51,17.37-4.43,1.91-4.49,6.85-4.79,11.17-.27,3.93,2.79,4.18,5.32,5.53a146.31,146.31,0,0,1,13.93,8.8c2.11,1.46,2.83,3.91,2.86,6.5.11,7.42,0,14.65-5.82,20.55-2.85,2.9-2.28,7.27-.77,10.42,1.21,2.53,4.85,1.7,7.26.73,1.9-.75,2.62-.48,3.07,1.31.82,3.29,3.53,3.26,5.92,2.93,11.12-1.5,22.91-.45,31.51-10.53,4-4.76,11-4,15.25-.68C1369,242.4,1378.57,243.68,1386.15,249.15Z"/><path class="cls-2" d="M1138.77,337.68c.62,3.53,3.79,5,6.22,6.42,7.17,4.17,10.11,10.73,11.2,18.28,1.12,7.83,5,13.35,12.22,16.31,5.69,2.35,7.77,6.72,8.55,12.35a23.53,23.53,0,0,0,7.71,14.25c3.78,3.54,6.51,7.66,7.23,13.15.77,5.84,3.51,10.85,9.06,13.76a11.66,11.66,0,0,1,6.46,9.89c.51,10.31,7.58,18.61,8.29,28.8.07,1,1.17,2.21,2.1,2.93,3.51,2.71,3.39,4.93.47,8.44-3.62,4.35-2.15,12.33,2.14,16.27,1.19,1.1,2.72,1.84,3.94,2.92,1.56,1.4,5,1.86,4,4.68-.79,2.28-3.42,3.31-5.94,3.78a58.76,58.76,0,0,0-15.7,4.83c-5.26,2.62-7,6.73-5.73,12.13.52,2.27.67,3.9-1.62,5.18-14.25,8-18,21.43-18.67,36.37-.13,2.87.17,5.77-.11,8.61-.58,5.76-2,11-9,12a7.18,7.18,0,0,0-4.5,3.05c-5.91,7.52-13.76,11.87-22.7,14.89-7,2.36-8.75,7.77-5.45,14.47,3.83,7.77,3.81,7.68-4.67,9.75a38.75,38.75,0,0,1-9.16.71c-11.46.07-17.32,6.28-16.64,17.78.08,1.43.77,2.92-1,3.7-1.32.57-2.23-.25-3.25-1a25.69,25.69,0,0,0-17-5.78c-4.57.1-8.74-2.1-13-3.52-7.36-2.45-14-1-19.5,3.88-3.22,2.84-5.44,1.65-7.06-.67-2-2.94-7.55-4.63-4.14-10.09,5.52-8.83,2.92-15-6.82-18.08-13.49-4.3-25.65-11.3-37.49-19A51.55,51.55,0,0,0,972,590.3c-4.62-.12-7.94,2.83-10.32,6.74-4.43,7.28-6.86,8.21-15.09,5.94a29.93,29.93,0,0,1-4.17-1.05c-9-4-17.37-5.11-26.22,1.65-5.19,4-9.09,1.07-10.25-5.74-.84-5-3.36-9.28-6.07-13.33-3-4.54-10.6-4.49-13.6.58-3.9,6.6-9.37,10.09-16.2,13-5.47,2.35-9.35,7.72-14.85,10.62-4,2.12-6.89,2.2-10.24-1.38-5.55-5.93-11.75-6.33-18.89-2.4-2.91,1.61-2.6,3.92-2,6.33,1.64,6.44,0,11.27-5.45,15-2.36,1.61-5,2.79-7.32,4.51-5.47,4.11-9,9-8.49,16.57.44,6.12-2.9,11.75-4.29,17.66a2.61,2.61,0,0,1-3.46,1.78c-4.5-1.19-7.75.84-11.08,3.64-5,4.25-10.33,1.29-15-.92s-7.51-1.7-11.3,2c-7.16,7-16.53,10.56-25.87,13.54-5,1.59-8.34,4-10,8.84-.75,2.18-1.56,4.4-4.68,3.64-6.69-1.62-11.85,1.72-17,5.23-5.76,3.92-9,3.66-12.63-2.52-3.15-5.41-5.87-5.66-11.28-3.06-5.14,2.48-10.52,5.08-16.68,5.32a8.64,8.64,0,0,0-8,6c-2.74,9.39-11.13,14.23-16.61,21.38-1.74,2.28-5.08,2.32-7.86,3.06-6.32,1.68-11.81,3.24-19,.61-8.34-3-13.38,4.88-10,13.75,3.54,9.26,3.31,9.17-6.1,11.9-10.26,3-20.62,4.11-31.23,5.12-6.51.62-10.07-.74-14.53-4.58s-10.91-2.26-16.38-3c-8.15-1.16-12.09-4.44-11.77-12.64.07-1.64.06-3.28.09-4.92,5.47-.62,8.91-5.52,7-11.23-1-3-1.11-4.43,1.87-5.61,4.08-1.6,3.8-4,1.47-7.15-1.94-2.63-2.59-5.61.31-8.28,1.29-1.2,2-2.74,1.25-4.43-1-2.21-3.2-1.15-4.89-1.5-2.26-.48-5.81,2.57-6.48-.53-.59-2.72,3.41-3.58,5.93-4.67a18.64,18.64,0,0,0,5.68-3.45c5.53-5.45,2.29-15.32-6.41-19.79-2.54-1.3-5.24-2.48-8.16-2.33a4.79,4.79,0,0,1-5-5.53c1.76-5.5.64-12.06,5.46-16.48a6.49,6.49,0,0,0,1.68-7.37c-1.69-4.27.73-6.5,2.75-9.73a56.77,56.77,0,0,1,14.64-15.81c2.66-2,5-3.19,8.29-3,2.86.16,5.78-.28,8.6.09,10.34,1.34,19.29-.87,26.28-9.15a9.66,9.66,0,0,1,7.67-3.23c15.51-.08,26.54-14.88,22.7-31.44-1.43-6.18-6.59-11.54-10.29-17.12-2.17-3.27-3.36-6.17-1.35-10.14s1.43-8.31-.12-12.51c-3.27-8.9-1.7-11.23,7.4-11.28,1.24,0,2.47,0,3.7,0,9-.23,12.55-4.6,10.8-13.43a24.49,24.49,0,0,0-.83-2.31c-2.62-8.76-1.31-11.31,7.58-12.41,4.47-.55,5.27-2.48,3.93-6-1.22-3.24-3.77-7.19-.68-9.6,4.29-3.35,7.94-8.64,14.51-8,4,.37,7,0,9.85-4.06a9.49,9.49,0,0,1,10.95-3.3c6.34,2.18,13,1,19.49,1.37,4.31.25,6-1.42,5.63-5.68-.3-3.81-.5-7.49,2.35-10.92,6.83-8.23,13.37-6.85,22.86-1.74a15.3,15.3,0,0,0,11.72,1.69c5.28-1.35,8.83-.31,11.9,5.23,4.83,8.7,12.18,15.09,22.76,16.39,2.76.34,4.41,2.24,5.49,4.43,1.17,2.37-.15,4.38-2,5.91-3.6,3-4.8,5.83-.71,9.55,1.42,1.3,2.27,4.27-1.14,4.42-4.69.22-6.26,3.5-6.35,6.8-.1,3.94,3.66,5.75,7,6.7,3.88,1.09,7.89,0,9.37-3.78s3.68-4.45,7-4.59c6-.25,9.7-5.07,14-8.16,3.77-2.69,6.6-2.8,9.69-.2,3.52,3,6.07,2.88,9.34-.62,3.07-3.3,7.67-4.5,11.84-6.18,1.17-.47,2.43-1.06,3.31.19a3.07,3.07,0,0,1-.27,4c-.95,1.05-2.26,1.77-3.2,2.83a7,7,0,0,0-1.71,6.85c.86,2.9,3.4,2.47,5.6,2.55,2,.08,4.27-.42,6.13.19,4.59,1.5,10.38,1,10.57,9,.11,4.4,3.5,9,9.58,8.07,6.6-1,11.62,4.49,18.32,3.93,5.46-.45,9.15-1.75,11.56-7.08,2.15-4.76,5.28-9.11,8.28-13.44,1.85-2.67,3.84-3.95,6.55-.15,2,2.75,4.42,5.17,6.45,8,7,9.73,17.46,9.16,27.79,8.46,1.61-.11,3.22-.92,4.8-.82,6.21.37,10.32,0,11.48-8.4,1.32-9.57,11.15-13.67,20.6-10.7.39.12.85.44,1.16.33,6.93-2.4,13.47.3,20.16,1.37,3.33.53,5.68-.86,5.48-4.72a6.17,6.17,0,0,1,2.75-5.84c4.66-3.06,6.8-9.11,12.89-10.56,2.18-.52,2.76-2.89,2.81-5,.22-9.31,7.24-15.3,12.79-20.54,4.7-4.43,9.26-8.79,12.86-14.06a58.67,58.67,0,0,0,5.91-11.33c2-5-1.66-8-5.15-9.9-4.79-2.65-6.33-5.81-4.65-11,.93-2.91.48-6-.1-9.11-1.51-8.09-.82-15.61,5.1-22.23a14.67,14.67,0,0,0,4.08-11.27,13.7,13.7,0,0,1,0-3.07c.62-4.64.85-10.61,5.47-12.08s10.07.38,14.24,3.49c6,4.49,8.14,4.7,13.19-.85,2.12-2.33,3.72-2.25,6.27-.95a49.93,49.93,0,0,1,13.93,10.73c4,4.25,8.24,2.72,13.34,1.48,8-2,13-7.33,19-11.84C1134.94,343,1137.55,341.2,1138.77,337.68Z"/><path class="cls-2" d="M515.91,737.72c-.3,2.23-.56,4.46-.92,6.68-1.32,8.28,5.43,14.94,13.83,15.4,7.4.4,15.53,0,20.84,7.48,3,4.2,7.5,6.71,12.27,8.94,4,1.88,8.81,4,4.94,10.59-2.57,4.35,2.37,7.05,3.81,10.55,1.19,2.9-5.24,5.89-2.12,10.35,2,2.9,4,5.56,8.25,5.27,5.21-.36,10.09,1.19,14.83,3.36,5.35,2.44,10.24,2.35,14.21-2.89,4.73-6.24,11.6-5,17.56-3.51,10.24,2.52,16.67,18.36,12.07,27.82a5.5,5.5,0,0,1-5.34,3.43c-5.66,0-7.25,3.18-7.33,8.32-.18,12.25,6.91,21.29,19.09,23.82.6.12,1.47,0,1.78.36,5.83,7,11.23,2.74,17.27,0,9.49-4.36,19.22-2.76,25.23,7.45,5.64,9.59,15.7,10.58,24.45,3.69a115.64,115.64,0,0,0,10.21-8.63c4.87-4.83,11.9-3.13,18-3.47,3.55-.2,7.17,1.7,10.81,1.95,8.88.61,13.13,6.45,15.27,13.86s-3.82,12-7.23,17.41c-.85,1.33-3.37,2.29-3.34,3.38.22,8-2.89,15-5.82,22.09a5,5,0,0,0,.07,2.43c1,6.37,15.32,20.82,21.64,21.71,2.42.34,5,.56,7.08-1.16,3.35-2.78,5.13-1.16,6.33,2.14,3.36,9.32,11.07,14.76,18.76,19.72,6,3.86,9.47,12.21,5.67,18.21-1.73,2.73-5,2.6-7.76,2.4-2.43-.18-4.79-1.16-7.22-1.46-4.66-.57-8.31.23-11.73,4.55-5.7,7.21-13.25,10.82-23.18,8.61-11.57-2.58-19.62,5.34-18.26,17.1.68,5.93-1.53,9-7.7,10.74-9.83,2.7-18.79,2.14-25.92-6.47-4.53-5.48-10.65-7.1-17.66-6.56-3,.24-6.07-.75-9.12-1-1.83-.15-4.18-.64-5.45.24-11.86,8.24-21.35.26-30.3-5.22-8.61-5.28-15.62-5.62-23.27.68-3.16,2.6-6.72,4.71-9.82,7.38-3.57,3.08-5.57,1.48-6.83-2a20.06,20.06,0,0,0-7-9.71c-4.12-3.12-8.05-4.24-13.11-3-8,1.95-14.38-.72-18.87-7.81-1-1.58-.89-2.58.33-3.71,3.57-3.3,3.67-7.58,3.38-12-.15-2.3-.42-4.68,2.57-5.45,5.69-1.47,7-6.17,7.2-10.89.42-9.55,5.56-17,10.42-24.46,3.1-4.72,5.39-9.15,4.31-14.74-.84-4.29.31-8.16,2-11.89,4.26-9.3,2.37-12.69-7.33-12.54a4.09,4.09,0,0,1-4.07-2.11c-2.83-4.89-7.57-7.79-12.55-9.25a62.34,62.34,0,0,1-22.9-12.6c-4.34-3.65-9.06-7.09-14.5-9.13-4.13-1.55-6.55-4.9-8.74-8.33-3.82-6-9.54-8.12-16.13-8.44-4.17-.2-8-2.19-11.92-2.45-7.53-.49-14.2-1.81-20.07-7.06-1.55-1.39-5.15-.48-7.81-.63,1.85-5.63,6-10.35,6.19-16.69.08-3.08,1.68-3.49,3.77-1,1,1.24,2.09,2.77,3.49,3.38,3.24,1.41,6.6,1.93,7.27-3,.43-3.2,2.25-6.39,1-9.61-2.38-6.37.81-7.81,6.16-7.34,4.73.42,6.58-2.63,4.93-5.9-4.25-8.44,1.76-14,4.78-20.29,2.21-4.6,3.8-8.82,1.67-13.94-1.24-3-4.11-3.81-6.06-5.8-7.83-8-7.81-10.26,2.24-14.81,5.95-2.7,6.6-7,6.3-12.42-.09-1.54-.59-3.62,1.26-4.4S514.88,736.52,515.91,737.72Z"/><path class="cls-2" d="M131.47,1130.43c6.62.72,10.25,5.34,9.46,12-.26,2.23-.37,4.48-.76,6.69-1.13,6.56,1.64,11,7.31,14,3.89,2,6.57,4.82,6.3,9.63-.13,2.44.72,4.48,3.27,5.31,2.78.9,6.08.64,7.21-1.81,3.14-6.78,10.87-5.93,15.48-10.12,1.65-1.5,3.5-.39,4.48,1.55,2.83,5.65,5.54,11.37,8.49,17,1,1.81-.33,2.55-1,3.75-4.51,8.63.19,17.27,9.1,21.56,5.36,2.58,13.06,2.63,15.59,10.71.88,2.8,5.5,4.62,8.66,6.45,2.64,1.53,2.5,2.81.52,4.58-3.5,3.12-6.51,6.81-10.88,8.89a11.08,11.08,0,0,0-6.44,9c-.46,3.16-.16,5.77,3.58,6.64,1.7.39,3.12,1.22,3.15,3.22,0,1.57-1.5,1.79-2.48,2.41-7.59,4.77-10.88,15.13-8.2,23.76,1.43,4.62,3.92,10-3.39,12.94-2.83,1.15-4.09,4.26-4.18,7.7s-.85,6.89-1.19,10.34c-.23,2.42-1,4.63-3.39,5.37-2.66.81-4.93-.68-6.42-2.68-3.06-4.09-5.75-8.47-8.7-12.65-4.08-5.78-6.47-6-11.78-1.41-7.6,6.59-15.55,12.59-25,16.41-7.47,3-14.7,3.34-21.92-.36-2.14-1.1-4.35-1-6.6-.92-7.91-18.33-13.86-37.4-20.78-56.1-8.35-22.54-16.32-45.24-24.83-67.72-1.76-4.66-5.14-8.71-7.86-13-3.48-5.47-9.61-4.78-14.81-6-2.36-.55-4.4-.89-5.15-3.43s1.24-3.67,2.54-5.21c2.54-3,6.14-4,9.67-4.9,10.52-2.51,13.53-6.49,12.37-17-.22-2-.14-4.07,2.45-3.91,4.39.28,8.79-1.58,12.95,3,3.57,3.94,9.84,2.33,14.55,1a8.93,8.93,0,0,0,6.87-9c.24-9.73,7.88-13.94,16.83-10.28C121.28,1129.78,126.19,1131.38,131.47,1130.43Z"/><path class="cls-2" d="M119.35,1395.48a9,9,0,0,0,3-.55c4.36-2.46,7.71-3.52,6.84,3.72-.29,2.39,1.33,4.67,3.54,3.85,7.13-2.65,11.77,2.51,16.33,5.6,6.21,4.2,11.83,3.24,18,1.41.37-.11.64-.53,1-.71,4.08-2.07,5.78,4.72,10.17,2.59,3.59-1.73,6.76-1.49,8.77,3.18,1.64,3.81,7.74,4.54,9.5,1,2.55-5.08,6.25-3.6,9.46-2.58,4.56,1.46,8.45.39,12.35-1.49,6.1-3,7.82-8.89,4.26-14.5-3-4.74-4.22-10.13-5.39-15.47-.75-3.42,1.52-5.94,4.52-7.09,2.42-.94,4.71-3.77,8-.29s8.26,4.14,13.09,3.92c3.16-.15,5.5.35,6,4.35.45,3.62,3.9,5.12,6.68,6.69,4.12,2.34,5.13,5.11,3.18,9.58-2.86,6.59-2.07,7.26,5.07,9.29,3.61,1,7.17,1.45,10-.49,6.18-4.19,14.19-3.64,20.05-8.35.95-.76,2.24-1.24,2.91-2.17,2.52-3.52,5.21-3.87,8.54-1.09,2.7,2.24,6.19,1.9,9.38,2.25,7.48.83,15,1.37,22.47,2.11,2.22.22,3.93-.82,6-2,.11,1.84.23,3.44.3,5,.37,8.37,2.53,11,10.76,13.07a35.43,35.43,0,0,1,4.71,1.24c2.13.85,5.28.91,5.48,3.85s-2.63,2.84-4.72,3.72c-4.15,1.73-3.3,6.13-3.79,9.53-.52,3.56-.51,7.5,3.09,9.8,7.12,4.53,7.68,11.66-.35,15.46-7.66,3.63-10.71,12.16-18.65,14.87a2.63,2.63,0,0,0-1.4,1.9c-.51,7.18-5.39,6.9-10.88,7.72-4.47.66-8.51,4.28-12.6,6.52-.45-.36-.7-.45-.73-.59-2.54-13.76-4-15.7-18.22-14.76-9.41.62-14.57-3.08-19-10.58-2.73-4.59-5-11.17-12.81-9.36a17,17,0,0,0-4.62,1.33c-2.38,1.39-3.7,2.76-5.84-1-1.84-3.28-6.42-1.54-9.76-1.27-3,.25-2.74,3-2.83,5.3-.17,4.19-.19,6.75-6,3.62-9.7-5.24-15.11.73-18.23,11.18a38.94,38.94,0,0,1-8.64,15.08c-4.81,5.35-11.1,9.39-15.87,15-1.54,1.81-3.83,1.4-5.79,1.23-6.78-.61-10.8,3-14.4,8.19-5.55,8-11.8,15.4-23.35,12.63-3.52-5.38-9.51-7.28-14.75-10.1-4.07-2.19-6.41-5.46-8.1-9.45-1.34-3.17-1.15-6.42,2.1-8,4.35-2.06,4.33-5.68,2.9-8.7-4.35-9.21-3.67-19.72-7.91-28.91-.58-1.26.24-2.72.55-4.11.78-3.56,1.52-7.29-2-10.09-1.56-1.24-1.07-2.67-.57-4.38.57-1.89,1.2-4.47.37-5.94-2.93-5.17-.89-9.5,1.1-14.19,3.86-9.09,6.06-18.14-3-25.83C119.24,1397,119.42,1396.09,119.35,1395.48Z"/><path class="cls-2" d="M422.28,1000.25c1.59.33,3.28,1.2,4.76.92,8.3-1.59,16.08,1.56,24.11,2.3,5,.46,10.28,1.61,14.59-2.57,1.29-1.25,2.93-1.21,4.53-.22s3.6,2,5.34,3c11.33,7,17.75,6.11,27-3.72,4.3-4.55,7.72-4.49,10.38.76,1.56,3.09,3.64,4.3,6.75,4.1,3.6-.23,7-1.34,8.88-4.62,3.49-6.14,6.54-8,13.18-5.79,9.38,3.07,18.27,7.19,24.51,15.43,3.16,4.17,7.92,3.59,12.39,3.76,5.72.22,11.69-2,16.72,3.29a24.83,24.83,0,0,1,5.52,7.86c2.69,6.62,6,7.49,11.73,3.45,4.34-3.06,9-5.72,12.94-9.27s7.82-3.47,11.73-1c3.72,2.33,9.9,3.17,10.48,7.59.66,5.07-6.26,4.7-9.22,7.53a18.66,18.66,0,0,1-15.6,5.32,5.5,5.5,0,0,0-6.33,4.66c-1.62,8-6.27,15.8-1.86,24.39,1.44,2.81-1.32,5-2.46,7.24-2.25,4.44-2.45,8.09.89,12.4,3,3.86,5.43,8.1,9,11.58a11,11,0,0,1-1.93,17.56c-4,2.48-5.44,5-4,9.5a6.71,6.71,0,0,1-2.14,7.29c-2.63,2.26-4.38-.15-6.4-1.44a6.43,6.43,0,0,0-6.51-.33c-5,2.72-10.53,4.55-15.48,7.27-9.36,5.15-20.61,2.6-25.66-6.78-7.31-13.58-17.44-25.09-27.41-36.61-9.09-10.51-22-9.2-34.23-8.48-2.34.13-3.16,2.4-4.09,4.21-2,3.82-3.83,7.7-5.86,11.5-.73,1.37-1.35,3.35-3.47,2.78a3,3,0,0,1-2-3.44c.59-4.83-1.48-4-4.57-2.51-7.66,3.66-20.57-1.76-23.54-9.63-1-2.72.67-4.74,1.67-6.9,4.82-10.4,3.26-13.2-8.21-14.93-7.09-1.07-8-6.94-8.81-12.35-.62-4.28-2.16-6.5-6.67-5.77a5,5,0,0,0-4.34,3.86c-1.49,6.1-5.72,7.45-11.23,6.82,2.66-2.45,5.06-5.29,8-7.27,5.78-3.86,7.3-10.71,7.12-15.8-.18-5.37-.54-11.76-4.18-17.07C424.33,1014.29,419.55,1008.3,422.28,1000.25Z"/><path class="cls-2" d="M323.16,1195.85a.9.9,0,0,0-.71.67c-1.33,1.21-1.92,3.06-3.67,4-1.24.64-2.77,1.76-1.94,3.34s3.05,3,4.62,2.31c4.2-1.72,9.88.6,12.76-5.07,1-2,3.79-1.5,5.25.41,1.23,1.62,2.34,3.33,3.71,4.85a3,3,0,0,1,.15,4c-1.06,1.32-2.54,1.06-3.76-.09-3.2-3-5-.87-5.7,2-1.06,4.13-3.32,5.4-7.49,5.36-4.44,0-8.8,1.19-12,4.71-1,1.11-2.21,2.11-3.69,1.88-8.39-1.35-17.29-1.4-23.15-9.25-3.11-4.17-1.77-12.08,2.78-14.56,1.66-.9,3.48-1.63,3.11-4-.32-2-2.1-2.15-3.7-2.59-9.41-2.56-18.8-5.36-28.54-6-7.46-.51-15.63-6.77-17.73-16.84-.39-.78-.8-1.56-1.25-2.32-5.38-8.58-5.94-16.5.57-25.39,3.14-4.28,6.52-9.23,7.53-15.09,1.45-8.46-1.65-15.17-7.08-21.22-.28-.53-.53-1.07-.76-1.62-.83-5.08-4.29-6.11-8.86-6.46-8.09-.62-12.76-5.57-13-12.67-.12-3.87,2.72-6.25,4.51-9,1.65-2.53,2-4.23-.26-6.31-5.15-4.65-8.36-10.82-10.37-17.08a20.12,20.12,0,0,1,2.16-16.6c12,1.29,23.72,4.37,35.55,6.68,27.65,5.41,55.26,11.07,82.89,16.57,15,3,30,5.84,45,8.75,1.72,2.35-.16,4.5-1,6.09-3.81,7-5.82,14.65-8.57,22-3.53,9.47-8.12,18.65-16,25.49a5.55,5.55,0,0,0-2,4.82c.08,8.92-.36,17.78,2.7,26.53,2.77,7.93-2,18.76-8.5,24-4.18,3.38-9,5.92-12.29,10.74C332.06,1192.41,327.19,1193.88,323.16,1195.85Z"/><path class="cls-2" d="M469,850a10.68,10.68,0,0,1,10.87,3.91c3.18,3.74,6.7,4.77,12.34,3.61,5.17-1.06,11.12,2.5,17,2.68a14.66,14.66,0,0,1,13.24,8.25c3.49,6.88,10.63,8.52,16.25,12.25,8.59,5.7,15.7,13.91,26.18,16.42a34,34,0,0,1,12.91,6.56c1,.73,2.51,1.38,2.69,2.29,1.11,5.51,5.26,4.16,8.77,4,1.7-.06,3.65-1.64,4.75.83a5.4,5.4,0,0,1-.37,5.26c-3.21,5.14-5,10.5-3,16.66,1,3.17-.6,5.88-2.39,8.49-6.08,8.85-12.22,17.53-12.6,29.07-.12,3.79-1.62,8.24-7.33,9.08-3.87.58-4,4.61-3,7.47,1.52,4.22.15,7.17-2.74,9.84-3.25,3-6.11.46-8.81-1.05-7.26-4.06-15-4.75-23.12-4.23-2.38.16-4.13.68-3.85,3.45.48,4.76-3.19,5.89-6.38,6.92-4.08,1.33-4.08-2.3-5.33-4.8-2.07-4.11-11.9-4.62-14.55-.55-2.92,4.45-7.78,5.73-11.54,8.71-1.47,1.16-2.66.58-3.92-.13-2.84-1.59-5.68-3.17-8.48-4.84-5-3-9.51-6-15.2-.35-3.48,3.47-8.66,1.28-12.91.17-8.67-2.27-17.58-1.38-26.31-2.56-.2-6.61-2.9-13.12-.22-19.85,2.94-7.37,2.83-15.32,4-23,1.54-10.11,8-17.43,16-23.5,4.29-3.28,9.2-5.73,12.36-10.48,1.62-2.42,4.59-3,7.63-3.07,6-.16,7.94-2.58,6.53-8-1.12-4.32-3-8.4,4.75-6.85,4.11.82,3.76-4,2.64-4.81-4.08-2.89-.75-4,.63-5.91,2.46-3.45.19-6.21-2-8.63-3.41-3.84-8.35-7-3.4-13.13.63-.77,0-2.78-.36-4.11-.65-2.23-1.36-3.78,1.59-5.45s1.89-6-1.38-7C468.85,853,467.56,852.45,469,850Z"/><path class="cls-2" d="M246.77,1167.54a.51.51,0,0,1,.57.54c1.95,12,6.25,15.06,18.74,16.31a106,106,0,0,1,21,4.66c3.09,1,6.1,2.57,5.79,6.73a16.24,16.24,0,0,0-12.43,4.18c-3,2.73-6.71,4.09-10.89,5-7.26,1.68-12.92,7-19,11-5.73,3.84-12.26,5.59-18.3,8.55-3.81,1.87-12.61-3.25-14.25-8.13-1-3-3-3.56-5.44-4.85-5.9-3.1-13-4.31-17.19-10.49-2.74-4-3.92-7.54-.12-11.44a5,5,0,0,0,.55-6.77c-3.67-4.57-5-10.25-8-15.13-3.47-5.65-6.64-6.68-12-3.16-4.78,3.13-11.06,3.59-14.44,9.5-1.4,2.45-5,.84-4.85-2.43.21-6.09-3.19-9.09-7.84-12-6.09-3.86-7.37-8.56-5.24-15.19,2.64-8.2-1.82-15.26-10.43-16.49-2.68-7.51,2.22-10.22,7.32-14.5,9.72-8.17,19.46-16.83,25.16-28.69,1.37-2.83.56-6.07.55-9.12,0-4.71-3.81-3.83-6.63-4.51a3,3,0,0,1-1.59-1.58c-.7-1.55,3.51-15.08,5-15.93a6.54,6.54,0,0,1,4.6-1.1c9.49,1.73,12.48-.61,14.71-10.61,1.56-7,3.74-13.85,8.06-19.59,3.93-5.22,6.23-4.87,7.72,1.35,2.12,8.83,7.45,12.47,16.1,12.23a5.64,5.64,0,0,1,2,4.92c-1.52,9.78,4.91,16.64,8.91,24.39,1,1.89,3,2.68,4.58,3.92,4.16,3.21,4.43,6.2.29,9.23-3,2.2-3.52,6.12-7,8.07-1.87,1,.32,3.75,1.42,5.3,2.37,3.31,5.91,3.82,9.78,3.78,10.61-.1,10.61,0,12.25,9.25l-.06-.16c8.16,7.6,9.48,16.8,7.27,27.35-.64,3.07.24,5.84-4.07,6.17-.87.07-1.47,1.48-1.31,2.54.51,3.27-1.4,5.67-3.44,7.43-4.87,4.18-4.72,8.57-1.39,13.32C244.51,1163.41,244.07,1166.42,246.77,1167.54Z"/><path class="cls-2" d="M112,1322.82c4.71.36,8.59,3.28,13.47,3.7,14.5,1.26,25.84-5.32,36.26-13.86,11.68-9.59,9.33-8.49,16.66,2.13,3.73,5.4,6.9,12.44,15,9.89,7.64-2.41,4.64-10.27,5.88-15.87.47-2.15,0-4.45,1.52-6.44,2.57-3.41,6.5-3.91,10-3.49,3.09.37,4.42,4.5,4.08,6.84-2,14.09,5.82,25.58,9.39,38.16a31.61,31.61,0,0,1,1,7.89c.06,2.46-.76,5.56.42,7.26,5.83,8.38-.16,11.06-6.16,13.85-5,2.34-6.14,6.29-4.73,11.21a123.06,123.06,0,0,0,4.35,13.39c3.14,7.51-1.16,13.71-9.57,13.17a47.08,47.08,0,0,1-6.63-1.21c-3.16-.67-5.88-.88-7.9,2.63-1.84,3.2-4.21,2.77-6-.4-2.17-3.8-5.57-4.63-9.49-3.68a5.35,5.35,0,0,1-5.58-1.34,4.73,4.73,0,0,0-5.74-.9c-9.29,6-16.26.16-23.49-4.3-1.57-1-2.93-2.42-4.9-2.27-4.62.35-8.52.21-7.43-6.33.26-1.55-1.62-2.09-3.13-2.3a10.84,10.84,0,0,0-8.63,2.31c.3-5.66,1.43-10.81,6.9-14,3.38-2,3.33-5.08,2-8.57C123.56,1354.47,117.81,1338.63,112,1322.82Z"/><path class="cls-2" d="M824,1001.28c-2.21-3.53-5.46-5-9.77-5.33-3.71-.25-3-3.85-2.74-6.41,1.08-10.39,0-10.62-8.26-16.7-6.73-5-14.44-9.79-17.22-18.84-1.51-4.91-5.61-5.67-9.34-3.18-5.72,3.81-10,1.16-13.34-2.71-3.22-3.68-6.17-7.62-9.58-11.18-3.22-3.37-3.43-7.13.06-10.27a8.52,8.52,0,0,0,2.8-9.38c-1.06-3.7.42-5.79,2.88-8.54,8.41-9.39,11.8-17.37,5.5-28.18-2.38-4.08-5.35-6.73-10.35-7.75s-10.32-3.56-14.72-3.36c-8.17.37-17.5-1.13-24.15,6.87a34.85,34.85,0,0,1-12.51,9.62c-6,2.55-11.41-1.36-13.88-6.33-7.44-15-23.17-12.27-34.17-6.9-2.71,1.33-4.64,2.35-6.94-.27-1.5-1.7-3.74-1.41-5.73-1.79-8.14-1.54-17.26-11.91-17.25-19.26,0-4.61,1.58-7.57,6.63-7.67,2.63-.06,4.7-.85,6-3.46a24.05,24.05,0,0,0-7.82-30.34c-8-5.51-21.21-4.44-27.93,2.47-2.3,2.37-4.58,3.29-7.62,1.73-5.21-2.69-10.78-3.57-16.62-3.81-5.56-.23-7.44-4.22-4.51-9,2.06-3.39,1.56-6.2-1.39-8.68-1.38-1.16-3.09-1.91-2.14-4.41,2.72-7.17,1.31-11.08-4.8-14.36-2.53-1.36-7.28-1.47-6.46-5.19.91-4.1,5.64-2.69,8.55-2.36,11,1.27,20.88-3.41,31.21-5.53,5.1-1,5.13-5.34,4.52-9.34a23.38,23.38,0,0,0-2.26-6.31,5.94,5.94,0,0,1,1.69-7.73c2.62-2.19,5.83-2.69,8.41-.21,4.48,4.29,8.53,4.22,12.69-.23A2.65,2.65,0,0,1,625,736c13.82,0,19.17-11.35,26.67-19.85a8.35,8.35,0,0,0,2.09-4.31c.56-3.27,3.15-5.66,5.76-5.69,7.08-.11,12.53-4.55,19-6.18,2.92-.73,4.14-.06,6.08,2.09,9,10,10.16,9,18.1,3.23,4.4-3.18,8.82-6.63,15.11-4.65,3.12,1,5.47-.77,6.47-4.1,1.57-5.2,5.43-7.39,10.47-9.16,9.59-3.37,19.37-6.85,26.61-14.6,2.16-2.31,4-1,6.1-.25,7.77,2.82,15.44,4.81,22.29-2.14a3.47,3.47,0,0,1,3.47-.65c6.18,1.52,8.75-1.71,9.37-7.3.69-6.16,4.23-11.48,3.25-18.45-.6-4.19,4.34-8.86,9.14-11.49,4.28-2.34,8.47-4.76,11.22-9.24a15.77,15.77,0,0,0,2.07-10.57c-.19-1.74-2.85-4,.43-5.14,2.94-1,5.78-3.79,9.23-1.52a23.58,23.58,0,0,1,4.75,3.84c4,4.4,8.6,4.59,13.36,2,4.47-2.4,9.23-4.46,12.52-8.69a8.5,8.5,0,0,1,4-2.81,26.7,26.7,0,0,0,16.26-12.89c2.79-4.8,6.72-4.29,9.42.67,2.42,4.45,5.43,8.76,5.48,14.19,0,3.27,1.87,4.77,5.07,4.88,4.75.16,9.33.24,13.51-2.85,4-2.93,8.1-4,13.16-1.39,4.11,2.1,8.94,3,13.55,3.88,5.85,1.13,11-.23,14.34-5.75,5.2-8.52,9.13-9.48,19.06-6.2,12.58,4.15,22.5,13.11,34.51,18.33,5.79,2.52,11.2,5.83,17.42,7.47,8.83,2.32,10.63,6.75,5.75,14.27-2.68,4.14-1.33,6.79,1.48,10.27,2,2.5,7.89,4.09,5.17,8.3-2.36,3.66-2.43,7.15-2.83,11a26.62,26.62,0,0,1-1.73,7.75,16,16,0,0,0,.81,15.32c2.45,4.13,2.07,7.88-.66,11.4-3.06,4-3.66,8.65-4.29,13.27-.71,5.23-.2,10.22,4.74,13.68,1.3.91,2.09,2.52,3.21,3.71,3.58,3.84,4,6.62-1.24,10s-9.38,8.38-15,11.64c-4.24,2.46-3.53,5.41,1.16,7.71,6,2.95,7.25,13.6,1.89,17.49-5.62,4.07-9.66,10-16.24,13-2.48,1.1-2.3,3.81-1.82,6,2,9.43,3.25,18.89,2.19,28.57-.55,5,1.17,8.74,6.49,10.38,1.86.58,3.53,2.07,5.06,3.4s2.21,3.08.17,4.66c-3.37,2.61-6.46,6-10.28,7.53-4.89,2-7,5.2-6.27,9.82,1.39,8.81-1.88,13.93-10.44,16.28-3,.81-6,2.93-5.5,6.56.89,6.69-3.36,9-8.4,9.74-6.23.89-7.37,4.55-6.37,9.51,1.16,5.79-2.16,5.09-5.58,4.24-4.33-1.08-8.24-3.47-13-3.37-4.39.1-6.63,1.63-6.24,6.16.36,4.23-.68,7.55-5,9.52-3.51,1.63-2.73,6-5.06,8.79-5.49,6.53-14.49,9.77-17.42,18.64-.29.9-1.19.73-2.06.76-8.55.3-13.45,3.53-15.86,11-2,6.29-3.68,12.59-11,15.06-.94.32-1.76,1.8-2.11,2.9-1.78,5.69-6,7.38-11.42,7.28a10.3,10.3,0,0,0-7.25,2.83,22.14,22.14,0,0,1-5.4,4c-6.94,3-12.5,7.27-15.84,14.39-1.89,4-6.09,3.42-9.83,3.14-5.22-.39-7.66-4-8.39-8.35-.76-4.61-3-6.68-7.42-7.6-6.93-1.47-8-.7-7.55,6.43C825.12,998.84,825.9,1000.08,824,1001.28Z"/><path class="cls-2" d="M676.33,1432.3c-2.26,0-4.59-.37-6.76.07-5.53,1.14-9.14-.09-12.53-5.35-3.84-6-10.79-3.17-16.53-2.75-2.62.2-5.18,1.16-7.75,1.84-4.56,1.22-8.64,1.06-12.54-2.33-3.45-3-8-2.9-12.36-2.49-7.8.72-15.5,1.32-21.83-4.78a3.71,3.71,0,0,0-2.79-1.1c-7.89,1.83-12-5-17.8-7.73-2.7-1.27-3.18-3.82-2.82-6.28,1.24-8.49-3.91-15.78-4.25-24-.16-4.07-4.52-4.14-7.83-3.88-7.59.59-7.51.68-6.71-7.22.57-5.55-.48-10.2-6.91-11.91a6.94,6.94,0,0,1-5-5.71c-1-5.22-2.24-10.43-2.88-15.7-.5-4.22,2.43-7.68,4.13-11.18,4.64-9.56,9.29-19.13,14.15-28.59,4.24-8.24,6.7-17.54,8.9-26.62,1.77-7.26,5.08-12.29,12.26-14.67,3.11-1,6-2.57,9.13-3.66,7.17-2.51,9.26-5.94,6.07-13.16-2.94-6.65-2.2-12.15,1.89-17.78,3.46-4.77,3.44-9.41-1.09-13.73a9.85,9.85,0,0,1-2.73-10.71,9.07,9.07,0,0,0,.37-4.25c-1-5.1-.5-7.95,5.78-5.38,2.22.91,4-.7,5.74-2.53,7.27-7.76,9.06-18.24,13.84-27.22,1.17-2.19-.28-4.35-.89-6.5-1.24-4.37,1.23-9.43,5.47-9.94,5.69-.68,7.23-4,7.06-8.85-.15-4.26.42-7.36,4.62-10.24,6.75-4.63,7-16,1-21.64-4.09-3.87-6.68-8.75-10.13-13-1.86-2.31-.79-4.1.31-6.15a18.65,18.65,0,0,0,1.5-15.13c-1.85-6.4,1.13-13.21,4.27-19.23,1-2,3.48-2.12,5.54-2,10.48.79,17.11-6.73,24.72-11.78,2.94-2,4.63-3.24,7.92-1.1,4.35,2.83,9,2.58,13.13-.69a9.13,9.13,0,0,1,8.59-1.93,6.31,6.31,0,0,0,2.4.46c12-1.92,20,4.93,27.91,12.35,6.31,5.89,28.73,1.58,32.85-6a6.29,6.29,0,0,0,.3-5.31c-2.92-8.77,3-16.35,12.31-15.71,6.24.43,12.5,2.8,18.48-1.35,3.69-2.57,7.75-4.61,10.16-8.65a6,6,0,0,1,5-3.17c2.08-.13,4.71.15,5.62,1.75,1.26,2.23-1.84,2.58-3,3.82-1.5,1.67-3.84,3.08-4.41,5-3,10.46-8.9,20.55-5.48,32,1.55,5.21-2,8.55-3.91,12.44-3.16,6.33-2.66,7.33,4.06,9,7.59,1.91,13.44.74,17.91-6.5,4.25-6.9,18.64-11.75,26.4-9.72.71.19,1.76.65,1.88,1.16a2,2,0,0,1-1.68,2.23,6,6,0,0,1-3-.08c-3.39-.88-7-2.29-9.59,1.17-3.23,4.29-3.21,9.28-1.25,14,3.27,7.94,2,11-6.52,13.81s-11.15,5.89-10.52,12.11c.14,1.45.2,3,1.39,4,5.21,4,2.68,7.78-.17,11.56-3.53,4.67-9.84,6.91-14.57,5.22q-12.81-4.56-18.76,7.62c-.84,1.73-1.61,3.63-.47,5.27,5.49,7.93,3.87,15.46.36,23.82a50.91,50.91,0,0,0-3.4,25.95c1,8,7.15,12.85,12.09,18,5.33,5.55,4.74,12.5,6.26,18.76.71,2.94-4.72,6.25-7.71,7.56-4.17,1.84-9.43,6.15-14.25.18-1.23-1.53-3.39-1.32-5.24-1.12-11.92,1.26-21.47,10.32-24.81,22.25-2.75,9.81-7.49,19-7.93,29.52-.11,2.75-.31,5.3,1.27,7.65,4.33,6.47,6.31,12.87,1.16,20.1-2.57,3.61-2.6,7.85,1.35,11,3,2.37,3.4,5.56,3.1,8.88-.63,7.09,2.75,11.64,8.66,14.88,2.69,1.47,5.29,3.13,7.83,4.85,8.24,5.56,6.94,13.71,0,20.67-8,8-18.55,14.56-20.59,27.66-.74,4.77-6.37,8-7.1,13.66-.69,5.21-3.52,9.91-3.74,15.39-.2,4.93-3.11,8.06-8.45,7.62-6.77-.56-11.71,1.36-13.29,8.65-1,4.54-4.55,2.2-7,2.49A57.32,57.32,0,0,1,676.33,1432.3Z"/><path class="cls-2" d="M947.91,1239c2.94,9.48-3.22,12.89-10.36,15.9-4.41,1.86-10.15,3.42-5.58,10.32-4.44,4.09-.14,7.8,1.08,13.38-3-3.72-5.41-5.76-8.7-6.05s-5.66,1.77-3.18,4.14c4.45,4.27,2.76,10.7,6.8,15.1,2.16,2.35,2.54,3.65,4.2.14.59-1.24,1.11-3,3-2.24,1.68.72,1.23,2.37.82,3.77-1.8,6.18-1.72,13.11-7.39,17.74-1.71,1.39-1.44,3.72-1.7,5.74-.48,3.59-1.69,6.71-5.18,8.53-1,.55-2.47,1.48-2.62,2.42-1.51,9.21-10.41,12.2-15.34,18.49-1.5,1.91-3.56,3.86-6.17,1.29-2-2-2.2-4.17-.33-6.54,1-1.22,2.19-2.47,1.9-5.4-4.41,3.21-9.09,5.12-13.06,7.6-4.67,2.91-.61,5.18,2.74,6.38a39.65,39.65,0,0,1,2.69,11.23c.43,4.1-.23,7-3.57,9.62-2.9,2.22-4.31,5.11-3.2,9.14,1.18,4.28-2.09,8.94-1.24,12.56,2.27,9.64-3.82,10.36-10.1,13.74-8,4.31-16.34,9.36-20.29,19-3.56,8.64-13,11.53-19.36,17.45-1.19,1.11-2.74,1.92-3.66,3.2-4.14,5.8-4.08,5.84-11.53,4.48-.12,3.59,2.74,5.84,3.76,8.84,1.44,4.19.38,7.16-4.16,7.56-5.37.47-9.3,4.16-14.23,5.52-1.82.51-2.14,2.08-1.88,4,.89,6.69-5.45,14.88-12.17,15.59-4.76.5-7.2,4.41-10.7,6.73a64.18,64.18,0,0,0-6.05,5.18c-1.9-5.06-5.57-7.72-10.91-8.57-10.36-1.66-17.28-11.38-18.43-21.16-.79-6.7-3.58-10.4-9.48-12.83s-11.54-5.28-17.26-8a19.44,19.44,0,0,0-7.59-2.19c-7.14-.37-16.77-9.94-17.38-17.07a9.46,9.46,0,0,1,8.11-9.92c11.23-1.35,10.54-1.58,14.32-13.06,2.4-7.28,2.2-16,9.28-21.4,1.86-1.44.73-4.41,1.68-6.39,2.2-4.55,3.81-9.43,8.49-12.45,5.84-3.77,8.83-10.35,14.45-14.71s2.88-18-3.17-22c-3.57-2.4-7.28-4.58-10.86-7a11.68,11.68,0,0,1-5.64-10.27c0-3.5.73-5.82,4.87-6.29,5.62-.64,8.45-3.87,7.15-9.77-.81-3.7.24-6.3,3.74-8,3.85-1.92,5.47-5.76,6-9.53.67-4.57,2.92-6.64,7.07-8a55.13,55.13,0,0,0,16.91-9.8c3.92-3.2,7.49-3.4,11.6-.26,12.15,9.29,25.95,10,40.53,8.14,5.94-.76,12.73,1.27,17.39-3.29,5-4.84,13.58-5.81,14.67-15.22.5-4.29,5.63-7.64,6.53-12.73.32-1.79,2.64-2,4-.46,3.44,4,5.64,1.47,9.17-.47,6.53-3.59,7.59-8.5,6.33-14.85-.68-3.45.95-4.21,3.75-3.11a14,14,0,0,0,12.94-1.07c.68-.4,1.89-1,2.26-.69,5.61,4.21,13.92,3.77,18.16,9.92,1.76,2.56,3.52,3.41,6,2.82a8.78,8.78,0,0,1,8.07,1.86C939.46,1238.74,943.53,1239.18,947.91,1239Z"/><path class="cls-2" d="M1029.15,1101.17a7.51,7.51,0,0,1-2.15,5c-6.71,6.66-13.5,13.52-21.65,18.19-9.52,5.45-17,13.47-26.53,18.93-4.2,2.41-4.09,9-8.24,12.41-1.18,1,.77,3.82,2.21,5.24,2,2,2,3.92,1.23,6.61-2.76,9.92-5.23,19.84-16.62,23.66-2.26.75-1.68,3.63-3.35,4.89-8.12-2.74-12.68-11.14-21.36-13.29-2.2-.55-2-3.86-1-6.51s2.41-5.62.68-8.82c-2.82-5.23-5.56-6-13.5-3.14-3.74,1.35-7.5,5.32-11.14,3.48-3.28-1.67-5.29-6-7.06-9.69-4.72-9.91-13.78-16.31-20.44-24.68-3.26-4.09-4.34-9.64-9.14-12.66-3.05-1.93-5.45-4.64-9.47-5.08a8.24,8.24,0,0,1-7.1-6.74c-1.38-6.42-6-10.13-11.49-9.89-7.75.35-15.38-2.63-23.08-.43-.39.11-.82.06-1.22.14-11.28,2.49-12.69,2-18.8-7.33-1.88-2.85-.92-5.23,1.58-6.85a36.12,36.12,0,0,1,8.19-4.11c8.83-2.89,11.61-9.55,6.77-17.73a8.11,8.11,0,0,1-.48-8c1.44-3.56,3.3-4.86,6.89-2.76,3,1.72,5.75,1.58,8.36-1,1.79-1.76,2.65-3.71,1.9-6.06s-3.06-1.6-4.75-1.66c-8-.24-15.93-.41-23.14,3.79-2.25,1.3-5.05,2.13-6.21,4.7-4,9-10.76,9.93-19.26,6.56,1.53-2.77,2.91-5.63,4.62-8.27,2.3-3.55,2.82-7.08,1.06-11a12.49,12.49,0,0,1,.42-11.76,12.64,12.64,0,0,0,1.44-5.26c.6-9.81,6.28-15.66,14.28-20.56,5.13-3.14,10.16-2.36,15.38-2.38a2.69,2.69,0,0,1,2.66,2.19c.8,3.91,3.61,4.43,6.54,3.42,3.36-1.15,2.15-4.4,2.18-6.95,0-1.16-1.42-2.12-.22-3.81,4.45,0,8.33.15,9.25,6.58.66,4.64,2.91,9.49,9,9.31,5.75-.17,12.43,2.57,15.85-5.47,2-4.85,5.4-8.81,11.15-10.33a15.76,15.76,0,0,0,7.66-4.79c2.57-3.07,5.48-3.95,9.11-3.88,5,.08,8.76-1.45,10.18-6.83.39-1.48,1-3.48,2.77-3.85,7.12-1.49,8.56-7.53,10.07-13,1.28-4.66,4.14-7.81,7.27-11,1.6-1.64,2.82-2.18,5.22-.78A15,15,0,0,0,935,952c9.53-1.29,17.41,2.23,24.87,7.64a171.62,171.62,0,0,0,14.74,9.76c3.1,1.8,3.39,3.79,2.51,6.92-3.33,11.92-6.46,23.89-9.65,35.85a13.27,13.27,0,0,1-4.47,7.16c-3.41,2.57-4.6,6.28-6,9.75-1.52,3.83-.42,6.74,4.73,6.78,4,0,7.72-.94,11.44-1.83,4.1-1,5.38-.64,7.19,4,3.54,9,1.14,19.15,6.06,27.81,1.26,2.21-6.11,13.31-8.91,14.34-1,.35-1.85.51-2.33,1.63-1,2.26.93,12.75,2.87,13.89,4.45,2.62,9.13,2.74,13.08-.71,1.77-1.54,3-1.69,5.18-1.52,4.23.32,8.47.49,12.79-.62,6.12-1.58,11.7-.33,15.56,5.38C1025.75,1099.74,1027.09,1101.06,1029.15,1101.17Z"/><path class="cls-2" d="M771.69,1505c-2.6,6.43-2.84,6.55-12.94,6.41-.85,1.15,0,1.94.73,2.55,4,3.43,3.25,5.71-1.61,7.09a10.24,10.24,0,0,0-5.33,4c-2.69,3.6-4.91,7.72-10.63,6.22-.74-.19-2,.62-2.67,1.28-6.13,5.76-12.58,11.07-20.07,15a4,4,0,0,0-1.9,3c.42,5.91-4,10-5.42,15.25-1.47,5.41-6.62,7.4-10.73,10.25-1.14.79-3.36.74-3.83,1.69-4.09,8.33-13.63,12.87-15.61,22.62a13.29,13.29,0,0,1-1.26,3.44c-1.15,2.14-2.42,5.25-4.83,4.92-2.12-.3-3.51-3.15-3.75-5.78-.37-4.17-2.84-4.8-5.1-2-5.07,6.38-12.78,9.46-18.11,15.41-2.64,3-6.58,5-5.44,10.14.3,1.35-1,2.76-2.39,3.25-1.69.58-1.74-1.2-2.49-2-2-2.27-4.07-4.57-6.31-6.63-2.52-2.32-4.65-4.32-2.8-8.35,1-2.19-.41-4.62-3.15-4.9a3.48,3.48,0,0,0-3.95,3.78c.75,5.66-.53,9.55-6.76,10.64a2.33,2.33,0,0,0-1.43,1.76c.76,8.48-5,7.21-10.09,6.78-2.74-.23-5.32,0-5.16,3.47a7.27,7.27,0,0,1-4.83,7.18c-5.39,1.82-8.78,5.77-12.62,9.34a7.76,7.76,0,0,1-5.69,1.81c-4.71,0-9.43,0-14.14-.09.39-6.41-2.81-9-9-8.5a16.21,16.21,0,0,1-7.23-1.13c-5.75-2.3-6.38-6.39-1.7-10.36,5.12-4.34,9-10,14.72-13.78,2.76-1.82,1.89-5.21,1.52-8a145.34,145.34,0,0,0-2.46-15.75c-1.2-4.85,1.14-6.85,4.74-9.29,6.12-4.14,13.61-4.08,20-7.56,4.62-2.52,7.13-5.29,6.39-10.48-1.26-8.93,1.59-14.73,10.24-19.14,6.21-3.17,12.5-7.48,14.69-16,1.49-5.81,6.62-10.66,10-16a87.36,87.36,0,0,0,4.71-8.6c1.49-3.09,2.19-7.17.27-9.49-8.42-10.19-14.19-23.32-29-26.85-4.84-1.15-10-6.89-12.13-11.38a51.82,51.82,0,0,1-3.67-12.32c-.79-4-2-7.46-6.56-8.67-2.49-.65-3.2-2.82-3.28-5.31-.19-5.8,3.66-9.85,6.18-14.42,1.24-2.26,3.44-1,4.77.18,6.72,5.75,14.66,5.34,22.58,4.48,3.4-.37,6.89-.71,9.41,1.52,7.18,6.33,15.06,4.16,22.66,2,7.89-2.21,14.32-2.65,18.58,6.16,1.66,3.43,5.2,3.25,9.15,2.17,7.53-2,15.35-2.92,22.26,2.43.32.25.87.38,1,.69,7.35,18.2,27.48,14.81,40.46,23.66,5.56,3.79,9.7,6.37,10.76,13.92,1.28,9,6.32,17.37,15.89,19.93C763.25,1498.16,767.86,1500.55,771.69,1505Z"/><path class="cls-2" d="M950.41,1227.89c-3,2.2-2.32,5.49-2.5,8.52a11.06,11.06,0,0,1-8.54-2.6c-2.19-1.8-4.84-3.38-7.81-3.27-3.85.13-7.39.21-8.41-4.61-7.58,0-12-8-19.69-7.79a6.89,6.89,0,0,0-3.55.74c-3.83,2.71-7.59,2.08-11.59.48-2-.8-4.34-2-6.34,0s-1.6,4.34-.76,6.87c2,6-.89,11.19-7,13.07-1.88.58-2.45-1.06-3.63-1.64-4.16-2-7.65-1.12-8.55,3.47-1.2,6.11-4.95,11.59-7.9,16-4,5.93-11.14,12-19.55,12.69-11.13,1-22.35,1.92-33.55-.07-5.16-.92-8.21-5.14-12.47-7.49-5.43-3-11.39-3.32-16.51.44-5.95,4.38-11.89,8.75-19.17,10.68-3.14.83-3.95,3.09-4.5,5.87-.94,4.73-2.71,8.93-7.34,11.45-3.9,2.12-4.09,6.11-3.31,9.73s-.65,5.23-3.63,6.63c-4,1.87-6.61-.28-9.29-2.63-2.5-2.18-1.78-4.72,0-6.48,7-6.75,3.29-14.73.32-20.45-3.39-6.52-3-12.13-1.35-18.11,2.27-8.26,5.3-16.32,8.12-24.42,3.39-9.76,13-11,20.69-14.85a2.47,2.47,0,0,1,2.23.57,9.3,9.3,0,0,0,9.9,3.15c6.43-1.59,12.24-4.3,16.83-9.2a4,4,0,0,0,1.06-2.78c-.8-6.88-1.87-14-5.13-19.94a40.54,40.54,0,0,0-8.49-10.36c-5.79-5.14-6.69-11.5-5.26-18.5a123.29,123.29,0,0,1,5.63-19.31c2.29-6,2.78-13.55-1.07-19.89-1.75-2.89-.42-4.64,1.31-6.46,2.45-2.56,4.28-6.22,9-4.86,12.36,3.58,16,2.43,23.75-7.35.91-1.15,1.46-2.44,3.31-2,5.42,1.16,10.47-.77,15.71-1.6,6.74-1.07,13.64.59,20.54.43,4.8-.11,8.24,3.52,9.7,8.2s4.44,7.32,9.39,8.51c5.17,1.23,9.25,5,11.76,9.39,4.65,8.1,10.71,14.67,17.41,21.07,4.31,4.11,6.74,10.16,10.09,15.29,4.86,7.44,7.57,8.25,15.8,4.84a53.29,53.29,0,0,1,6.22-2.62c5.44-1.46,8.32,1.59,6.92,7.12-2.45,9.72-2.43,9.69,6.63,14.32,2.17,1.11,4.7,2.16,6.12,4,3.17,4.06,7.42,5.49,12.09,6.4-.08,2.64.62,5.71-1.32,7.69-5.63,5.71-6.14,11.85-2.64,18.75C950.53,1225.7,950.32,1226.87,950.41,1227.89Z"/><path class="cls-2" d="M558.74,1653.91c-.75,3.61-3,5.36-6.58,6.2-5.2,1.23-10.15,3.16-14.27,6.82-2.7,2.39-5.18,5.06-4.8,8.83.5,4.82-2.62,5.78-6,5.86-3.53.08-6.77.13-9.87,2.26s-3.82-.11-3.83-2.8c3.39-2.24,7-4.25,10.14-6.78s2.37-6,1.4-9.14-4-3.05-6.28-2.28c-4.57,1.52-7.39-.07-9.77-3.85-.82-1.29-2.42-2.12-3.73-3.07-3.8-2.77-6.59-6-6.77-11.1-.16-4.46-3.07-6.33-6.94-8.28-11.06-5.56-20.05-2.45-28.41,5.29-1.22,1.12-2.52,2.25-4.36,1.63s-1.24-2.34-1.14-3.67c.31-4.08-1.78-5.75-5.55-5.38s-5.29-1.13-5.4-4.78a6.11,6.11,0,0,0-1.34-3.33c-4.09-5.22-19.78-4.89-23.93.38a35.09,35.09,0,0,1-3.79,4c-7.27,6.67-8.52,6.37-11.44-2.69-.19-.59-.18-1.38-.56-1.73-7.62-7-1.16-7.74,3.89-10.8,6.16-3.73,11.28-9.26,16.63-14.24,4.94-4.59,11.4-6.18,16.94-9.34,7.32-4.16,15.26-7.37,22-12.08,3.87-2.69,6.13-3.22,9.3-1a92.81,92.81,0,0,1,11.92,9.61c5.29,5.2,13.94,7,20.43,3.58,1.24-.65,2.83-2,3.8-1.62,7.61,2.6,9.49-2.66,13.3-7.61,8.2-10.66,7.8-22.86,9-34.92.72-7,3.55-13.37,6.11-19.77,1.14-2.83,2.12-5.73.91-8.27-2.14-4.53-2.08-9.16-1.89-13.84.34-8.64-2.85-16-7.67-22.85-1.89-2.67-3.67-5.42-5.48-8.15-.68-1-1.17-2.83-2-3-7.32-1.39-6.79-6.91-7.57-12.44-.63-4.43-3.37-8.48-8.48-9.49s-9.86.28-13.18,4.54c-3.14,4-6.88,7-11.82,8.34-2.57.68-4.43.75-3.47-3.18,1.9-7.86-.88-14.54-6.38-20.13-1.62-1.64-2.52-3-1.24-5.3a7.33,7.33,0,0,0,.44-4.18c-1-7.34-1-7.32,6.8-6.66,3.82.33,6.53-1.34,9.86-3.41,8.43-5.26,13.74-14.93,25-16.46,6.42-.88,11.23-5.6,13.67-12.1a12.36,12.36,0,0,1,5.72-6.22c1.58-.92,3.73-1.74,4.41-3.18,3.42-7.26,10-5,15.6-5.47,2.6-.24,4.13,1.47,4.17,4.24.13,8.41,5.24,16,4,24.68-.38,2.55,1.42,4.36,3.73,5,4.17,1.23,6,5.38,9.75,7.25,2.49,1.25,1.07,3.78-.07,5.36-2.61,3.61-2.42,7.65-2.55,11.76-.13,3.74,1.23,6.52,4.61,7.88,3.55,1.44,5,4.07,5.3,7.57.68,7,5.05,12.94,5.31,20.07.09,2.33,2.32,3.15,4.58,3.18,11.4.14,19.61,5.79,25.71,15,1.93,2.9,3.61,6,6.32,8.27,3.87,3.22,4.11,6.79,1.52,10.85-3.41,5.35-6.63,10.83-10.27,16a37.45,37.45,0,0,0-5.08,10.37c-2.09,6.51-8.42,9.39-13.64,12.35-7.71,4.37-11.89,9-9.83,18.55,1.47,6.73-3.71,11.48-12.74,13.47-1.39.31-2.88.23-4.26.59-12.45,3.24-15.08,7.13-13.59,19.9a28.14,28.14,0,0,0,.72,5.47c2.36,7.29.93,12.53-6.15,16.85-4.35,2.65-7.31,7.54-11.29,11.1-3.53,3.15-.89,10.59,3.92,12.72a20.63,20.63,0,0,0,9.06,1.33C556.38,1646.42,559.06,1648.63,558.74,1653.91Z"/><path class="cls-2" d="M242.4,1375.24c-6.6.51-8.93-2.65-11.47-8.82-4-9.75-2.23-20.24-5.59-30a105.93,105.93,0,0,0-5.59-12.24c-1.52-3.1-1.35-4.69,2.7-5.32,8.79-1.37,11.18-4.64,11.34-13.74.06-3.33-1.18-6.84,2-9.8,3.92-3.66,5.34-3.61,7.56,1.2,1.79,3.9,3.64,7.77,5.38,11.69,1.86,4.23,4.58,5.33,8.83,3.11,7.36-3.85,10.11-2.38,10.52,6.05a112.77,112.77,0,0,0,2.6,17.58c.89,4.23,3,7.2,7.49,6,8.16-2.13,15.82,2.26,23.94,1s13.23-6.13,18-11.8c2.06-2.46,3.58-3.26,6.63-1.61,4.8,2.59,9.45,1.79,13.49-2,1-1,2-2.42,3.63-1.4a3.73,3.73,0,0,1,1.46,4.36c-1.86,7.32,2.29,12.53,6.16,17.86a5.07,5.07,0,0,0,4.19,2.19c7.81.16,15.18-.64,21.29-6.56,3.34-3.24,7.38-.66,10.76.77,3,1.27,5.78,3.13,9.15,3.3,2.94.15,6.13.2,6.56-3.76.37-3.39,1.1-7.1-3.73-8.49a49.48,49.48,0,0,1-7.29-3.2c-1.1-.52-2.37-1.12-2.35-2.55s1.3-1.94,2.43-2.44c12.06-5.41,24,1.22,25.85,14.25.73,5.29-.68,9.25-6,11.29-4.53,1.73-8.38,4.4-10.35,9.06a13,13,0,0,0,4.21,15.13c3.8,3.06,6.83,6.43,6.21,11.88-.55,4.9,1.75,7,6.79,7.06,10,.21,9.78.44,10.66,10.86.56,6.48,1.22,13.16,8.55,16.45,3.57,1.59,4.39,5.27,3,8.44-3.4,7.8-5.92,16.19-13.16,21.8-1.89,1.46-2.89,1.72-5.24.68-7.06-3.13-11.19-8.85-14.24-15.37-1.89-4-4-7.06-8.75-7.36a4.56,4.56,0,0,1-3.66-2c-3.95-6.27-9.26-5.66-15.08-3.3a53.69,53.69,0,0,1-7,2.27c-5.47,1.42-6.88.3-6.45-5.52.24-3.22-1.07-5.12-3.89-6.13a65.6,65.6,0,0,0-7-2.12c-7.82-1.84-10.18-4.49-10.94-12.49s-.7-7.79-7.82-4.76c-4.16,1.77-8.42-.51-12.71-.4-7.17.19-14.33-.53-20.65-4.61-3.26-2.11-6.28-1.59-8.83,1.2-7.06,7.72-17.43,8.55-26.31,12.3-5.86,2.48-8.56-.73-7.68-7,.71-5.15.33-9.81-5.25-12.45a9.75,9.75,0,0,1-5.58-6.22C249.9,1375.38,247,1374.35,242.4,1375.24Z"/><path class="cls-2" d="M362,1620.58c-.18-3.88-3-7-2.71-11.14.22-2.93.29-4.57,4.14-3.44,7.61,2.24,8.52,1.38,9.8-6.44.65-4,1.81-8-.14-11.92,2.64-3.59,5.77-6.78,8.31-10.46,2.35-3.42,4.64-4.33,6.89.37a11.39,11.39,0,0,0,3,4.29c-6.43-9.48-6.43-9.48-.51-16.57-6.74,8.87-5.4,7.31-11.63-1.72.58,3.6,7.34,6.32,4.5,10.51-2.69,4-4.45,9.91-10.68,10.73-.62-2.8-1.38-5.54-3.47-7.7a5.3,5.3,0,0,1-1.39-5.49c1.28-5.64-1.88-8.43-7.63-7-2.29.56-4.42,2.42-6.19-1-1.42-2.75-2.26-5,.15-7.75a13.05,13.05,0,0,0,3.55-7c.88-7.16-2.74-10.16-9.72-8-3.64-3.06-2.43-6.47,0-9.15,5.3-5.71,6.82-12.33,6.21-19.82-.25-3-.55-6.36.36-9.17,2.39-7.47-1-11.67-7.16-14.75a31.79,31.79,0,0,1-3.12-2c-5.89-3.83-5-5.58,0-10.23,7-6.55,16.21-10.78,21.25-19.4,3.93-6.72,3-10-3.65-14-4.18-2.53-5.18-9.84-1.82-13.34,1-1,2.15-1.48,3.27-.56,6,4.87,12,2.29,18,.24,4.71-1.6,9.15-3,12.2,2.65.19.34.57.78.89.81,10.65.92,11.82,11.16,17,17.4a20.79,20.79,0,0,0,6.68,5.18c2.12,1.12,5.78,3.72,5.55,4.23-3.91,8.83,4.92,12,7.74,17.63,1.34,2.68,2.89,4.44,1.24,7.68-1.78,3.47-.72,6.3,3.65,7.27,7.81,1.74,13.44,8.07,21.48,9.9,5.57,1.26,7,7.86,8.62,12.71,1.19,3.45-3.21,5.26-5.34,7.57-7.61,8.22-12.42,17.77-11.74,29,.31,5.11,3.58,10.14,2,15.47-1.9,6.55-1.06,13.77-5.06,19.79a8.79,8.79,0,0,1-6.45,4,26.86,26.86,0,0,0-15.09,7.65c-4.68,4.87-10.52,8.32-14.93,13.6-3.74,4.48-10.88,3.89-15.38,8.28-1.49,1.46-4.81-.92-6.6-3.19-4.28-5.43-6-5.83-9.52-.49C374.1,1622.63,367.78,1620.14,362,1620.58Z"/><path class="cls-2" d="M501.64,1256.21a9.7,9.7,0,0,0-3,.32c-6.38,2.91-12.21,4.36-16-3.86-.79-1.7-3.31-1.43-5.13-1.38-3.77.11-5.63-2.07-6.55-5.29-1-3.38,1.58-4.43,3.86-6,5.15-3.56,9.44-7.13,10.71-14.52,2.16-12.56,10.9-20.66,23-24.58,4.52-1.47,6.09-4,6.1-8.5,0-11.45.12-22.91,4.6-33.81a18.4,18.4,0,0,1,3.26-5.8c1.86-2,3.68-4.5,2.88-7.14-1.72-5.68.81-9.83,3.71-14.19,3.82-5.75,5.76-11.43.82-18a17.14,17.14,0,0,1-2.9-11.75c.14-1.47.3-3,1.76-3.7,1.75-.86,2.62.73,3.51,1.72a56.88,56.88,0,0,1,6.26,7.55c5.81,9.33,14.43,16.55,19.23,26.72,4.67,9.89,20.71,13.49,29.85,7.38,4.62-3.09,10.31-3.87,14.94-7.06,2.13-1.46,4.07-.13,2.91,2.3-2.37,4.93-.61,10.24-1.65,14.85-2.23,9.86-6,19.53-13.07,27.35-1.85,2-3.3.4-4.92-.17-5.33-1.86-7.55-.45-7,5.17a59.5,59.5,0,0,1-.13,11.56c-.38,4,.33,7.78,3.45,10.73,2.83,2.67,3.13,5.75,1,8.84-5,7-5.61,14.23-1.92,22,2,4.26,1.31,7.22-4.2,8.45-4.74,1.06-9.29,3.21-13.75,5.25-4,1.84-7.23,4.68-8.17,9.36-1,5-4,9.63-4.87,14.45-3.43,18.13-15.46,32.39-21.29,49.39-1.75,5.1-7.16,4.42-11.17,4.42-3.85,0-4.38-3.71-4.34-7a13.8,13.8,0,0,0-3.43-9c-3.42-4.32-3.87-8.19,1.38-11.92,5.73-4.07,9.66-9.31,8.19-17.18-.82-4.38-2-8-7.13-8.59-3-.35-3.66-1.91-3.08-4.71a37.69,37.69,0,0,0,.32-6.12C509.77,1258.33,507.08,1255.86,501.64,1256.21Z"/><path class="cls-2" d="M334.65,1213.26c.27,14-9.14,26.24-23.38,30.33-7.78,2.23-11.8,8.91-9.18,16.71,2.12,6.3,3.56,13.08,9.09,17.83a8.26,8.26,0,0,1,2.73,6.64c-.46,6.18,3.35,10.74,5.6,15.89.73,1.68,2.49,3.26,2.44,4.85-.22,7.52-.55,15.47-4.33,21.87S308,1339.73,300,1339.09c-7.62-.6-15-2.27-22.8-.83-2.56.47-3.27-2.76-3.78-4.9-1.33-5.57-2.72-11.11-2.77-16.93-.09-10.63-6.26-13.59-13.63-8.85-2.92,1.87-4.54.68-5.82-1.91a99.68,99.68,0,0,1-4.79-9.94c-1.49-4.08-3.34-7.24-8.36-5.86-4.78,1.32-8.47,6.63-7.47,11.18,1.27,5.76.68,10.61-4.87,13.82-5,2.89-7.82,1.46-7.85-4.3-.05-7-.81-13.09-8-17.13-3.94-2.21-1.65-8-3.37-12-1.95-4.63,3.45-14.27,8.08-16.81,1.91-1.05,4.44-1.58,4.21-4.6a6.92,6.92,0,0,0-3.61-6c-4.66-2.65-4.77-5.62-.72-9.08,13.93-11.93,29.19-21.76,45-31,9.12-5.33,20.14-6.82,28-14.5.86-.84,2.7-.7,4.08-1,1,2.14-.45,3.49-1.72,4.77-3.35,3.41-2.74,5.58.39,9.56,5.85,7.4,14.42,5.4,21.49,8.23,1.79.72,3.45-.69,2.4-2.77-1.35-2.69-.88-5.14,1.24-6.53,2.4-1.57,4.31,1.17,5.7,2.48C326.1,1219,330.22,1215,334.65,1213.26Z"/><path class="cls-2" d="M344.58,1209.49c6.06.2,10,3,11.45,9.09a11.54,11.54,0,0,0,8.45,8.87c3.91,1.2,7.64,3.24,11.62,3.91a56.51,56.51,0,0,1,26.64,12c13.77,10.93,14.13,10.33,6.26,25.9a100.87,100.87,0,0,0-4.7,12c-1.07,3-.23,5.39,2.58,7.4,3.88,2.79,8.46,2.9,12.74,4.15,2.68.78,7.15-.75,7.09,3.88s.27,9.64-5.18,12.12c-3.69,1.68-8.59,2.21-10.38,6.09-3.17,6.85-9,7.25-15.09,7.95a24.47,24.47,0,0,0-6,1.44c-4.26,1.65-5,6.58-1.21,9.14a44.86,44.86,0,0,0,8.89,4.09c2.23.87,3.61,2.18,2.9,4.59-.78,2.62-2.85,2.64-5,1.77-4.54-1.85-9-4-13.87-4.82-3.33-.54-6.24-.65-8.53,2.91-2.05,3.17-13.85,6.09-17,4.91-3.39-1.28-8.3-10.19-8.25-15,0-1.43.14-2.87.11-4.3-.06-2.33-.47-4.67-2.93-5.61a5.74,5.74,0,0,0-6.77,1.48c-3.56,4.16-7.15,4.39-11.81,1.45s-4.1-6.53-2.56-10.62c3.23-8.61-1.88-15.36-5.16-22.44a13.62,13.62,0,0,1-1.63-7c.22-3.15-.38-6.52-2.79-8.5-5.1-4.18-6.93-10-9-15.73-2.59-7.12.2-12.25,7.3-14.51,9.23-2.94,16.44-9,22.57-16.32,1.94-2.31,1.76-5.36,1.84-8.25.11-3.65-.63-7.42,1.33-10.85C340.36,1209.37,342.73,1210.72,344.58,1209.49Z"/><path class="cls-2" d="M291.56,1545.55c-3.37,2.91-1.89,6.8-1.93,10.32,0,1.68.48,3.41-1.55,4.09-1.1.38-2.6.72-3.52.27-2.66-1.31,0-2.61.29-3.93.57-2.54-.89-3.69-2.91-4.66-5.88-2.84-11.65-3.61-17.36.46a22.65,22.65,0,0,1-3.72,2.1c-1.56.71-3.19,2.7-4.9.76s-.05-3.32,1.46-4.48,2-2.62.8-4.24c-1.31-1.83-3.07-1.77-4.89-.84-2.18,1.11-4.43,2.12-6.06,4-7.31-9-16.3-10.83-27.84-9.31-12.89,1.7-26.18.39-39.29.45a8.63,8.63,0,0,1-6.53-2.86c-1.14-1.18-2.37-2.26-3.61-3.34-2.2-1.93-7.11-1.29-6.88-4.89.14-2.09,3.79-3.93,5.81-5.94,1.6-1.58,3.68-3,4.59-4.91,3.6-7.62,9.29-11.11,17.71-10.19a4.59,4.59,0,0,0,3.92-1.47c7.2-8,16.59-14,22.06-23.53,2.31-4,2.22-9,5-13,3.4-4.84,6.89-7,12.8-3.85,5.3,2.83,7.44,1.42,8.59-4.76.4-2.14.81-4.15,3.28-4.59,2.21-.39,4.77-.88,6.12,1.5,2.1,3.72,4.74,3.39,7.67,1.43,4.29-2.86,7.63-2.15,10.19,2.33,6.13,10.72,13.84,17.13,27.75,16,11.17-.93,14.55,5.32,11,18.31a48.86,48.86,0,0,1-7.28,15.39,10.14,10.14,0,0,0-1.16,10.48c1.42,3.11.1,5-1.83,7.57C296,1534.82,289,1537.86,291.56,1545.55Z"/><path class="cls-2" d="M528,1555.17c2,4.89,2.14,9.45-.7,14.36-3.14,5.41-7.1,10.44-8.92,16.55-1,3.27-3.21,3.17-5.11,1.64-3.05-2.46-5.31-.89-7.68.74-6.45,4.47-11,3.54-16.57-2.25a53.69,53.69,0,0,0-12.81-10.2c-4.53-2.44-10-5.08-13.79,2.26-1.24,2.42-4.44,3.61-7.56,2.58-2.46-.81-4.21-2.79-2.57-5.08,3.52-5,1-10.78,2.93-16,.87-2.32-.83-5.1-2.19-7.4a10.09,10.09,0,0,1,0-10.45c2.16-4,7.61-6.37,6.09-12.46-.29-1.18,2.21-1.28,3.66-1.06,2.52,0,3.36,1.37,4.23,3.72,1.6,4.31,3.48,8.55,5.27,12.8.79,1.86,1.33,4.45,4.35,4.19,3.52-3.86,3.9-9.11,5.73-12.32-.72,2.55-2.52,6.08-3.82,9.79-1.09,3.14-2.74,3.05-4.88,1.26-2.22-5.4-4.77-10.66-6.67-16.17-.78-2.25-2.64-3.23-4.17-4.65.08-3.63,3.39-4.9,5.37-7.06,2.65-2.89,2.63-5.9,1.12-9-4.19-8.66-3.8-10.9,4.38-15.67,3.25-1.9,6.33-3.87,8.43-6.91a4.08,4.08,0,0,1,4.12-1.89c8.72.59,16.07-4.07,24.07-6.21,2.16-.58,2.46-2.27,3.31-3.93,2.27-4.45,6-4.6,8-.26,2.4,5,6.45,8.93,9,13.75,3.17,6,5.47,12.21,4.87,19.26-.35,4-.62,8.21,1.73,12a2.78,2.78,0,0,1,.36,2.31c-5.78,9.53-6.26,20.68-9.61,31-3,.38-2.79-1.56-2.91-3.62-.3-5.25.12-10.51-.1-14.51,0,3.7,0,8.66,0,13.61C525,1552.28,525.14,1554.37,528,1555.17Z"/><path class="cls-2" d="M348.24,1543.19c-1.89,4.09-6.1,6.1-8.61,9.64-3.24,3.41-7.32,1.88-11.05,1.64a22.66,22.66,0,0,1-7.69-2.06c-6.07-2.7-12.09-3.89-18.28-.34a3.63,3.63,0,0,1-3.56-.15l-5.16-6.39c-.63-6.33,4.35-9.74,7.91-13.31,3.39-3.4,4.22-6.25,2.08-10.16-1.59-2.9-1-5.14.84-7.84a50.21,50.21,0,0,0,6.94-14.12c3-10.12,21.78-16.57,31.08-11.2.87.5,1.89.76,2.71,1.32,4,2.76,9,4.71,6.7,11.5-.89,2.57-.43,5.71-.13,8.55.77,7.33-1.36,13.39-6.28,19C341,1534.73,342.6,1541.68,348.24,1543.19Z"/><path class="cls-2" d="M339.63,1555.51c.39,3.43-1.35,5.32-3.93,7.57-8.82,7.72-19.1,13.81-26.36,23.29a11.79,11.79,0,0,0-2,3c-3,9.12-11.84,13.76-16.57,21.57-1.25,2.06-5.15,4.7-5.54,4.06-2.36-3.89-7.37-1.36-9.59-4.48-1.91-2.69.44-3,2.27-3.39,1.62-.36,4.53.39,3.9-2.39s-3.46-1-5.3-1.22c-2.32-.23-3.17,2.33-7,3.65,6.45-8.15,6.48-16.6,8.19-24.77,1.2-5.72,8.51-8.94,14-12,2.89-1.59,4.67-2.1,3-6.11-1.77-4.18,4.53-5.95,4.44-10.08,5.71-6.29,12-7.79,19.86-3.53a30.23,30.23,0,0,0,15.63,3.46C336.34,1554.14,338.24,1553.86,339.63,1555.51Z"/><path class="cls-2" d="M535.53,798.83c-2.8,7.55-2.57,16.47-5.15,24.84-.68,2.18-1.93,3.12-4.1,1.83-3.6-2.14-7.55-1.52-11.39-1.44-6.36.12-9.83,3.44-10.18,9.75-.17,3.15-.28,6.27-3.17,8.16-1.67,1.08-3.12-.13-4.25-1.41-2.56-2.9-3.09-6.1-1.27-9.59a33.07,33.07,0,0,1,2.62-4.75c3.86-5.06,8-9.48,7.79-16.94-.11-4.41,2.91-9.16,9.61-8.88,5.08.21,8.31-4.67,12.84-6.55C533.86,791.79,535.17,793.62,535.53,798.83Z"/><path class="cls-2" d="M417.36,1063c6.42.19,12.54,0,14.16-8.24a2.79,2.79,0,0,1,2.81-2c1.83.07,2.23,1.52,2.47,3s.35,2.85.65,4.25c1.31,6.11,3.93,10.28,11.29,10.53s8.47,3.07,5.45,9.54c-5,10.65,2.58,22.73,14.58,23.42,4.85.28,9.84-1.28,13.84,4,1.81,2.38,6.23,1.47,8.19-2.22,1.53-2.89,3.34-5.72,4.36-8.8,2.21-6.67,6.77-8.67,13.29-7.69,3.63.55,7.33.73,10.94,1.44s5.82,2.58,5.28,6.83c-1,7.91-.17,15.5,4.64,22.29,2.3,3.25-.4,6.41-1.86,8.42-4,5.59-6.34,11.17-5.44,18.21.5,3.94-3.86,5.92-5.22,9.45-4.15,10.77-4.69,21.94-4.65,33.18,0,5.48-1.58,8.36-7.17,10.28-5.2,1.78-10.63,4.19-14.13,9.22-2,2.84-4.63,3.76-8.51,3-12-2.4-24.49.35-32.06,8.46-9.1,9.76-22.22,15.45-28.3,28.13-2,4.13-5.3,3.71-7.92.77-5.21-5.84-13.1-8.32-17.91-14.68-1.19-1.58-3.52-1.87-5.61-2.16-6.51-.88-12.76-2.83-19-4.77-6.8-2.11-12.07-5.2-13.95-13-1.54-6.37-7.49-6.74-13-7-1.59.1-3.1.44-4.76-.25a20.12,20.12,0,0,0-15.32-.08c-3.22,1.26-6.28,1.58-8.08-1.52-1.67-2.87-1.85-6.22,1.21-8.82.77-.65,1.46-1.42,2.28-2s1.45-1.1,2.17-1.66c9.14-4.86,16.07-12.59,23.75-19.22a18.37,18.37,0,0,0,5.35-20.24c-2.26-6.7-.81-13.26-.72-20,.11-8.58,3.27-15.45,8.43-21.93,7.05-8.85,9.21-20,13.11-30.22,1.93-5.09,4.25-9.62,9.64-11.75,4.85,2.09,9.32,5.21,14.69,5.9C405.64,1076.32,412.45,1072.33,417.36,1063Z"/><path class="cls-2" d="M473.82,1213c2.88.18,4.34.15,5.74.38,6.09,1,6.62,2,3.55,7.33-2.41,4.23-.47,10.31-6,13.28-1.91,1-3.24,3-5.42,3.93-4.39,1.8-4.43,5.62-3.65,9.36.73,3.57,2.38,6.71,6.87,6.45a7.47,7.47,0,0,1,7.5,4.28c2.92,5.28,7.32,5.1,12.16,3.25a38.24,38.24,0,0,1,5.75-2c4.07-.84,6.58,1.16,6.51,5.17-.09,4.62-.82,8.56-5.64,11.87-6.67,4.58-14.21,9.66-12.52,20,.56,3.44,2.06,5.78,5.51,6.51,10.84,2.31,14,11.53,16.17,20.12,1.5,5.94,3.16,8.88,9.31,8.45,3.94-.27,6.14,1.84,6.94,5.51.69,3.2,1.27,6.42,1.79,9.65.85,5.28,2.36,9.5,8.49,11.37,5,1.52,6,11.43,1.85,16.09-3.2,3.6-5.69,8-10.59,10-2,.82-3.43,2.94-4.29,5.07-3,7.54-9,11.6-16.5,13.41-6.08,1.45-10,5.34-14.56,9.29-5.11,4.42-9.89,11.33-19.19,8.64-5.75-1.67-7.81,1.36-6.33,7.35.64,2.6,1.38,5-.13,7.67-1.28,2.26.11,4.25,1.68,6.06,4.89,5.67,9.33,11.15,5.58,19.73-1.78,4.07,2.28,5.83,5.92,5.31a21.6,21.6,0,0,0,13.88-7.23c3.47-4.09,6.78-9,13.13-5.58,5.5,3,7.38,12.39,4.62,18.78a10.79,10.79,0,0,1-7.45,6.56c-6.84,2-13.42,4.6-20.7,5.43-5.95.68-9.38,6.79-14.39,9.95-6.27,4-13.66,4.78-19.76.38-1.33-1-2.42-2.63-3.86-3-6.88-1.7-11.35-4.45-9.32-12.94.77-3.19-3.23-5.51-5.19-8-5.54-7.1-5.71-8.65,1.78-17.77,6.27-7.64,11.37-16,11.18-26.46,0-2.94-1.08-5.26-3.75-6.54-6.62-3.17-7.77-8.92-7.56-15.42.31-9.56-1.4-11.5-11.13-11.68-4.84-.09-7.59-1.72-7-6.81.6-5.4-2.19-8.87-6-12-6.77-5.49-6.43-11.9.83-16.75.68-.45,1.43-.8,2.16-1.19,9.4-5.07,12.11-14.3,6.88-23.81-1.08-2-2.45-3.78-3.71-5.65-4.53-6.67-3.56-10,3.95-13.38,9-4.1,11.15-7.74,10.65-17.28-.18-3.49-1.45-5.12-5.06-5.5-4.46-.46-9-1.12-13.09-3.08-3.3-1.56-4.59-3.53-3.19-7.75,4.81-14.42,13.38-26.53,22.37-38.43.95-1.26,2.52-2,3.8-3.06A120.14,120.14,0,0,0,450.05,1224C456.21,1217.06,465.65,1214,473.82,1213Z"/><path class="cls-2" d="M382.59,1636.53c-3,3.42-6.22,6.61-10.51,8.45-3.44,1.48-.95,3.23.25,3.83,5.12,2.56,2.61,7,2.88,10.68.08,1-.79,2.37-1.87,1.57-2.28-1.7-6.4,1.29-7.45-2.85-1.87-7.41-7.18-13.92-5.39-22.31.9-4.21-.48-8.46-1.11-12.67,2,0,4.1-.22,6.13-.08,7.2.51,14.06.3,17.74-8.33,2.61,6.1,6.86,8,12.39,8.41,6,.45,12.56,13.22,8.76,17.82-2.15,2.61-6.62.9-9.84-.55C390.7,1638.76,387.33,1635.62,382.59,1636.53Z"/><path class="cls-2" d="M444.72,1639.47c.91,2-.52,3-1.77,4-.92.73-3,1.34-2.92,1.81,1,8.19-5.24,4.33-8.45,4.92s-6.65-.27-8.34,3.61a2.76,2.76,0,0,1-3.72,1.25c-3.4-1.38-6.25-2.28-10.12-.31-2.57,1.31-4.47-2.71-4.2-4.7.58-4.33.53-9.16,6.22-11.33a28,28,0,0,0,13.34-11.08c3.66-5.58,8.83-1.22,13.2-1.62a6,6,0,0,1,6.34,6.17C444.38,1634.61,444.57,1637,444.72,1639.47Z"/><path class="cls-2" d="M481.26,1652.49c-1.39,2.48-2.77,5-4.19,7.43-.86,1.47-3.09,3-.58,4.54,2.07,1.26,3.28-.59,4.27-2.25.49-.83.58-2,3-2.21-.52,3.5-.85,6.24-3.74,9.17-5.4,5.49-7.59,6-13,1-.78-.72-1.75-1.23-1.27-2.42,2.54-6.25-2.29-9-5.94-12-4.17-3.45-4.82-6.34,0-8.3,6.17-2.54,10.23-8,16.49-10.14,3.13-1.06,16.22,2,18,4.58,1.32,2,1,3.33-1.51,3.89s-5.08,1.63-7.66,1.83c-3.46.27-3.8,2.43-3.89,5Z"/><path class="cls-2" d="M226.39,1570.25c10.19,0,13.25,4.14,9.9,12.91a2.39,2.39,0,0,0,.85,3.11,4.07,4.07,0,0,0,5.59.06c3.31-2.62,5.45-.51,7,2s-.64,4.08-2.24,5.61c-2.29,2.17-4.52.74-5.68-1-1.68-2.48-4.21-3.76-6.21-5.71-2.27-2.21-3.84-2.09-6.12,0-1.76,1.66-3.18,6-6.61,3s-8.22-5.59-6.71-11.8C217.55,1572.57,220.8,1569.6,226.39,1570.25Z"/><path class="cls-2" d="M370.47,1587.4c2.17,4.8-.11,9.53-.27,14.29,0,1.33-1,2.72-2.22,2.37-2.59-.76-6.1-.9-7.06-3.81-1.08-3.24-3.26-6.1-1.91-10.39,1.08-3.42,1.56-8-1.12-11.62,8.74-2.55,9.39-2.15,12.58,8Q371.75,1586.8,370.47,1587.4Z"/><path class="cls-2" d="M254.65,1642.88c-.88-3.33.31-3.71,3.37-2.87,3.41.94,5.22-.43,3.9-4.25-1.19-.47-2.84-1.66-2.08-2.47,3.67-3.93-.26-7.54-.09-11.25,9.58,1.63,14.7,9.47,21.3,15.53-.53-7.33-6.14-11.62-9.55-17.57,3.86-.67,7.45-2.08,6.81,4.45-.33,3.4,2.94,5.35,5.44,6.9,3.44,2.13,3,4.7,2.33,7.91-.83,3.81-3.21,5.51-6.73,5.51-4.27,0-7.79.54-8,6.57C268.11,1643.14,262.87,1639.8,254.65,1642.88Z"/><path class="cls-3" d="M316.33,1526.76,311,1561.08l-5.33-34.32h0a23.24,23.24,0,1,1,10.65,0Z"/><circle class="cls-4" cx="311.01" cy="1504.14" r="12.1"/><path class="cls-3" d="M507.58,1478.69,502.26,1513l-5.33-34.32h0a23.24,23.24,0,1,1,10.65,0Z"/><circle class="cls-4" cx="502.26" cy="1456.07" r="12.1"/><path class="cls-3" d="M221.17,1057.52l-5.33,34.32-5.32-34.32h0a23.24,23.24,0,1,1,10.65,0Z"/><circle class="cls-4" cx="215.84" cy="1034.9" r="12.1" transform="translate(-379.61 161.38) rotate(-22.5)"/><path class="cls-3" d="M761.83,1298.53l-5.33,34.32-5.32-34.32h0a23.24,23.24,0,1,1,10.65,0Z"/><circle class="cls-4" cx="756.5" cy="1275.91" r="12.1"/><path class="cls-3" d="M1012.28,696.83,1007,731.15l-5.33-34.32h0a23.24,23.24,0,1,1,10.65,0Z"/><circle class="cls-4" cx="1006.95" cy="674.21" r="12.1"/><circle class="cls-5" cx="580.34" cy="706.65" r="15.59" transform="translate(-240.74 1109.12) rotate(-76.72)"/><circle class="cls-5" cx="983.71" cy="1116.71" r="15.59" transform="translate(-329.14 1817.54) rotate(-76.72)"/><circle class="cls-5" cx="756.5" cy="1067.35" r="15.59"/><circle class="cls-5" cx="124.64" cy="1169.89" r="15.59" transform="translate(-1042.59 1022.41) rotate(-76.72)"/><circle class="cls-5" cx="38.19" cy="1734.66" r="15.59" transform="translate(-1680.19 1494.49) rotate(-80.78)"/><circle class="cls-5" cx="558.55" cy="1328.3" r="15.59" transform="translate(-862.55 1566.73) rotate(-76.72)"/></g></g></g></svg>